<?xml version="1.0" encoding="UTF-8" standalone="no"?>
<svg
   xmlns:dc="http://purl.org/dc/elements/1.1/"
   xmlns:cc="http://creativecommons.org/ns#"
   xmlns:rdf="http://www.w3.org/1999/02/22-rdf-syntax-ns#"
   xmlns:svg="http://www.w3.org/2000/svg"
   xmlns="http://www.w3.org/2000/svg"
   xmlns:sodipodi="http://sodipodi.sourceforge.net/DTD/sodipodi-0.dtd"
   xmlns:inkscape="http://www.inkscape.org/namespaces/inkscape"
   version="1.0"
   width="1190.9774pt"
   height="833.11688pt"
   viewBox="0 0 1190.9774 833.11688"
   preserveAspectRatio="xMidYMid meet"
   id="svg2"
   inkscape:version="0.91 r13725"
   sodipodi:docname="boom6.svg">
  <defs
     id="defs34" />
  <sodipodi:namedview
     pagecolor="#ffffff"
     bordercolor="#666666"
     borderopacity="1"
     objecttolerance="10"
     gridtolerance="10"
     guidetolerance="10"
     inkscape:pageopacity="0"
     inkscape:pageshadow="2"
     inkscape:window-width="1920"
     inkscape:window-height="1018"
     id="namedview32"
     showgrid="false"
     inkscape:zoom="0.35355339"
     inkscape:cx="1856.4869"
     inkscape:cy="341.02714"
     inkscape:window-x="-8"
     inkscape:window-y="-8"
     inkscape:window-maximized="1"
     inkscape:current-layer="svg2"
     fit-margin-top="0"
     fit-margin-left="0"
     fit-margin-right="0"
     fit-margin-bottom="0" />
  <metadata
     id="metadata4">
Created by potrace 1.12, written by Peter Selinger 2001-2015
<rdf:RDF>
  <cc:Work
     rdf:about="">
    <dc:format>image/svg+xml</dc:format>
    <dc:type
       rdf:resource="http://purl.org/dc/dcmitype/StillImage" />
    <dc:title></dc:title>
  </cc:Work>
</rdf:RDF>
</metadata>
  <g
     transform="matrix(0.1,0,0,-0.1,-17.582505,876.1263)"
     id="g6"
     style="fill:#2d3ecc;fill-opacity:1;stroke:#1d296c;stroke-width:11.19999981;stroke-miterlimit:4;stroke-dasharray:none;stroke-opacity:1">
    <path
       d="m 8410,8748 c -25,-5 -74,-29 -110,-52 -73,-48 -248,-198 -295,-254 -16,-20 -37,-43 -45,-52 -8,-8 -56,-78 -106,-155 -79,-122 -114,-179 -196,-319 -16,-27 -47,-92 -77,-161 -38,-86 -50,-114 -61,-145 -7,-19 -18,-48 -25,-65 -7,-16 -20,-51 -30,-77 -24,-66 -41,-77 -49,-36 -4,18 -9,60 -12,93 -3,33 -7,67 -10,75 -3,8 -10,62 -15,120 -8,95 -15,153 -34,290 -4,25 -23,108 -42,185 -20,77 -38,156 -40,175 -8,67 -13,80 -43,95 -41,21 -55,19 -129,-17 -136,-69 -399,-335 -512,-520 -63,-102 -159,-287 -159,-306 0,-8 -6,-26 -14,-40 -19,-38 -64,-175 -81,-247 -7,-33 -18,-73 -24,-88 -6,-16 -11,-38 -12,-50 0,-12 -11,-44 -23,-72 l -23,-50 -11,55 c -6,30 -16,93 -21,140 -38,318 -75,539 -102,608 -5,13 -9,31 -9,41 0,26 -94,310 -120,363 -33,67 -60,141 -60,165 0,30 -45,63 -87,63 -25,0 -42,-8 -61,-29 -101,-107 -238,-352 -300,-536 -67,-197 -94,-321 -113,-520 -18,-186 -32,-278 -45,-282 -22,-7 -92,74 -180,207 -49,74 -96,149 -104,165 -12,24 -125,211 -158,261 -72,111 -169,247 -196,275 -24,26 -46,39 -75,44 -48,8 -71,-4 -133,-67 -39,-40 -138,-218 -138,-248 0,-9 -4,-20 -8,-26 -10,-10 -37,-99 -48,-154 -3,-19 -10,-39 -14,-45 -4,-5 -12,-32 -19,-60 -7,-27 -19,-75 -27,-105 -12,-50 -28,-215 -28,-295 1,-104 22,-278 39,-317 5,-14 2,-18 -13,-18 -25,0 -157,139 -274,287 -48,61 -99,124 -114,140 -14,15 -43,53 -64,83 -21,30 -47,64 -57,75 -11,12 -22,26 -24,32 -2,6 -21,30 -42,54 -76,88 -169,222 -183,262 -10,31 -23,46 -46,56 -29,13 -35,12 -76,-10 l -44,-24 -4,-170 c -3,-93 -7,-188 -9,-210 -2,-22 -4,-80 -5,-130 0,-49 -5,-105 -11,-123 -8,-24 -8,-37 1,-47 8,-10 11,-34 8,-65 -3,-28 -1,-53 3,-56 5,-3 9,-14 9,-25 0,-10 6,-19 13,-19 9,0 9,-2 -1,-8 -15,-10 -8,-79 13,-127 7,-16 17,-48 20,-70 4,-22 12,-45 17,-52 5,-6 8,-20 7,-30 -1,-10 3,-36 9,-58 7,-22 12,-59 12,-83 l 0,-43 -37,7 c -41,7 -94,25 -160,55 -24,10 -47,19 -53,19 -16,0 -283,125 -455,212 -55,28 -145,73 -200,100 -55,27 -107,53 -115,57 -132,71 -181,98 -210,117 -42,29 -69,30 -120,4 -68,-35 -75,-68 -27,-120 23,-26 36,-53 45,-100 8,-36 22,-87 33,-114 10,-27 19,-56 19,-65 0,-9 12,-38 25,-66 14,-27 25,-56 25,-63 0,-18 71,-183 87,-203 19,-23 5,-30 -28,-14 -15,8 -34,15 -42,15 -8,0 -36,12 -63,26 -55,30 -139,61 -199,74 -22,5 -67,15 -100,23 -33,9 -89,18 -125,21 -64,5 -261,22 -350,31 -25,2 -126,9 -225,15 -99,6 -231,18 -293,27 -111,16 -113,16 -140,-4 -20,-15 -28,-30 -30,-60 -3,-36 1,-44 27,-62 16,-12 32,-21 36,-21 7,0 161,-101 300,-197 39,-26 88,-64 110,-83 60,-52 255,-252 300,-309 22,-27 45,-50 50,-50 6,-1 26,-24 45,-51 19,-28 49,-68 65,-90 17,-21 41,-58 55,-81 14,-23 30,-47 35,-53 15,-15 55,-85 55,-95 0,-9 -57,-26 -295,-87 -99,-25 -196,-50 -215,-56 -19,-5 -54,-14 -77,-19 -92,-20 -130,-28 -193,-43 -36,-8 -83,-15 -106,-16 -23,0 -54,-5 -70,-10 -16,-6 -76,-17 -134,-25 -58,-8 -152,-24 -210,-36 -58,-11 -124,-24 -147,-28 -54,-10 -71,-25 -79,-69 -6,-31 -3,-39 25,-64 29,-26 37,-28 77,-22 43,6 133,-11 254,-48 37,-11 187,-83 230,-109 88,-55 202,-118 240,-133 25,-9 61,-27 80,-40 19,-12 51,-28 70,-36 19,-8 65,-31 101,-52 36,-21 69,-38 72,-38 3,0 30,-14 59,-31 29,-18 73,-43 98,-57 25,-13 59,-35 77,-48 17,-13 34,-24 38,-24 6,0 216,-143 280,-191 22,-16 66,-48 98,-70 32,-22 55,-44 52,-48 -13,-22 -251,-102 -344,-117 -24,-3 -58,-12 -75,-19 -17,-7 -62,-21 -100,-30 -55,-14 -426,-190 -688,-326 -10,-5 -24,-9 -31,-9 -7,0 -35,-11 -63,-24 -27,-13 -83,-34 -124,-47 -51,-17 -86,-35 -112,-60 -43,-41 -46,-57 -19,-90 19,-24 21,-24 233,-24 138,0 229,-5 258,-13 66,-18 163,-41 260,-62 47,-10 101,-23 120,-29 113,-31 201,-53 248,-61 29,-5 78,-16 110,-25 31,-9 73,-21 92,-26 43,-11 122,-34 193,-55 95,-29 187,-82 187,-108 0,-6 -43,-56 -96,-111 -169,-176 -218,-237 -298,-369 -10,-17 -21,-33 -25,-36 -10,-7 -111,-157 -111,-165 0,-5 -106,-166 -184,-280 -15,-22 -35,-56 -44,-75 -9,-19 -18,-37 -21,-40 -4,-3 -26,-34 -50,-70 -61,-88 -115,-156 -173,-212 -38,-38 -48,-54 -48,-81 0,-65 57,-85 127,-45 55,31 152,78 162,78 4,0 19,8 32,19 22,17 195,109 374,198 74,38 137,75 305,184 127,82 208,117 217,94 8,-22 -4,-109 -26,-180 -51,-170 -92,-410 -112,-660 -5,-71 -12,-215 -15,-320 -3,-104 -7,-203 -7,-220 -2,-25 2,-30 23,-33 14,-2 37,-8 51,-13 36,-14 109,21 109,52 0,20 29,51 301,315 74,72 154,153 178,180 24,27 87,94 140,149 54,55 115,125 136,155 22,30 42,57 45,60 3,3 17,21 32,42 15,20 34,42 41,50 7,7 40,52 73,99 32,47 98,137 145,200 47,63 114,159 149,214 69,108 210,295 222,295 12,0 9,-67 -6,-145 -22,-112 -10,-1089 14,-1170 5,-16 12,-70 16,-120 3,-49 11,-98 16,-107 11,-22 68,-24 107,-4 23,13 81,84 81,101 0,3 22,38 49,78 117,174 211,335 211,362 0,4 14,26 30,50 17,24 30,45 30,48 0,2 27,52 60,111 33,59 60,110 60,113 0,3 9,18 20,33 18,26 43,69 104,185 12,22 34,58 49,80 15,22 27,44 27,48 0,5 8,21 19,35 10,15 28,44 40,65 11,20 31,54 42,75 12,20 30,49 40,64 11,14 19,29 19,33 0,4 9,20 20,35 11,16 43,73 71,127 74,142 131,219 174,233 68,23 96,-5 115,-115 7,-38 16,-80 21,-93 5,-13 9,-45 9,-73 0,-27 4,-57 9,-67 5,-9 15,-57 21,-107 6,-49 20,-126 31,-170 10,-45 19,-91 19,-103 0,-13 5,-32 11,-44 6,-11 12,-44 14,-73 2,-30 6,-63 10,-74 6,-20 23,-107 29,-146 1,-11 5,-27 8,-35 9,-21 18,-64 29,-135 20,-134 65,-336 89,-405 39,-110 59,-168 67,-195 7,-25 14,-31 42,-33 19,-2 44,2 56,8 27,15 114,195 144,300 8,25 22,68 31,95 40,112 88,276 135,465 4,14 10,34 15,45 5,11 11,34 15,50 16,78 24,113 35,150 14,46 25,110 39,215 6,41 18,104 26,140 10,40 17,137 21,255 6,249 8,257 42,253 18,-2 38,-19 64,-53 21,-27 46,-54 55,-58 10,-4 27,-29 38,-54 11,-26 37,-68 58,-94 20,-27 37,-54 37,-61 0,-7 13,-26 29,-43 16,-16 37,-46 48,-65 10,-19 35,-61 56,-93 20,-31 37,-63 37,-70 0,-6 14,-34 30,-62 16,-27 30,-55 30,-62 0,-7 11,-29 25,-49 14,-20 25,-45 25,-54 0,-10 6,-23 14,-29 7,-6 16,-24 19,-40 3,-16 12,-35 20,-43 8,-7 24,-43 37,-78 22,-61 66,-160 145,-325 18,-38 43,-90 54,-115 12,-25 27,-54 34,-65 6,-11 29,-48 50,-81 20,-34 37,-69 37,-77 0,-27 35,-39 78,-27 54,14 94,62 113,135 4,16 12,46 18,65 9,33 15,59 61,240 22,90 35,151 50,245 6,39 15,90 20,115 15,75 49,347 60,485 6,72 20,235 31,364 10,129 21,236 24,239 6,6 25,-45 32,-85 3,-18 12,-38 19,-44 8,-6 14,-22 14,-34 0,-12 7,-28 15,-35 8,-7 15,-20 15,-29 0,-9 19,-57 43,-106 24,-50 49,-106 56,-125 24,-63 83,-205 91,-215 4,-5 13,-28 20,-50 7,-22 23,-58 36,-80 12,-22 32,-67 44,-100 12,-33 30,-78 40,-100 11,-22 31,-71 45,-110 15,-38 33,-77 40,-85 7,-8 16,-26 20,-40 11,-39 114,-250 137,-283 19,-27 25,-29 65,-24 52,6 83,30 83,66 0,14 9,58 19,96 24,88 36,149 51,250 6,44 15,105 21,135 6,30 15,80 20,110 6,30 14,75 19,100 9,49 21,168 47,465 8,105 19,215 22,245 3,30 3,75 -1,99 -4,24 -4,50 1,60 8,13 12,10 25,-19 23,-57 165,-229 309,-374 83,-84 190,-200 281,-306 7,-8 20,-22 29,-30 9,-8 37,-40 62,-70 24,-30 57,-70 72,-88 32,-38 194,-141 235,-149 37,-7 94,4 113,23 19,19 19,71 1,115 -7,19 -21,77 -31,129 -26,138 -53,233 -105,365 -24,61 -46,115 -63,155 -11,24 -41,101 -67,171 -27,70 -55,141 -64,157 -9,18 -12,33 -6,37 12,8 148,-39 222,-76 10,-5 29,-9 43,-9 14,0 42,-7 62,-15 19,-8 42,-15 51,-15 8,0 23,-6 31,-13 9,-7 63,-28 121,-46 58,-18 114,-37 125,-41 60,-24 223,-70 249,-70 11,0 29,-8 40,-18 12,-11 46,-26 77,-36 31,-9 64,-23 75,-30 10,-8 51,-23 89,-34 88,-27 202,-65 246,-84 19,-8 52,-21 74,-28 22,-7 54,-23 70,-35 51,-38 90,-41 136,-11 32,22 39,32 39,60 0,30 -6,37 -65,75 -43,28 -94,76 -152,144 -48,56 -115,131 -149,167 -34,36 -79,87 -99,114 -21,28 -46,59 -57,70 -11,12 -38,46 -61,76 -23,30 -44,57 -47,60 -17,16 -111,137 -145,185 -22,32 -63,85 -91,119 -28,34 -70,90 -94,126 -24,36 -46,67 -49,70 -3,3 -33,46 -65,95 -33,50 -71,103 -85,118 -34,38 -20,45 71,35 40,-5 183,-13 318,-18 292,-12 454,-30 590,-65 172,-44 224,-57 310,-75 52,-12 125,-30 161,-41 37,-11 117,-25 178,-31 106,-11 113,-11 139,9 45,34 43,99 -5,120 -27,12 -110,81 -218,182 -27,26 -66,58 -85,71 -19,13 -37,27 -40,30 -3,3 -21,17 -40,30 -19,13 -37,27 -40,31 -6,7 -62,48 -164,117 -38,26 -81,56 -96,67 -15,11 -56,40 -91,64 -156,108 -356,267 -441,350 -67,64 -79,81 -57,81 6,0 68,28 137,61 70,34 188,88 262,121 74,32 144,63 155,68 73,33 119,49 185,64 96,23 240,63 310,86 30,9 89,27 130,39 178,52 362,121 389,145 12,11 21,30 21,42 0,37 -51,58 -155,66 -85,6 -132,13 -265,37 -30,5 -71,13 -90,16 -19,4 -71,15 -115,25 -145,33 -410,69 -560,75 -139,6 -235,17 -235,26 0,8 41,39 137,104 29,19 95,73 148,120 52,47 99,85 103,85 4,0 27,18 52,40 25,22 78,66 119,98 41,31 106,86 145,121 39,35 96,82 126,105 56,41 105,86 263,244 92,92 103,116 68,151 -18,18 -33,19 -263,14 -140,-2 -288,-11 -348,-20 -58,-8 -134,-19 -170,-23 -36,-5 -85,-13 -110,-19 -25,-5 -90,-19 -145,-30 -55,-11 -115,-25 -134,-30 -54,-16 -263,-52 -269,-46 -7,7 81,99 148,156 130,110 567,561 625,645 11,16 38,49 61,74 23,25 48,54 57,65 9,11 36,46 61,77 25,31 46,61 46,67 0,6 4,11 8,11 5,0 23,28 42,63 18,34 46,81 62,105 16,23 28,50 26,59 -4,22 -51,55 -79,56 -55,1 -268,-24 -319,-38 -30,-8 -74,-15 -96,-15 -23,0 -61,-7 -84,-15 -24,-8 -68,-20 -99,-26 -117,-21 -277,-61 -287,-72 -4,-4 -19,-7 -34,-7 -15,0 -65,-13 -111,-29 -46,-15 -104,-34 -129,-42 -122,-36 -448,-188 -565,-264 -33,-22 -108,-63 -167,-92 -99,-49 -128,-60 -128,-49 0,2 29,62 64,133 35,70 74,149 85,176 40,90 63,142 93,207 17,36 39,88 50,115 11,28 39,88 62,135 24,47 51,108 61,135 10,28 24,57 31,65 7,8 16,29 20,45 14,57 52,130 83,159 38,36 38,49 5,93 -21,27 -30,32 -52,27 -80,-18 -339,-143 -432,-209 -30,-21 -77,-55 -105,-74 -27,-19 -57,-43 -66,-53 -9,-10 -21,-18 -26,-18 -5,0 -27,-17 -48,-38 -22,-20 -74,-65 -115,-98 -41,-34 -102,-92 -135,-130 -33,-37 -73,-82 -90,-99 -43,-46 -85,-96 -104,-125 -8,-14 -32,-48 -53,-76 -21,-28 -38,-56 -38,-62 0,-7 -4,-12 -9,-12 -5,0 -20,-17 -32,-37 -13,-21 -26,-40 -29,-43 -4,-3 -41,-56 -84,-117 -73,-107 -96,-134 -96,-116 0,4 5,37 11,73 6,36 12,79 14,95 1,17 9,80 18,140 9,61 23,184 32,275 8,91 20,203 26,250 15,119 -1,444 -24,466 -11,11 -83,13 -127,2 z m 28,-141 c 30,-83 27,-243 -13,-587 -7,-63 -13,-122 -13,-130 0,-8 -3,-31 -5,-50 -3,-19 -10,-75 -16,-125 -33,-260 -43,-322 -61,-376 -24,-71 -24,-64 2,-89 30,-28 88,-27 119,3 13,12 44,51 69,85 25,35 58,80 74,100 37,48 126,176 149,216 11,17 27,40 36,51 9,11 29,38 43,60 48,76 179,233 278,336 63,65 220,199 315,269 25,19 63,49 83,66 21,17 71,49 112,71 41,22 96,52 122,67 55,31 78,33 78,8 0,-22 -50,-141 -126,-300 -30,-63 -54,-116 -54,-118 0,-2 -18,-42 -40,-89 -22,-47 -40,-87 -40,-90 0,-3 -16,-40 -36,-82 -19,-43 -43,-94 -51,-113 -21,-47 -72,-153 -107,-220 -16,-30 -38,-73 -49,-95 -11,-22 -29,-51 -39,-64 -21,-28 -22,-49 -3,-74 16,-22 89,-35 99,-18 4,6 14,11 23,11 15,0 87,34 166,79 21,11 41,21 46,21 7,0 152,82 211,120 8,5 31,17 50,26 19,9 53,25 75,36 183,93 252,125 295,139 14,4 52,17 85,30 33,12 75,26 93,30 17,5 47,13 65,18 215,61 459,114 727,161 61,11 144,13 152,4 9,-8 -20,-68 -66,-139 -42,-65 -181,-239 -215,-269 -11,-11 -21,-23 -21,-29 0,-5 -15,-23 -34,-40 -18,-18 -74,-77 -124,-133 -108,-121 -263,-276 -352,-353 -36,-31 -105,-95 -154,-143 -48,-47 -112,-105 -142,-129 -48,-39 -53,-48 -51,-79 3,-52 31,-62 145,-55 52,3 112,10 135,15 54,12 173,37 262,56 39,7 108,23 155,33 80,19 195,35 425,62 104,13 325,13 337,1 13,-13 -85,-114 -206,-212 -67,-53 -130,-107 -141,-120 -11,-12 -40,-36 -65,-53 -25,-17 -74,-55 -109,-86 -35,-30 -92,-76 -126,-101 -34,-25 -84,-65 -111,-88 -89,-77 -343,-269 -372,-281 -39,-16 -65,-62 -53,-94 5,-13 16,-27 24,-30 18,-7 107,-18 177,-22 181,-10 275,-17 350,-26 147,-18 341,-50 450,-74 96,-21 207,-41 303,-52 36,-5 50,-20 25,-27 -7,-2 -71,-22 -143,-44 -71,-23 -148,-45 -170,-51 -22,-5 -74,-18 -115,-29 -41,-11 -100,-26 -130,-32 -73,-16 -207,-64 -305,-110 -98,-46 -132,-61 -212,-93 -35,-14 -76,-35 -92,-46 -16,-12 -34,-21 -41,-21 -6,0 -46,-17 -88,-37 -42,-20 -101,-46 -130,-58 -33,-12 -60,-30 -69,-47 -15,-24 -15,-28 0,-51 8,-13 35,-34 59,-47 24,-12 57,-36 73,-54 34,-35 124,-113 172,-148 63,-46 149,-113 186,-146 21,-18 48,-37 60,-42 12,-6 42,-26 67,-45 77,-59 125,-91 158,-106 18,-8 34,-21 37,-30 3,-8 20,-23 38,-33 61,-32 77,-43 120,-79 86,-75 132,-109 169,-128 21,-11 45,-30 54,-44 9,-14 31,-34 50,-46 31,-19 46,-49 25,-49 -19,0 -288,59 -315,70 -16,6 -49,15 -75,20 -25,6 -86,21 -136,35 -182,49 -307,64 -655,80 -184,9 -382,19 -440,22 -97,5 -107,3 -132,-17 -41,-32 -39,-83 5,-111 32,-22 142,-152 168,-199 8,-14 30,-49 49,-79 19,-29 42,-64 50,-77 8,-12 33,-47 56,-76 73,-95 188,-248 212,-281 12,-18 29,-36 36,-42 7,-5 23,-26 37,-45 46,-67 122,-160 131,-160 4,0 8,-5 8,-10 0,-13 80,-101 178,-195 39,-38 72,-75 72,-82 0,-6 14,-23 31,-38 17,-14 29,-28 26,-31 -6,-6 -165,49 -297,103 -162,66 -296,114 -380,137 -30,8 -86,25 -125,39 -38,13 -117,39 -175,57 -58,19 -112,37 -120,41 -8,4 -35,14 -60,22 -25,9 -83,29 -130,47 -47,17 -107,39 -135,48 -27,8 -68,28 -90,42 -76,50 -99,55 -143,30 -22,-13 -45,-33 -52,-45 -15,-28 -4,-84 17,-92 50,-19 117,-116 149,-215 12,-37 33,-86 46,-110 14,-24 44,-95 67,-158 24,-63 47,-124 51,-135 38,-85 84,-264 97,-378 6,-56 -3,-59 -56,-20 -52,38 -62,49 -277,292 -21,25 -63,69 -92,99 -29,30 -81,88 -115,129 -34,41 -105,118 -157,172 -80,81 -219,264 -220,289 0,4 -9,18 -20,32 -11,14 -20,39 -20,56 0,39 -33,70 -82,79 -33,6 -41,3 -71,-26 -48,-48 -50,-69 -16,-137 50,-98 55,-220 20,-453 -5,-35 -13,-127 -16,-204 -4,-77 -14,-178 -22,-225 -8,-47 -19,-114 -24,-150 -5,-36 -12,-82 -15,-103 -4,-20 -10,-40 -15,-43 -5,-3 -9,-21 -9,-41 0,-46 -17,-155 -35,-218 -8,-27 -17,-69 -21,-93 -9,-58 -19,-47 -83,98 -29,63 -61,132 -71,153 -11,22 -20,44 -20,49 0,6 -15,45 -34,87 -19,42 -58,132 -86,201 -29,69 -61,141 -70,160 -10,19 -26,53 -35,75 -9,22 -21,48 -26,58 -6,10 -30,66 -55,125 -24,59 -51,121 -58,137 -8,17 -28,68 -46,115 -17,47 -49,121 -71,165 -21,44 -39,85 -39,92 0,23 -50,71 -80,77 -23,4 -41,-1 -71,-20 -51,-32 -56,-46 -36,-108 28,-86 38,-153 27,-181 -6,-16 -6,-34 1,-52 5,-14 7,-34 3,-42 -3,-9 -8,-32 -10,-51 -2,-19 -8,-60 -14,-90 -5,-30 -12,-109 -15,-175 -3,-66 -10,-156 -15,-200 -5,-44 -11,-98 -13,-120 -10,-99 -28,-223 -37,-260 -9,-39 -30,-176 -36,-245 -8,-80 -78,-360 -107,-429 l -14,-33 -19,20 c -11,11 -36,54 -56,94 -38,75 -158,336 -158,343 0,2 -13,32 -29,67 -40,88 -75,164 -101,223 -12,28 -27,59 -32,70 -6,11 -37,70 -68,130 -31,61 -66,127 -78,148 -12,20 -31,54 -43,74 -12,21 -50,80 -86,133 -200,294 -291,391 -367,390 -30,-1 -98,-51 -114,-83 -10,-20 -14,-92 -15,-260 -2,-195 -6,-250 -25,-342 -12,-60 -32,-155 -43,-210 -32,-159 -37,-181 -79,-358 -23,-92 -54,-201 -70,-241 -17,-41 -30,-79 -30,-85 0,-6 -18,-65 -40,-131 -22,-66 -40,-124 -40,-129 0,-5 -9,-31 -21,-58 l -21,-48 -14,27 c -16,30 -87,284 -104,373 -7,33 -19,92 -27,130 -9,39 -20,93 -24,120 -17,106 -29,172 -39,220 -22,102 -52,278 -79,465 -39,264 -74,416 -102,446 -61,65 -170,49 -287,-43 -19,-15 -113,-153 -148,-218 -10,-19 -25,-45 -76,-132 -12,-21 -42,-78 -67,-128 -25,-49 -70,-125 -98,-167 -29,-42 -53,-81 -53,-86 0,-5 -10,-24 -23,-43 -13,-19 -45,-77 -72,-129 -28,-52 -52,-97 -55,-100 -9,-9 -56,-95 -137,-249 -18,-36 -38,-69 -43,-75 -5,-6 -30,-53 -56,-104 -25,-51 -50,-94 -54,-97 -4,-3 -38,-56 -76,-119 -98,-164 -100,-159 -115,219 -5,138 -12,322 -15,410 -10,245 21,624 56,697 39,80 18,128 -55,128 -33,0 -52,-8 -89,-35 -25,-20 -46,-39 -46,-43 -1,-4 -31,-40 -69,-80 -37,-40 -94,-116 -127,-169 -32,-53 -77,-120 -99,-149 -76,-101 -160,-218 -167,-233 -4,-9 -41,-59 -83,-111 -41,-52 -93,-122 -115,-155 -60,-92 -84,-122 -183,-230 -139,-152 -603,-615 -616,-615 -6,0 -12,21 -13,53 -3,111 3,295 11,362 5,39 15,113 21,165 6,52 15,113 20,135 5,22 11,63 15,91 3,29 19,105 36,170 17,66 37,151 44,189 7,39 23,89 36,112 22,42 22,43 4,83 -20,44 -45,56 -98,46 -38,-7 -236,-106 -322,-161 -119,-75 -170,-109 -175,-115 -3,-4 -43,-26 -90,-49 -47,-24 -89,-46 -95,-51 -5,-4 -73,-40 -150,-80 -77,-40 -146,-78 -153,-83 -20,-15 -28,1 -12,26 7,12 21,36 29,52 9,17 38,64 65,105 45,69 177,274 201,312 14,23 192,288 213,317 35,49 115,148 160,197 26,27 61,66 78,85 36,41 137,128 173,150 43,26 54,45 47,83 -7,35 -31,57 -76,71 -14,4 -56,22 -95,40 -89,41 -174,70 -250,85 -33,7 -85,20 -115,30 -30,9 -80,23 -110,29 -48,10 -107,25 -250,61 -112,29 -174,44 -250,60 -47,10 -117,25 -157,34 -39,10 -117,23 -173,29 -55,7 -101,17 -102,22 0,6 26,20 58,33 33,13 95,41 139,61 44,21 90,41 103,45 13,4 56,27 95,50 163,95 297,151 497,207 36,9 97,27 136,38 39,12 78,21 87,21 9,0 36,9 59,19 24,11 63,25 88,31 138,38 170,52 186,81 8,17 12,39 9,50 -9,27 -56,69 -78,69 -16,0 -55,18 -67,30 -3,3 -23,16 -45,29 -22,13 -76,50 -120,83 -103,76 -331,224 -426,276 -41,22 -103,56 -139,76 -36,20 -123,65 -195,100 -233,114 -249,123 -360,185 -113,65 -282,141 -310,141 -28,0 -6,19 28,24 305,45 594,97 687,125 96,28 126,36 270,69 183,43 235,51 303,45 67,-5 69,-5 103,28 36,35 41,57 22,92 -16,30 -26,39 -77,68 -35,19 -57,45 -112,134 -64,103 -127,185 -209,273 -19,21 -69,75 -110,121 -91,101 -185,192 -265,258 -65,53 -199,145 -227,156 -22,8 -23,26 -4,33 15,6 273,-15 501,-41 72,-8 175,-20 230,-25 103,-11 140,-19 235,-51 99,-33 294,-115 348,-148 29,-17 55,-31 58,-31 16,0 45,-52 55,-100 17,-79 40,-100 107,-100 44,0 55,3 59,19 3,11 23,26 49,36 50,19 69,43 79,97 6,33 3,41 -21,66 -24,23 -39,29 -81,30 -31,2 -74,13 -108,28 -60,28 -68,40 -125,184 -12,30 -27,69 -34,85 -7,17 -28,68 -45,115 -18,47 -37,93 -42,102 -18,36 -58,213 -50,221 12,12 73,-8 141,-47 30,-18 87,-47 125,-65 39,-18 81,-39 95,-46 47,-26 285,-143 355,-176 39,-18 106,-49 150,-70 44,-21 98,-43 120,-50 22,-7 55,-18 73,-26 94,-40 282,-59 310,-31 18,18 15,80 -6,130 -10,24 -24,70 -31,103 -7,33 -20,80 -28,105 -15,43 -19,58 -43,148 -15,57 -37,261 -34,317 2,28 8,133 15,235 6,101 14,191 18,199 6,10 18,1 45,-34 20,-26 36,-52 36,-56 0,-5 6,-9 14,-9 8,0 21,-17 29,-37 9,-21 45,-69 80,-106 35,-38 71,-84 80,-103 10,-19 24,-37 32,-40 8,-4 15,-11 15,-18 0,-6 23,-34 50,-61 28,-27 50,-56 50,-65 0,-9 13,-29 30,-45 17,-16 30,-34 30,-41 0,-7 15,-24 33,-39 17,-15 37,-36 42,-45 13,-24 133,-148 176,-183 19,-15 56,-45 83,-68 42,-35 54,-40 90,-37 37,3 43,7 60,41 18,39 18,39 -3,82 -21,43 -44,117 -63,205 -15,70 -11,353 6,445 33,176 94,385 149,502 23,50 31,61 80,114 l 27,30 29,-23 c 16,-13 39,-39 52,-58 12,-19 39,-55 58,-80 36,-45 77,-109 135,-209 17,-29 41,-70 53,-90 12,-20 29,-49 39,-66 9,-16 33,-55 54,-85 20,-30 39,-59 41,-65 12,-29 92,-145 100,-145 5,0 14,-11 19,-25 5,-14 18,-29 27,-32 10,-4 39,-28 65,-54 50,-50 94,-67 143,-55 34,9 45,41 56,156 4,52 13,149 18,215 19,219 42,345 87,470 113,321 213,515 265,515 14,0 27,-18 49,-65 17,-36 30,-71 30,-78 0,-6 7,-21 15,-31 8,-11 15,-29 15,-41 0,-11 6,-30 14,-40 8,-11 24,-63 36,-115 12,-52 30,-117 40,-145 9,-27 23,-93 30,-145 7,-52 16,-105 21,-118 5,-13 9,-40 9,-61 0,-20 6,-43 13,-50 7,-7 12,-40 13,-79 0,-37 6,-107 13,-157 7,-49 16,-119 20,-155 16,-130 44,-180 100,-180 37,0 64,21 88,72 30,62 29,57 93,303 45,173 107,349 153,435 23,41 55,102 71,135 17,33 33,62 36,65 3,3 17,21 30,40 14,19 32,42 41,50 8,8 47,53 86,100 80,96 187,201 235,230 41,25 77,26 84,3 3,-10 12,-31 19,-48 17,-39 41,-118 38,-127 -2,-4 6,-40 16,-80 10,-40 22,-106 26,-146 4,-39 11,-75 16,-78 5,-3 9,-44 9,-92 0,-48 7,-115 15,-149 8,-34 14,-84 14,-110 0,-27 4,-72 10,-102 6,-29 11,-75 11,-102 0,-66 6,-77 52,-90 49,-13 83,-6 91,18 4,10 18,37 32,61 14,23 25,47 25,52 0,5 14,39 30,76 17,37 37,90 45,118 21,81 109,271 192,414 29,51 53,96 53,100 0,4 17,30 38,57 21,28 52,75 70,106 17,31 49,76 70,100 20,24 62,74 92,112 29,37 57,67 60,67 4,0 40,30 81,66 75,66 131,103 159,104 9,0 21,-14 28,-33 z"
       id="path8"
       inkscape:connector-curvature="0"
       style="fill:#2d3ecc;fill-opacity:1;stroke:#1d296c;stroke-width:11.19999981;stroke-miterlimit:4;stroke-dasharray:none;stroke-opacity:1" />
    <path
       d="m 9250,7164 c -69,-35 -134,-67 -145,-70 -11,-4 -31,-14 -45,-24 -95,-64 -171,-109 -203,-121 -21,-7 -46,-21 -56,-30 -10,-10 -41,-25 -70,-36 l -51,-18 -23,27 c -36,42 -60,50 -101,33 -21,-9 -36,-22 -36,-32 0,-9 11,-59 25,-112 14,-53 32,-145 40,-206 8,-60 19,-130 24,-154 5,-24 7,-79 4,-121 -4,-52 -2,-84 7,-101 9,-17 14,-88 16,-244 1,-121 5,-299 9,-395 4,-96 8,-211 9,-255 1,-44 8,-113 14,-154 l 12,-73 -41,-37 c -47,-42 -46,-59 6,-87 32,-17 36,-17 70,-1 20,9 49,17 66,17 19,0 32,6 36,18 9,26 45,62 62,62 20,0 118,60 205,126 43,33 88,58 119,66 83,21 113,78 77,148 -14,27 -19,51 -15,67 6,27 21,125 35,243 15,117 18,136 56,325 9,44 20,109 25,145 4,36 13,90 19,120 27,140 31,199 45,655 2,77 7,163 10,190 6,42 4,53 -11,66 -39,34 -64,29 -194,-37 z m 71,-111 c 8,-20 8,-82 1,-208 -5,-99 -8,-211 -7,-250 1,-38 -4,-95 -11,-125 -7,-30 -15,-86 -18,-125 -2,-38 -10,-93 -16,-122 -6,-28 -10,-57 -9,-65 2,-7 -3,-31 -9,-53 -7,-22 -12,-55 -12,-73 0,-18 -7,-47 -16,-63 -8,-17 -14,-43 -13,-57 1,-15 -1,-38 -4,-52 -3,-14 -13,-65 -22,-115 -9,-49 -20,-109 -25,-133 -6,-23 -10,-68 -10,-100 0,-57 -2,-61 -62,-151 -10,-14 -18,-34 -18,-43 0,-28 -182,-163 -247,-182 -19,-6 -23,-2 -32,31 -18,70 -31,255 -41,593 -12,411 -17,504 -35,645 -30,236 -35,281 -35,301 0,17 26,34 133,89 72,37 157,85 187,106 59,41 290,177 303,178 4,1 12,-11 18,-26 z"
       id="path10"
       inkscape:connector-curvature="0"
       style="fill:#2d3ecc;fill-opacity:1;stroke:#1d296c;stroke-width:11.19999981;stroke-miterlimit:4;stroke-dasharray:none;stroke-opacity:1" />
    <path
       d="m 7915,6811 c -60,-20 -139,-50 -175,-66 -36,-15 -78,-33 -95,-41 -16,-7 -43,-16 -60,-20 -16,-4 -60,-22 -97,-41 -73,-36 -88,-59 -71,-110 7,-20 3,-47 -15,-108 -13,-44 -31,-118 -39,-165 -8,-47 -18,-101 -23,-120 -5,-19 -14,-69 -20,-110 -13,-84 -45,-219 -54,-228 -17,-16 -46,61 -118,318 -41,147 -72,238 -110,320 -11,25 -24,54 -28,65 -4,11 -15,36 -23,55 -8,19 -18,45 -21,57 -4,12 -20,31 -35,42 l -28,20 -98,-34 c -96,-34 -175,-71 -225,-105 -14,-9 -41,-22 -60,-29 -19,-6 -44,-21 -57,-33 -24,-23 -31,-64 -11,-70 12,-4 1,-122 -22,-233 -5,-27 -12,-70 -15,-95 -9,-76 -15,-78 -81,-29 -105,78 -126,91 -209,124 -104,43 -139,49 -275,48 -124,0 -143,-3 -227,-32 -147,-49 -340,-176 -448,-292 -27,-30 -71,-71 -97,-93 -32,-25 -48,-46 -48,-61 0,-12 -7,-28 -15,-35 -12,-10 -21,-8 -47,12 -55,40 -172,95 -285,135 -96,33 -121,37 -232,41 -137,5 -207,-11 -312,-68 -86,-47 -157.9563,-114.3216 -153.9563,-152.3216 3,-29 -10.7825,-67.8085 20.2175,-75.8085 40,-9 139.7388,79.1301 219.7388,138.1301 65,47 136,65 245,63 82,-1 110,-7 208,-41 62,-22 123,-47 137,-56 13,-9 27,-16 30,-16 9,0 95,-59 125,-85 102,-91 169,-160 213,-220 28,-38 67,-92 87,-120 44,-60 100,-166 100,-189 0,-9 4,-24 9,-34 19,-38 29,-82 20,-88 -5,-3 -7,-10 -3,-15 14,-23 35,-226 36,-354 1,-138 -23,-370 -42,-406 -6,-10 -22,-50 -36,-91 -22,-62 -78,-182 -137,-291 -34,-64 -213,-199 -299,-225 -81,-26 -121,-31 -243,-32 -190,-3 -188,-3 -230,30 -26,21 -55.6445,46.3781 -80.6406,45.9375 -56.4521,-0.995 -123.3699,-38.0406 -71.625,-80.5938 C 4325.9464,3508.0314 4322,3487 4432,3451 c 75,-24 174,-27 291,-11 193,28 223,33 232,40 10,8 65,39 139,78 57,30 197,172 226,229 14,26 30,54 37,61 7,7 13,18 13,23 0,6 11,35 25,65 14,30 25,62 25,70 0,46 158,-53 275,-172 97,-98 143,-124 222,-124 126,0 332,35 357,60 13,13 56,13 56,-1 0,-28 66,-37 286,-37 l 222,0 28,29 c 26,28 27,30 16,81 -8,37 -8,74 -1,123 5,39 14,111 19,160 5,50 14,116 19,148 6,32 8,64 4,72 -3,10 1,15 11,15 11,0 25,-19 40,-52 57,-133 142,-466 137,-542 -4,-64 59,-102 118,-71 17,8 31,22 31,31 0,8 8,17 18,20 9,3 26,10 37,14 78,32 243,60 308,52 53,-6 97,34 97,89 0,20 12,88 26,150 45,193 51,229 83,514 12,99 24,191 27,205 5,23 7,24 19,7 13,-18 25,-85 30,-167 2,-25 6,-56 10,-70 4,-14 13,-83 20,-155 15,-142 23,-183 66,-323 21,-69 27,-104 23,-136 -6,-38 -2,-49 20,-79 18,-23 38,-37 60,-41 47,-9 108,17 130,56 11,17 69,81 130,142 110,110 136,142 136,170 0,8 12,17 26,20 14,4 37,18 50,31 21,21 22,28 13,52 -6,15 -16,35 -24,43 -29,32 -61,133 -81,255 -3,17 -14,82 -24,145 -11,63 -27,169 -36,235 -17,129 -39,270 -54,350 -21,113 -56,346 -70,465 -5,41 -14,98 -20,125 -6,28 -16,82 -21,120 -17,127 -55,307 -96,455 -8,30 -19,89 -25,130 -5,43 -15,80 -24,86 -9,7 -14,30 -14,63 0,42 -5,57 -25,76 -13,14 -30,25 -37,25 -7,-1 -62,-18 -123,-39 z m 59,-118 c -15,-34 -7,-74 23,-116 43,-61 116,-316 130,-452 3,-30 9,-55 13,-55 8,0 20,-60 26,-135 2,-27 13,-93 24,-145 10,-52 19,-104 19,-115 0,-11 2,-36 5,-55 4,-19 13,-82 21,-140 9,-58 20,-127 26,-155 6,-27 10,-65 10,-84 -1,-18 4,-52 10,-74 6,-23 12,-55 14,-72 17,-158 27,-240 32,-249 4,-6 6,-26 5,-44 -2,-19 4,-57 12,-86 8,-28 17,-82 21,-121 3,-38 19,-119 35,-180 16,-60 31,-129 35,-152 4,-24 11,-45 16,-49 20,-12 8,-34 -20,-34 -21,0 -51,-20 -119,-79 -86,-75 -137,-101 -162,-86 -15,9 -27,44 -51,140 -11,44 -24,96 -29,115 -5,19 -18,109 -30,200 -24,187 -42,295 -65,395 -8,39 -19,103 -24,144 -11,83 -28,108 -76,112 -63,5 -81,-1 -104,-32 -28,-38 -30,-73 -6,-99 20,-22 19,-34 -10,-225 -17,-115 -32,-232 -41,-325 -3,-30 -8,-62 -11,-70 -3,-8 -9,-35 -14,-60 -12,-72 -26,-127 -61,-250 -28,-96 -37,-117 -58,-126 -14,-7 -85,-15 -158,-18 -88,-4 -143,-11 -162,-21 -35,-18 -40,-12 -56,65 -7,30 -17,82 -24,115 -7,33 -16,69 -21,80 -4,11 -19,56 -33,100 -13,44 -37,107 -52,140 -14,33 -27,70 -28,82 0,11 -13,35 -29,52 -32,37 -75,41 -102,11 -10,-11 -24,-20 -31,-20 -8,0 -25,-10 -39,-22 -26,-23 -31,-52 -17,-103 11,-38 -18,-279 -59,-496 -11,-55 -12,-57 -48,-62 -44,-7 -176,7 -213,22 -30,11 -38,31 -13,31 35,0 155,147 155,191 0,8 13,64 29,124 28,103 36,140 75,335 36,182 40,227 38,505 -1,293 -7,346 -58,560 -18,73 -86,184 -159,258 l -74,76 5,53 c 6,64 21,131 39,178 8,19 22,67 31,105 28,116 46,148 104,185 28,18 80,43 115,56 77,26 75,28 133,-91 61,-124 92,-202 92,-233 0,-15 9,-45 20,-67 11,-22 20,-51 20,-64 0,-14 9,-57 21,-96 11,-38 24,-83 29,-100 7,-26 14,-57 36,-172 2,-13 11,-23 19,-23 8,0 32,-16 54,-35 31,-28 47,-35 80,-35 36,0 44,4 61,32 14,23 18,43 14,68 -5,31 9,107 46,250 7,30 41,204 57,295 15,88 56,202 82,226 15,14 40,42 56,63 31,40 163,113 281,154 77,27 99,28 88,5 z M 5975,6115 c 22,-4 49,-10 60,-14 36,-13 178,-86 189,-96 6,-6 38,-31 71,-55 33,-25 80,-64 105,-87 25,-24 50,-43 56,-43 18,0 91,-97 122,-163 65,-138 87,-296 87,-637 0,-234 -4,-293 -34,-505 -14,-100 -66,-300 -96,-370 -7,-16 -23,-54 -35,-83 -14,-32 -39,-67 -64,-88 -39,-33 -191,-114 -215,-114 -6,0 -19,-4 -29,-9 -36,-20 -115,-31 -219,-31 l -107,0 -64,67 c -36,36 -70,81 -78,98 -16,39 -46,60 -97,68 -26,4 -46,15 -60,34 -12,15 -34,41 -50,57 -29,29 -29,30 -18,95 6,36 16,89 22,116 27,128 20,355 -17,575 -27,165 -39,207 -77,275 -6,11 -19,36 -30,55 -10,19 -24,44 -30,55 -14,25 -137,171 -201,239 -45,49 -45,50 -26,68 10,10 22,35 26,55 3,21 13,49 22,63 22,36 94,123 113,137 9,7 49,40 89,73 85,71 162,114 275,152 71,24 91,27 175,23 52,-2 113,-7 135,-10 z"
       id="path12"
       inkscape:connector-curvature="0"
       style="fill:#2d3ecc;fill-opacity:1;stroke:#1d296c;stroke-width:11.19999981;stroke-miterlimit:4;stroke-dasharray:none;stroke-opacity:1"
       sodipodi:nodetypes="cccccccssccccssccccccccccccccccscccccccccccscccsscccccccccsscccccsssscsssscccccccscccscccscccccsccccccsscsccccccccccccsccccccsccscccccccccccccscsssccccccccsccccccsccccccscccccssccccccccccccssscccscscccccccccccccscsccccscscccccsccccccccccccccc" />
    <path
       d="m 5905,5320 c -22,-11 -57,-26 -77,-32 -61,-18 -73,-63 -73,-282 l 0,-178 44,-39 c 35,-32 51,-39 84,-39 52,0 94,28 132,90 16,26 42,54 57,63 59,34 64,177 10,290 -32,65 -102,147 -126,147 -7,0 -30,-9 -51,-20 z m 58,-173 c 11,-21 21,-64 24,-97 5,-55 3,-62 -23,-94 -16,-18 -37,-44 -46,-56 -35,-47 -58,0 -58,120 0,96 32,175 69,168 9,-2 24,-20 34,-41 z"
       id="path14"
       inkscape:connector-curvature="0"
       style="fill:#2d3ecc;fill-opacity:1;stroke:#1d296c;stroke-width:11.19999981;stroke-miterlimit:4;stroke-dasharray:none;stroke-opacity:1" />
    <path
       d="m 3677,5704 c -2,-2 -50,-6 -108,-8 -123,-6 -210,-16 -224,-26 -5,-4 -44,-13 -85,-20 -71,-12 -174,-45 -194,-62 -6,-4 -20,-8 -32,-8 -13,0 -26,-4 -29,-10 -3,-5 -14,-10 -24,-10 -10,0 -24,-7 -31,-15 -7,-8 -21,-15 -32,-15 -10,0 -21,-7 -25,-16 -3,-8 -12,-13 -19,-10 -21,8 -196,-67 -270,-116 -23,-16 -45,-28 -50,-28 -4,0 -32,-19 -63,-42 -30,-23 -73,-48 -96,-56 -50,-17 -95,-59 -95,-88 0,-13 8,-38 19,-56 12,-22 22,-71 30,-147 25.0273,-205.6863 6.2966,-224.4922 45,-466 10,-99 19,-196 20,-215 7,-90 28,-266 33,-273 3,-5 7,-33 9,-64 2,-31 8,-72 14,-92 5,-20 10,-55 10,-78 42.4179,-322.7281 15.9768,-195.1098 25,-351 4,-32 8,-106 9,-167 5,-157 16,-246 36,-275 11,-15 19,-51 22,-91 3,-52 10,-76 31,-106 22,-32 28,-52 29,-107 2,-57 6,-70 28,-91 52,-50 130,-31 130,32 0,27 0,27 36,8 37,-19 68,-19 123,1 49,17 76,41 105,95 18,35 54,63 135,106 24,13 76,49 117,79 40,30 106,77 146,103 40,27 100,75 133,108 33,33 85,76 116,96 31,20 76,55 100,79 24,24 69,63 99,87 30,25 99,89 152,143 91,91 118,112 118,89 0,-5 15,-18 33,-28 28,-17 36,-18 64,-6 57,23 69,74 28,113 -28,27 -32,45 -10,54 8,3 15,9 15,14 0,5 27,37 60,72 33,35 60,68 60,73 0,5 9,16 19,25 28,24 117,192 125,238 10,50 10,164 1,195 -11,37 -74,97 -140,134 -80,45 -213,74 -327,71 l -86,-2 -13,80 c -6,45 -13,110 -14,146 -1,36 -5,78 -10,94 -4,15 -4,31 1,35 33,24 184,288 184,322 0,10 5,21 10,24 6,3 10,34 10,67 0,47 -6,71 -24,102 -67,111 -219,209 -371,240 -16,3 -47,10 -67,15 -20,5 -39,7 -41,5 z m 79,-105 c 97,-18 200,-73 271,-145 39,-39 49,-73 34,-115 -6,-18 -11,-46 -11,-64 0,-19 -8,-39 -20,-50 -11,-10 -20,-23 -20,-29 0,-6 -9,-22 -20,-36 -11,-14 -20,-33 -20,-43 0,-18 -2,-21 -45,-70 -26,-29 -19.8605,-42.1793 -26.2891,-58.9922 -6.9116,-18.0762 -3.4592,-20.2002 -9.2578,-28.2969 -26.3804,-36.8351 -19.0086,-51.9494 -46.4531,-55.7109 -70.0125,-77.3657 -60.3994,-74.7281 -128,-140 -70.2545,-91.4599 -26.3191,-14.8906 -107,-94 -13,-17 -35,-46 -50,-64 -51.1575,-89.1116 -56.039,-40.0042 -118,-113 -25,-22 -60,-49 -77,-62 -41,-28 -41,-50 -4,-90 37,-39 74,-40 148,-5 30,14 105,41 166,60 62,20 121,39 132,44 144,62 425,66 540,7 97,-49 120,-94 110,-218 -5,-64 -11,-89 -20,-89 -13,0 -45,-52 -45,-74 0,-18 -137,-196 -201,-261 -32,-33 -59,-65 -59,-71 0,-5 -14,-15 -31,-21 -17,-7 -33,-21 -36,-32 -3,-12 -8,-21 -12,-21 -11,-1 -81,-68 -81,-78 0,-5 -7,-15 -15,-22 -64.0801,-49.7288 -21.0737,5.1823 -88,-64 -24,-23 -50,-47 -58,-52 -8,-5 -25,-22 -39,-37 -70.7587,-81.4803 -57.8897,-44.2151 -139,-119 -29,-27 -56,-48 -61,-48 -5,0 -19,-13 -32,-30 -12,-16 -27,-30 -32,-30 -9,0 -98,-62 -146,-103 -42,-35 -244,-157 -259,-157 -10,0 -41,-16 -91,-48 -21,-13 -51,-22 -76,-22 -54,0 -133,-52 -148,-97 -15,-43 -22,-48 -35,-25 -13,24 -41,183 -48,267 -4,61 -14,89 -44,135 -17,27 -27,125 -34,355 -4,125 -21,318 -31,360 -3,11 -10,67 -15,125 -10,99 -22,199 -33,280 -3,19 -6,71 -7,115 -2,44 -6,85 -10,90 -6,9 -12,59 -25,200 -2,22 -8,94 -14,160 -6,66 -16,161 -22,212 l -10,92 41,47 c 49,56 175,146 246,177 28,12 74,34 104,50 30,16 79,37 110,47 31,10 94,35 140,55 95,40 295,94 356,96 22,1 51,5 65,9 38,12 169,11 236,-1 z m 126,-883 c 4,-26 18,-65 32,-87 34,-51 34,-69 -2,-69 -15,0 -66,-11 -113,-25 -46,-13 -91,-25 -99,-25 -8,0 -28,-7 -44,-15 -15,-8 -37,-15 -48,-15 -17,0 -16,5 13,45 18,25 44,52 58,61 28,18 133,125 158,162 23,33 37,22 45,-32 z"
       id="path16"
       inkscape:connector-curvature="0"
       style="fill:#2d3ecc;fill-opacity:1;stroke:#1d296c;stroke-width:11.19999981;stroke-miterlimit:4;stroke-dasharray:none;stroke-opacity:1"
       sodipodi:nodetypes="sccccscssscccsccscccccscccccccccsccccccsssccsccccssscccccccsccscsccsscccscssscssccccccccccccsscscccsccsccscscscscccccccccccsccccssccccccscscscscc" />
    <path
       d="m 3175,5146 c -22,-7 -58,-20 -80,-30 -22,-10 -55,-24 -72,-32 -39,-17 -42,-40 -13,-99 10,-22 28,-83 40,-135 30,-138 41,-169 67,-190 36,-28 84,-36 99,-16 6,9 16,16 20,15 5,-2 21,3 35,10 29,14 92,130 130,243 20,58 22,71 11,101 -6,18 -12,41 -12,50 0,23 -61,68 -112,84 -50,15 -59,15 -113,-1 z m 104,-115 c 25,-16 9,-128 -29,-205 -18,-36 -36,-66 -41,-66 -16,0 -27,33 -54,160 -16,72 -13,77 50,106 35,16 55,17 74,5 z"
       id="path18"
       inkscape:connector-curvature="0"
       style="fill:#2d3ecc;fill-opacity:1;stroke:#1d296c;stroke-width:11.19999981;stroke-miterlimit:4;stroke-dasharray:none;stroke-opacity:1" />
    <path
       d="m 3270,3979 c -25,-5 -63,-7 -86,-4 -79,11 -121,-59 -75,-124 11,-15 24,-60 31,-106 15,-104 33,-164 66,-225 22,-41 35,-52 67,-62 35,-11 41,-10 53,7 8,10 14,27 14,37 0,15 4,16 27,7 48,-18 76,-3 121,66 53,80 72,140 72,230 0,82 -18,120 -75,155 -43,26 -142,35 -215,19 z m 153,-109 c 32,-30 7,-190 -41,-259 -13,-20 -28,-46 -33,-58 -5,-13 -12,-23 -16,-23 -16,1 -54,108 -70,198 l -17,94 25,19 c 51,40 126,54 152,29 z"
       id="path20"
       inkscape:connector-curvature="0"
       style="fill:#2d3ecc;fill-opacity:1;stroke:#1d296c;stroke-width:11.19999981;stroke-miterlimit:4;stroke-dasharray:none;stroke-opacity:1" />
    <path
       d="m 4530,5098 c -11,-12 -20,-27 -20,-33 0,-6 -5,-49 -11,-95 -11,-85 2,-213 23,-226 4,-3 8,-15 8,-27 1,-12 11,-42 24,-67 13,-25 35,-68 48,-96 26,-53 69,-91 125,-113 46,-18 121,1 159,40 41,43 54,91 54,208 0,99 -2,106 -36,177 -87,175 -302,309 -374,232 z m 196,-170 c 65,-60 95,-124 101,-219 6,-88 -5,-129 -43,-154 -30,-19 -52,-9 -91,42 -36,46 -50,89 -64,191 -12,79 -11,85 11,132 13,28 27,50 32,50 5,0 29,-19 54,-42 z"
       id="path24"
       inkscape:connector-curvature="0"
       style="fill:#2d3ecc;fill-opacity:1;stroke:#1d296c;stroke-width:11.19999981;stroke-miterlimit:4;stroke-dasharray:none;stroke-opacity:1" />
    <path
       d="m 9215,4875 c -22,-8 -41,-15 -42,-15 -2,0 -3,-9 -3,-20 0,-11 8,-24 18,-27 41,-16 80,-84 92,-161 7,-46 6,-68 -9,-111 -17,-51 -94,-159 -115,-160 -6,-1 -19,-9 -30,-20 -36,-32 -111,-54 -166,-49 -28,3 -54,8 -58,12 -13,13 -5,111 12,143 8,17 23,53 32,80 23,70 38,83 96,83 39,0 54,5 73,25 46,46 116.2969,198.6563 57.2969,189.6563 C 9027.2969,4821.6563 8875,4674 8811,4480 c -39,-120 -42,-128 -43,-162 -2,-67 48,-107 155,-123 107,-16 255,54 343,163 21,26 47,56 57,67 36,38 77,161 77,228 0,50 -43,157 -80,197 -41,44 -47,46 -105,25 z"
       id="path26"
       inkscape:connector-curvature="0"
       style="fill:#2d3ecc;fill-opacity:1;stroke:#1d296c;stroke-width:11.19999981;stroke-miterlimit:4;stroke-dasharray:none;stroke-opacity:1"
       sodipodi:nodetypes="cssccccccsccsccccsccscc" />
  </g>
  <path
     style="opacity:0.78800001;fill:#00ffff;fill-opacity:1;fill-rule:evenodd;stroke:#1d296c;stroke-width:1.48750007;stroke-miterlimit:4;stroke-dasharray:none;stroke-opacity:1"
     d=""
     id="path4156"
     inkscape:connector-curvature="0" />
  <path
     style="opacity:0.78800001;fill:#e72922;fill-opacity:1;fill-rule:evenodd;stroke:none;stroke-width:1.85899997;stroke-miterlimit:4;stroke-dasharray:none;stroke-opacity:1"
     d="m 863.10909,361.82749 c -0.93051,-1.1212 -2.02712,-7.16866 -2.75008,-15.16593 -0.99503,-11.00663 -1.65669,-25.25195 -2.54744,-54.84497 -0.77504,-25.74912 -1.36668,-38.10718 -2.27049,-47.42587 -0.21041,-2.16938 -1.04852,-9.26917 -1.86248,-15.77732 -1.54455,-12.34982 -2.33215,-19.03814 -2.54672,-21.62675 -0.10521,-1.26938 -0.0718,-1.6207 0.19679,-2.06607 0.76572,-1.26996 3.2848,-2.80323 12.7753,-7.77584 9.27005,-4.85711 15.03019,-8.13089 19.15817,-10.88855 6.11481,-4.08495 24.43553,-14.96112 28.51559,-16.9284 l 0.90529,-0.4365 0.36037,0.46641 c 0.68325,0.88424 1.13436,2.46805 1.33369,4.68242 0.21914,2.43442 0.132,6.24051 -0.40877,17.85345 -0.44156,9.48258 -0.74804,19.7347 -0.74804,25.02306 0,5.64175 -0.21461,7.72591 -1.49453,14.51415 -0.50935,2.70141 -1.06452,6.90342 -1.31523,9.95473 -0.3422,4.16478 -0.73646,7.14623 -1.60199,12.11473 -0.46281,2.65672 -0.87249,5.66777 -0.91999,6.76171 -0.0626,1.44002 -0.26887,2.6817 -0.76472,4.60172 -0.84124,3.25746 -1.16573,5.09608 -1.32595,7.51301 -0.15607,2.35441 -0.66154,4.5888 -1.41105,6.23754 -1.0333,2.27299 -1.32799,3.65124 -1.4976,7.00414 -0.11511,2.27564 -0.33304,3.99745 -0.82017,6.47997 -0.99137,5.0523 -4.45422,23.44374 -4.73889,25.16858 -0.1364,0.82644 -0.33881,3.48886 -0.44982,5.9165 -0.11101,2.42764 -0.27844,5.00381 -0.37208,5.72482 -0.23042,1.77432 -1.25096,3.77256 -4.31044,8.44002 -2.36027,3.60075 -3.12629,5.08934 -3.34277,6.49594 -0.0557,0.36156 -0.41785,1.08376 -0.80489,1.6049 -2.28675,3.07904 -12.55054,10.82449 -19.06273,14.38546 -3.58501,1.96034 -5.39585,2.57428 -5.87833,1.99294 z"
     id="path4166"
     inkscape:connector-curvature="0" />
  <path
     style="opacity:0.78800001;fill:#e72922;fill-opacity:1;fill-rule:evenodd;stroke:none;stroke-width:1.85899997;stroke-miterlimit:4;stroke-dasharray:none;stroke-opacity:1"
     d="m 642.92296,491.45759 c -6.13559,-0.62083 -12.4,-2.26667 -12.4,-3.25782 0,-0.20487 0.51081,-0.47466 1.13513,-0.59952 4.03236,-0.80647 14.69257,-14.17546 15.45238,-19.37887 0.15212,-1.04176 1.53255,-6.8249 3.06761,-12.85142 3.65988,-14.36841 8.50918,-37.65789 9.92007,-47.64269 0.91997,-6.51052 1.2229,-14.58129 1.2236,-32.6 8e-4,-28.19412 -0.65893,-36.71519 -4.02795,-52 -2.03087,-9.2138 -2.77187,-11.46924 -5.45378,-16.6 -3.81185,-7.29241 -7.3351,-11.9798 -14.73228,-19.6 l -4.85367,-5 0.50511,-4.8 c 0.66824,-6.35016 1.78937,-11.56327 3.73212,-17.3539 0.87725,-2.61476 2.42713,-7.87666 3.44418,-11.69309 3.02927,-11.36727 4.8761,-14.37982 11.01975,-17.97554 3.70657,-2.16935 9.99268,-4.95862 13.1592,-5.83899 1.85806,-0.51659 2.62554,-0.568 3.37579,-0.22617 1.28635,0.5861 3.40395,4.28949 7.96386,13.92765 4.57684,9.67397 6.50268,14.7238 7.09864,18.61369 0.24828,1.6205 1.22548,4.92635 2.17155,7.34635 0.94607,2.42 1.8429,5.39 1.99296,6.6 0.34625,2.79215 0.93973,5.19252 3.60972,14.6 1.18635,4.18 2.81075,10.93 3.60977,15 0.79903,4.07 1.70588,7.79573 2.01522,8.2794 0.30935,0.48365 1.32939,1.22964 2.26674,1.65772 0.93736,0.42808 3.05429,1.878 4.70429,3.22203 3.96672,3.23115 7.14372,4.19211 11.18637,3.38358 3.13861,-0.62772 5.868,-5.6244 5.47173,-10.01706 -0.27648,-3.06478 0.508,-8.47197 2.36855,-16.32567 2.72047,-11.48361 3.35532,-14.46472 5.3665,-25.2 2.91161,-15.54154 3.8687,-19.81989 5.60458,-25.05314 2.63299,-7.93786 3.13393,-8.71213 11.30066,-17.46689 4.0109,-4.29969 16.40579,-10.86432 28.04608,-14.85386 2.60945,-0.89435 5.26,-1.6261 5.89009,-1.6261 1.06449,0 1.11801,0.0726 0.75554,1.02604 -0.50279,1.32245 -0.50094,4.79277 0.003,6.55167 0.21649,0.75484 1.29178,2.92868 2.38954,4.83078 2.57062,4.4541 5.03647,10.86806 7.53976,19.61178 2.83236,9.89311 3.96748,15.17341 5.82809,27.11096 0.31986,2.05219 0.85301,4.03219 1.18478,4.4 0.72838,0.80752 1.62914,5.53686 2.4773,13.0068 0.34584,3.04592 1.3469,9.34592 2.22456,14 0.87768,4.65408 1.76813,10.26032 1.9788,12.45832 0.45021,4.69706 1.74339,13.4584 4.1924,28.40364 0.97337,5.94 1.94509,12.87 2.1594,15.4 0.2143,2.53 0.75123,6.13 1.19316,8 0.44195,1.87 1.35916,8.26 2.03825,14.2 1.34997,11.80801 1.78328,14.88233 2.39573,16.99736 0.22255,0.76856 0.40463,2.72544 0.40463,4.34866 0,1.8171 0.45922,5.00521 1.19494,8.29576 0.65722,2.93946 1.47561,7.55256 1.81864,10.25134 0.87778,6.90592 1.93364,12.36085 4.02576,20.79832 0.99671,4.01971 2.23714,9.37856 2.7565,11.90856 1.04424,5.08683 1.55265,6.6591 2.4872,7.69177 0.82004,0.90612 0.0708,1.90655 -1.43202,1.91215 -1.83126,0.007 -4.91999,1.79499 -9.25102,5.35577 -11.21983,9.22437 -14.58615,11.44031 -17.37947,11.44031 -2.31846,0 -2.93765,-1.47652 -6.62571,-15.8 -2.78915,-10.83233 -2.97916,-11.87755 -5.38102,-29.6 -2.19835,-16.22088 -4.16524,-28.38952 -6.00646,-37.16058 -0.74348,-3.54168 -1.823,-9.49942 -2.39896,-13.23942 -1.25466,-8.14722 -1.58294,-9.49734 -2.83552,-11.66157 -1.46183,-2.52581 -3.4851,-3.33843 -8.31209,-3.33843 -4.69212,0 -5.9363,0.45408 -8.15709,2.97704 -3.16633,3.59715 -3.65638,7.60625 -1.33269,10.90288 1.09754,1.55709 1.22889,2.05224 1.22868,4.63178 -1.3e-4,1.58857 -0.98791,9.8183 -2.19507,18.2883 -1.20716,8.47 -2.74349,20.26 -3.41407,26.2 -0.67057,5.94 -1.46865,11.7 -1.7735,12.8 -0.30486,1.1 -1.03283,4.43 -1.61771,7.4 -2.15821,10.9591 -6.68888,27.53071 -8.87868,32.47504 -0.73911,1.66884 -1.3424,2.42926 -2.26416,2.85388 -1.70904,0.78729 -6.31121,1.37542 -14.65658,1.87301 -9.58655,0.5716 -14.20657,1.13127 -16.78614,2.03347 -1.20238,0.42053 -2.42656,0.7646 -2.72042,0.7646 -0.88984,0 -1.55026,-2.21676 -3.7017,-12.42512 -1.46686,-6.96007 -2.90692,-12.36655 -5.00085,-18.77488 -3.66758,-11.22441 -4.02512,-12.23104 -6.57078,-18.49977 -1.13903,-2.80488 -2.42641,-6.38247 -2.86085,-7.95019 -1.70128,-6.13928 -6.29076,-10.10498 -10.81067,-9.34135 -1.01596,0.17165 -2.27985,0.87126 -3.58211,1.98285 -1.10674,0.94469 -2.51498,1.81817 -3.12945,1.94106 -1.31457,0.26292 -4.22,2.40498 -5.37397,3.96203 -1.05943,1.42949 -1.33215,5.15939 -0.64394,8.80679 0.42354,2.24467 0.43218,3.95186 0.045,8.89011 -0.77165,9.84117 -2.68243,23.70215 -5.12682,37.19033 -1.27056,7.01102 -1.6856,8.26877 -2.93728,8.90114 -0.93983,0.47481 -8.63485,0.62829 -12.4,0.24732 z"
     id="path4168"
     inkscape:connector-curvature="0" />
  <path
     style="opacity:0.78800001;fill:#e72922;fill-opacity:1;fill-rule:evenodd;stroke:none;stroke-width:1.85899997;stroke-miterlimit:4;stroke-dasharray:none;stroke-opacity:1"
     d="m 874.96774,443.69488 c -0.96538,-0.18961 -1.83026,-0.41977 -1.92197,-0.51147 -0.32872,-0.32874 -0.13982,-7.29816 0.25348,-9.35176 0.22075,-1.15259 1.05534,-3.67259 1.85465,-5.6 0.79932,-1.92741 1.90368,-4.76438 2.45413,-6.30438 1.45171,-4.06141 2.91587,-6.57992 4.21624,-7.25237 0.62695,-0.32421 2.70564,-0.68259 4.61931,-0.79641 4.23613,-0.25195 6.33875,-0.95205 7.97725,-2.65616 2.02066,-2.10158 5.52955,-8.04004 6.72797,-11.38646 0.6123,-1.70972 1.17087,-3.18249 1.24127,-3.2728 0.26856,-0.34452 1.9151,1.45616 3.36217,3.6769 3.09079,4.74327 4.98567,13.22844 4.02213,18.01086 -1.24467,6.17782 -8.19419,17.11568 -12.14862,19.12073 -0.93652,0.47486 -2.29441,1.37949 -3.01753,2.01029 -4.27368,3.72806 -12.93492,5.63006 -19.64048,4.31303 z"
     id="path4170"
     inkscape:connector-curvature="0" />
  <path
     style="opacity:0.78800001;fill:#e72922;fill-opacity:1;fill-rule:evenodd;stroke:none;stroke-width:1.85899997;stroke-miterlimit:4;stroke-dasharray:none;stroke-opacity:1"
     d="m 565.23401,489.07169 c -4.80403,-4.9431 -8.8208,-9.86183 -10.03557,-12.28903 -1.77925,-3.55508 -4.35845,-5.40791 -9.03372,-6.48959 -3.78727,-0.87624 -5.04797,-1.56373 -6.79021,-3.70296 -0.83442,-1.02456 -2.75578,-3.20374 -4.26968,-4.84262 l -2.75254,-2.97978 0.24301,-2.82022 c 0.13365,-1.55112 0.95418,-6.51022 1.82338,-11.02022 1.90405,-9.8794 2.43434,-15.17439 2.43614,-24.32504 0.004,-19.5407 -4.4672,-50.92897 -8.59074,-60.3098 -2.78611,-6.33822 -8.91731,-16.79149 -12.38181,-21.11013 -3.90908,-4.87281 -11.24322,-13.4276 -15.82176,-18.45503 -4.27532,-4.69448 -4.27492,-4.69366 -3.0857,-6.28191 1.49087,-1.99112 2.17659,-3.53089 2.92261,-6.56265 0.37291,-1.51549 1.03653,-3.47544 1.47472,-4.35544 0.98253,-1.9732 4.19574,-6.27716 7.80176,-10.45015 2.74573,-3.17744 14.04402,-12.76434 19.43492,-16.49108 5.96222,-4.12167 15.19891,-8.38979 24.04737,-11.11188 3.38336,-1.04083 4.02125,-1.10493 10.6,-1.06509 7.70096,0.0466 14.83655,0.60949 19.30109,1.5225 2.13517,0.43664 5.21735,1.74346 11.69892,4.96026 7.73028,3.83652 9.48414,4.89426 14.42809,8.70144 6.20817,4.7807 8.15472,6.37498 13.6681,11.19464 2.05147,1.79334 4.34861,3.5542 5.10475,3.913 2.79335,1.32553 8.70904,9.24805 12.03976,16.1241 6.84641,14.13399 8.83081,30.47852 8.44908,69.59102 -0.20764,21.27539 -0.35054,23.50836 -2.50933,39.21346 -2.25607,16.41266 -6.57087,33.005 -11.85384,45.58321 -3.79925,9.04563 -5.96691,11.80091 -12.52661,15.92239 -4.30962,2.70774 -15.22284,8.19218 -16.30122,8.19218 -0.42103,0 -2.12051,0.54257 -3.77663,1.20572 -4.93545,1.97624 -8.71162,2.46561 -20.72216,2.68544 l -10.8,0.19767 -4.22218,-4.34441 z m 11.55718,-88.69802 c 2.65656,-1.36292 4.95634,-3.63698 7.56112,-7.47654 1.10812,-1.63342 3.52158,-4.40986 5.36326,-6.16986 3.75018,-3.58384 4.52716,-5.1265 5.18195,-10.28837 0.72683,-5.72971 -0.92591,-14.52618 -3.80038,-20.22695 -2.6541,-5.26374 -8.21499,-12.19342 -11.35331,-14.14789 -1.5982,-0.99532 -2.18107,-0.87947 -7.28764,1.44845 -2.09,0.95277 -5.25147,2.29101 -7.02549,2.97388 -3.57052,1.37438 -4.93538,2.54481 -6.13736,5.26308 -1.58084,3.57508 -1.82384,6.88725 -1.83066,24.95375 l -0.006,17.17593 3.6,3.18503 c 4.8013,4.24784 5.88768,4.73237 10.2,4.54922 2.73512,-0.11616 3.81751,-0.35859 5.535,-1.23973 l -1e-5,0 z"
     id="path4172"
     inkscape:connector-curvature="0" />
  <path
     style="opacity:0.78800001;fill:#e72922;fill-opacity:1;fill-rule:evenodd;stroke:none;stroke-width:1.85899997;stroke-miterlimit:4;stroke-dasharray:none;stroke-opacity:1"
     d="m 431.16282,520.78248 c -0.82135,-0.30601 -2.98135,-1.68485 -4.8,-3.06411 -5.25241,-3.98341 -6.87487,-4.46766 -11.27151,-3.36417 l -0.96541,0.24231 0.56872,-1.65072 c 0.86638,-2.5147 0.0512,-4.90988 -2.69199,-7.90958 -1.78472,-1.9516 -1.96782,-3.1341 -0.58301,-3.76506 0.5299,-0.24144 1.51297,-1.27258 2.18461,-2.29143 0.67164,-1.01884 3.1244,-3.92245 5.45056,-6.45245 2.32617,-2.53 4.7181,-5.3801 5.3154,-6.33356 0.59729,-0.95346 1.82456,-2.59472 2.72727,-3.64724 3.84257,-4.48029 11.31046,-18.95561 12.42494,-24.08382 0.94411,-4.34421 0.94228,-16.51735 -0.003,-19.65849 -1.20052,-3.98909 -8.01686,-10.42343 -15.06342,-14.21912 -8.42856,-4.54012 -21.83922,-7.16794 -34.6184,-6.78348 l -5.67888,0.17085 -0.4692,-3.22257 c -1.04211,-7.1574 -1.60545,-12.33376 -2.00492,-18.42257 -0.23094,-3.52 -0.62835,-7.66 -0.88314,-9.2 l -0.46325,-2.8 2.22279,-2.95006 c 4.99631,-6.63101 15.88096,-26.34529 16.5232,-29.9268 0.15022,-0.83772 0.5327,-1.82098 0.84996,-2.18502 0.83752,-0.961 1.44548,-6.04817 1.15336,-9.651 -0.3048,-3.75935 -1.32906,-6.63939 -3.54974,-9.98133 -2.01637,-3.03447 -8.06393,-9.12319 -11.19273,-11.26891 l -2.27928,-1.56312 1.89511,-0.64997 c 2.56731,-0.88052 5.27969,-2.68112 14.01234,-9.302 9.95618,-7.54854 13.17626,-9.01739 21.88278,-9.98186 4.84777,-0.53701 13.74322,-0.22483 17.6741,0.62027 6.68839,1.43795 20.03809,6.50521 26.7259,10.14459 7.86124,4.27793 15.60403,10.59785 25.41789,20.74693 5.1328,5.30811 6.57271,7.07792 12.96716,15.9381 8.51776,11.80224 12.84768,19.31826 14.00863,24.31663 0.31854,1.37146 1.03179,3.60639 1.585,4.96654 1.47266,3.62076 1.93102,5.96224 1.34942,6.89353 -0.3758,0.60175 -0.33834,1.33926 0.17769,3.498 2.49975,10.45726 3.70884,36.78568 2.36668,51.53548 -1.36068,14.95334 -2.03908,18.60664 -4.75382,25.6 -1.19563,3.08 -2.73364,7.04 -3.41782,8.8 -1.91151,4.91727 -7.16622,16.11693 -10.39567,22.15691 -2.13286,3.98903 -3.59378,6.1643 -5.49555,8.18273 -4.77363,5.06645 -15.2501,12.85043 -21.61953,16.06323 -2.86509,1.44518 -7.8963,3.07967 -12.45345,4.04575 -4.21702,0.89398 -32.63149,1.22567 -34.82999,0.40659 z m 33.2434,-88.20881 c 6.57003,-2.04482 10.2939,-6.32645 11.92841,-13.71509 0.99946,-4.5179 0.98879,-19.66186 -0.0162,-22.93131 -1.07462,-3.49618 -4.81817,-10.60144 -7.46979,-14.17769 -7.54676,-10.17831 -19.90354,-18.43216 -27.57656,-18.42007 -3.66413,0.006 -7.07369,2.23144 -8.15475,5.3232 -1.07417,3.07207 -1.99782,13.75742 -1.74583,20.19674 0.26867,6.86563 0.79366,9.99004 2.09662,12.47782 0.51851,0.99 1.22185,2.97 1.56298,4.4 0.75257,3.15472 7.1142,16.21096 9.27169,19.0287 5.48241,7.16016 12.92138,10.05299 20.10337,7.8177 l -2e-5,0 z"
     id="path4174"
     inkscape:connector-curvature="0" />
  <path
     style="opacity:0.78800001;fill:#e72922;fill-opacity:1;fill-rule:evenodd;stroke:none;stroke-width:1.85899997;stroke-miterlimit:4;stroke-dasharray:none;stroke-opacity:1"
     d="m 257.92466,602.18182 c -1.19286,-2.98125 -3.32832,-15.19179 -4.47512,-25.58879 -0.7032,-6.3752 -0.97862,-7.32682 -3.56248,-12.30881 -1.54129,-2.97181 -1.93895,-4.21496 -2.41727,-7.55695 -0.66096,-4.61796 -1.24768,-13.70813 -1.82017,-28.2 -0.60141,-15.22403 -1.93549,-30.96678 -3.18057,-37.53201 -0.2206,-1.16323 -0.76479,-5.65939 -1.20931,-9.99147 -0.44452,-4.33208 -1.51224,-13.90652 -2.37272,-21.27652 -0.86048,-7.37 -1.74684,-16.76329 -1.96969,-20.87399 -0.22285,-4.11069 -0.59327,-7.82544 -0.82316,-8.25498 -0.61331,-1.14598 -1.45638,-8.32947 -3.03631,-25.87103 -1.21204,-13.45708 -3.53386,-36.53497 -3.95379,-39.29895 -0.33073,-2.17694 8.77166,-10.80106 17.87167,-16.93262 5.10144,-3.43735 23.03216,-12.47591 29.37191,-14.80589 1.92968,-0.70919 7.10852,-2.72159 11.50852,-4.47199 9.95092,-3.95866 14.26217,-5.43608 22.4504,-7.69353 6.86112,-1.89157 14.45455,-3.44618 20.3496,-4.1662 1.98,-0.24183 4.5,-0.60697 5.6,-0.81141 2.76514,-0.51392 13.82791,-0.50901 18.46625,0.008 5.15034,0.5743 9.81821,1.97442 15.23514,4.56975 5.67881,2.72081 9.84721,5.57277 13.78358,9.43055 4.52918,4.43874 5.44327,6.9802 4.09022,11.3721 -0.33889,1.1 -0.79072,3.50126 -1.00408,5.33613 -0.41367,3.55754 -0.95531,4.98518 -2.37687,6.26482 -0.48823,0.43948 -1.293,1.71295 -1.78838,2.82993 -0.49538,1.11699 -1.45433,2.79515 -2.13098,3.72925 -0.684,0.94422 -1.43012,2.6609 -1.68031,3.86603 -0.35885,1.72856 -0.94167,2.75574 -2.87719,5.07075 -3.26903,3.91 -3.41113,4.15516 -4.25127,7.33472 -0.90567,3.42762 -3.59817,8.31624 -4.68336,8.50331 -0.43051,0.0742 -2.40275,2.01994 -4.38275,4.32384 -1.98,2.3039 -4.83761,5.48318 -6.35025,7.06507 -1.51264,1.58188 -3.61625,3.88958 -4.67469,5.12822 -1.08332,1.26776 -2.70764,2.6312 -3.71636,3.11952 -2.37612,1.15025 -5.49007,4.23147 -8.66574,8.57464 -1.42613,1.95042 -3.14098,4.29042 -3.81079,5.2 -0.68134,0.92524 -2.40404,2.36872 -3.91052,3.2767 -1.48097,0.89261 -3.73806,2.6574 -5.01574,3.92175 -1.27769,1.26435 -4.28796,3.86403 -6.68949,5.77707 -3.67729,2.9293 -4.42509,3.71576 -4.73817,4.98316 -0.47261,1.91324 0.27264,3.58196 2.81223,6.29699 3.80965,4.07281 6.90661,4.16502 16.02845,0.47721 3.27008,-1.32203 12.96233,-4.74428 21.53834,-7.60499 18.83954,-6.28434 21.59845,-6.86771 33.90904,-7.16997 13.33772,-0.32749 21.36232,0.94276 28.17107,4.45935 4.17374,2.15565 7.0308,4.79897 8.47015,7.8365 1.00174,2.11403 1.04199,2.47353 1.02985,9.2 -0.0158,8.72604 -0.41252,10.68275 -2.55952,12.62243 -1.68048,1.51821 -3.62785,4.95653 -3.62785,6.4054 0,1.78407 -11.03365,16.4055 -18.6356,24.69528 -2.18042,2.37772 -4.89469,5.50677 -6.03171,6.95347 -1.36883,1.74164 -2.77962,3.01989 -4.17553,3.78325 -2.69205,1.47216 -3.43905,2.16194 -4.00417,3.6975 -0.26868,0.73002 -1.2723,1.82022 -2.43284,2.64267 -2.24022,1.58762 -6.72016,6.26164 -6.72016,7.01131 0,0.77655 -3.08514,3.36789 -4.97322,4.17722 -1.74723,0.74895 -7.08905,5.51538 -15.42678,13.76511 -2.53,2.5033 -5.68,5.2756 -7,6.16067 -1.32,0.88508 -4.29,3.25752 -6.6,5.27209 -2.31,2.01458 -4.74,3.94035 -5.4,4.27951 -0.66,0.33915 -2.46,1.88017 -4,3.42448 -1.54,1.54432 -4.82886,4.12844 -7.30858,5.74249 -2.47972,1.61405 -6.43972,4.4501 -8.8,6.30233 -7.00802,5.49954 -22.73205,15.15284 -27.49776,16.88144 -1.34923,0.48938 -3.85027,1.7379 -5.55785,2.77447 -4.76247,2.89101 -6.87741,3.70527 -10.83582,4.17183 -6.95548,0.8198 -13.35139,5.28751 -15.37102,10.73705 -0.50959,1.375 -1.06503,2.5 -1.23431,2.5 -0.16929,0 -0.58607,-0.69545 -0.92617,-1.54545 z m 56.96692,-71.28995 c 0.94612,-0.94612 2.34257,-3.8192 2.3558,-4.84685 0.008,-0.62671 0.14313,-0.63486 1.65908,-0.1 2.17504,0.7674 4.89988,0.73834 6.60421,-0.0704 3.2858,-1.55922 9.26515,-10.45733 11.5806,-17.23358 2.60955,-7.63693 2.77642,-17.8206 0.37252,-22.73397 -1.2072,-2.46745 -4.13216,-5.32268 -6.87814,-6.71416 -3.05126,-1.5462 -7.63102,-2.35209 -13.32948,-2.34559 -2.75,0.003 -5.9,0.22418 -7,0.49119 -1.1,0.26703 -4.61,0.5236 -7.8,0.57016 -6.36299,0.0929 -7.79412,0.45817 -9.67456,2.46936 -2.4331,2.60227 -2.63606,6.34333 -0.55677,10.26274 1.80439,3.40122 2.42589,5.59114 3.82749,13.48652 1.52268,8.57737 2.76845,12.80896 5.35805,18.2 2.97492,6.1932 4.23037,7.50731 8.44579,8.84047 2.43097,0.76882 4.08112,0.67841 5.03541,-0.27588 z M 302.96902,413.18248 c 0.70793,-0.29964 1.63004,-0.92964 2.04914,-1.4 0.4191,-0.47036 1.1391,-0.85916 1.6,-0.86399 1.81084,-0.019 4.18998,-1.54481 6.01405,-3.85702 2.39219,-3.03237 7.67649,-13.72388 10.05023,-20.3342 2.28887,-6.37398 2.57903,-8.91937 1.45915,-12.8 -0.44441,-1.54 -0.92091,-3.46067 -1.05888,-4.26816 -0.50877,-2.97773 -7.23326,-7.79796 -13.02654,-9.33764 -3.72415,-0.98977 -6.4698,-0.76096 -11.6,0.96668 -4.92616,1.65893 -13.37943,5.27324 -15.48062,6.61896 -2.60933,1.67114 -2.74724,3.93528 -0.57012,9.35993 1.8596,4.63349 2.99845,8.58402 5.37932,18.66023 2.09999,8.88752 3.10118,11.75049 4.77641,13.65848 1.33591,1.52151 4.23453,3.15132 6.59338,3.70726 2.13775,0.50383 2.37952,0.49682 3.81448,-0.11053 z"
     id="path4176"
     inkscape:connector-curvature="0" />
  <path
     style="opacity:0.78800001;fill:#9ee3e0;fill-opacity:1;fill-rule:evenodd;stroke:none;stroke-width:1.85899997;stroke-miterlimit:4;stroke-dasharray:none;stroke-opacity:1"
     d="m 215.63875,807.48278 c -0.993,-28.09556 2.86755,-60.59968 11.59238,-97.60262 2.47435,-10.49401 5.24543,-20.52379 6.15795,-22.28839 2.58183,-4.99273 2.05267,-8.7581 -1.76774,-12.57851 -3.01846,-3.01845 -3.92858,-3.33293 -7.63676,-2.63876 -5.77913,1.08182 -27.74877,12.45047 -42.11082,21.79112 -12.95326,8.42438 -55.27912,31.36994 -56.1884,30.46066 -0.84302,-0.84301 0.79219,-3.59051 18.63117,-31.30429 28.34207,-44.03087 37.00988,-55.9018 52.76277,-72.26094 5.01542,-5.20842 12.55547,-12.23047 16.75568,-15.60454 8.49446,-6.82367 9.44877,-9.5293 5.09117,-14.43438 -3.56574,-4.01372 -23.96856,-12.37087 -41.80689,-17.12441 -42.42473,-11.30529 -87.86994,-21.91864 -101.594374,-23.72652 -11.740945,-1.54659 -11.558145,-1.89857 4.672113,-8.99599 8.319784,-3.63819 20.479791,-9.57553 27.022231,-13.19406 14.15018,-7.82624 30.06902,-13.96642 50.89574,-19.63135 15.04436,-4.09211 32.01052,-9.2538 41.72927,-12.69548 12.64527,-4.47804 12.33733,-13.29366 -0.66525,-19.04401 -3.43129,-1.51748 -13.438,-7.79826 -22.23715,-13.95727 C 145.66527,440.7608 135.64226,435.01529 76.60707,405.138 l -40.212852,-20.35144 16.877346,-2.57409 c 20.435626,-3.1168 48.741206,-8.88064 66.376796,-13.51623 20.89128,-5.49137 34.36945,-7.99727 43.01383,-7.99727 7.4131,0 8.34183,-0.26993 11.37899,-3.30709 5.73559,-5.73558 3.61307,-11.16345 -7.234,-18.49929 -1.63253,-1.10408 -7.0204,-7.98612 -11.97304,-15.29341 -19.06936,-28.13554 -53.78325,-62.89278 -75.561093,-75.65545 -2.739961,-1.60573 -4.788225,-3.11302 -4.551697,-3.34956 1.334744,-1.33473 78.45549,6.76924 88.15247,9.26322 13.70667,3.52524 42.17199,15.70273 48.6884,20.82895 2.0075,1.57924 3.74321,4.64794 4.92151,8.70113 2.48409,8.54498 4.73853,10.56062 11.81174,10.56062 3.78155,0 5.89241,-0.52131 6.28832,-1.55302 0.32777,-0.85416 2.82101,-2.6974 5.54055,-4.09611 4.65072,-2.39196 6.05007,-4.32588 7.89411,-10.90977 1.235,-4.40936 -4.02319,-9.03988 -11.82597,-10.41431 -9.63851,-1.69779 -14.47027,-4.29972 -16.90514,-9.1035 -1.13934,-2.24783 -5.90726,-13.76018 -10.59537,-25.583 -8.01239,-20.20619 -12.22706,-34.76727 -10.54902,-36.44531 0.40589,-0.40588 16.38509,7.05748 35.50933,16.58527 54.6223,27.2131 68.21102,32.89625 84.01656,35.13788 10.4166,1.47734 15.5899,0.58217 17.21217,-2.97831 1.23408,-2.70851 -0.0542,-8.33139 -8.77983,-38.32106 -5.45784,-18.7584 -6.63658,-32.06278 -5.06195,-57.13423 0.68392,-10.88944 1.51385,-21.07179 1.84429,-22.62742 l 0.60081,-2.82842 2.70332,3.39411 c 1.48683,1.86676 3.60801,4.39358 4.71373,5.61518 1.10572,1.22156 3.02863,3.81532 4.27314,5.76385 2.20994,3.46013 8.96943,11.96013 20.36468,25.60838 3.11127,3.72641 6.67508,8.43461 7.9196,10.46265 5.02252,8.18472 25.12097,30.53686 34.637,38.52096 9.20467,7.72289 10.57827,8.49844 15.05164,8.49844 4.05856,0 5.26246,-0.51868 6.85879,-2.95498 2.34708,-3.58211 1.90601,-6.98163 -2.40561,-18.54106 -2.94071,-7.884 -3.19371,-9.9002 -3.57036,-28.45243 -0.4478,-22.05721 0.68889,-30.90042 6.64123,-51.66717 5.25173,-18.32242 9.74707,-28.930847 14.55092,-34.338259 l 4.35466,-4.90177 2.53318,2.262741 c 4.62737,4.13334 14.99532,19.013528 26.01379,37.335248 19.82586,32.9668 23.64719,38.79126 30.28443,46.1594 0.44816,0.49752 3.78755,3.37425 7.42087,6.39273 7.18462,5.96885 10.6978,7.20255 15.6221,5.48593 4.1994,-1.46393 4.98412,-4.60294 7.15526,-28.62242 3.34206,-36.97363 4.95272,-44.57608 14.78893,-69.805451 6.97101,-17.880294 12.97185,-29.911785 17.18763,-34.460693 2.6332,-2.841257 2.95582,-2.925667 4.2769,-1.118976 0.78588,1.074752 3.04582,6.134191 5.02209,11.243197 1.97626,5.109006 4.31694,11.071011 5.2015,13.2489 2.47207,6.086536 9.21914,32.363683 10.7484,41.860723 0.75151,4.6669 1.80188,10.77631 2.33417,13.57645 1.45691,7.66401 3.05551,19.23537 5.00161,36.20387 2.66419,23.22951 4.85362,28.28427 12.25111,28.28427 7.16748,0 10.72881,-6.54541 17.60568,-32.35766 9.69352,-36.38449 20.99564,-61.615773 35.18123,-78.53989 17.97873,-21.449496 34.57162,-36.22564 37.25754,-33.178211 3.94468,4.475625 10.45895,35.21898 13.74752,64.879801 2.09907,18.93225 2.97599,27.13482 3.87051,36.20387 0.46032,4.6669 1.56633,9.32582 2.45778,10.35314 1.83618,2.11603 8.18025,3.61748 10.89052,2.57746 2.74708,-1.05416 7.05649,-9.17418 12.68949,-23.91024 2.80566,-7.33965 6.17256,-16.14498 7.48203,-19.56737 7.42838,-19.414821 29.01394,-55.826115 43.88161,-74.021118 9.10251,-11.1396 28.50365,-27.802266 32.37152,-27.802266 6.15519,0 4.8682,35.880483 -3.56608,99.420924 -1.60044,12.05711 -3.62433,24.27591 -4.49752,27.1529 -2.11845,6.9798 -2.01718,9.60477 0.45687,11.84376 2.57784,2.3329 9.0805,2.42721 12.29133,0.17826 2.7532,-1.92841 15.8819,-19.54778 29.59488,-39.71781 21.51294,-31.642742 37.7481,-49.078605 66.44718,-71.361403 12.41064,-9.635984 29.6492,-20.486831 37.07269,-23.335494 3.16038,-1.212748 3.09372,-1.046256 -21.65483,54.084461 -14.57375,32.465016 -21.80905,47.576676 -27.19269,56.794746 -2.59807,4.4485 -4.72376,9.37056 -4.72376,10.93791 0,3.50651 3.80285,6.37244 8.45418,6.37129 3.73106,-8e-4 27.46859,-11.17345 41.71451,-19.63372 11.88349,-7.05729 42.12579,-21.61938 53.35167,-25.6896 17.2752,-6.263517 57.3489,-16.122198 84.2872,-20.735774 22.5762,-3.866524 23.4339,-3.656263 18.6557,4.573224 -13.2616,22.8407 -55.3948,68.31183 -102.66,110.79287 -8.5363,7.67229 -9.8995,9.39693 -9.8995,12.5246 0,1.99493 0.8678,4.49497 1.9285,5.55566 3.2211,3.22108 20.5243,1.52825 51.2459,-5.01357 38.2707,-8.14932 74.175,-12.49715 86.8616,-10.51852 4.7571,0.74192 4.8075,0.79665 3.0445,3.30377 -4.2246,6.00753 -78.7028,66.98757 -101.5963,83.18344 -12.5888,8.90583 -14.3313,10.66717 -14.3313,14.4862 0,5.722 2.9984,6.61451 28.4402,8.46559 28.0092,2.03785 42.9725,3.98905 68.8576,8.97889 10.8896,2.09915 22.5992,4.16971 26.0216,4.60127 3.4224,0.43156 6.8846,1.13456 7.6937,1.56223 1.6942,0.89537 -22.3291,8.33067 -45.5946,14.11177 -20.7594,5.15836 -32.5451,9.68993 -63.3568,24.36032 -4.978,2.3702 -14.6512,6.74204 -21.496,9.71521 -14.3565,6.23599 -19.2989,10.34149 -17.4184,14.46879 0.6635,1.45617 2.7796,3.57694 4.7024,4.71281 1.9229,1.13587 7.3525,5.44823 12.0659,9.58302 15.3492,13.46517 39.6997,31.93251 58.2319,44.1629 9.3411,6.16469 14.855,10.17624 24.4171,17.76431 4.8628,3.85896 10.3332,7.93189 12.1563,9.05096 3.4197,2.09915 17.0428,13.91408 16.0434,13.91408 -1.7572,0 -23.5033,-5.12111 -40.6193,-9.56568 -31.2407,-8.11235 -36.0628,-8.75153 -85.9842,-11.39746 -43.97914,-2.33097 -45.86493,-2.28838 -49.26602,1.11273 -4.3099,4.30989 -3.52862,6.89912 4.72028,15.6434 4.12352,4.37113 11.32823,13.85171 16.01048,21.06793 7.92373,12.212 22.20676,31.44527 44.61086,60.0723 5.1134,6.53366 14.9601,17.73423 21.8814,24.89015 12.6136,13.04098 16.5332,18.10194 14.0192,18.10194 -0.7027,0 -9.2484,-3.09243 -18.9902,-6.87207 -23.3534,-9.06062 -32.4506,-12.2666 -52.78495,-18.60216 -27.48324,-8.56292 -67.32654,-23.10588 -74.98453,-27.36961 -7.96231,-4.43319 -10.3972,-4.38216 -16.00364,0.33533 -5.53026,4.65342 -4.87721,8.98001 2.48498,16.463 5.28315,5.36986 6.95544,8.39587 14.60554,26.42886 4.75159,11.20057 10.70622,26.04758 13.23252,32.99338 4.73945,13.03064 10.29841,36.98375 8.90618,38.37599 -1.9042,1.9042 -11.6959,-8.0724 -48.88769,-49.81084 -5.57533,-6.25691 -13.78199,-15.29343 -18.23704,-20.08115 -14.04256,-15.09119 -24.21416,-29.76729 -26.49089,-38.22239 -2.70996,-10.06408 -15.66923,-10.6112 -19.77979,-0.83507 -1.27621,3.03521 -1.07262,4.46604 1.79038,12.58275 3.83464,10.87134 4.16012,19.2728 1.64778,42.53358 -0.90731,8.40042 -2.18987,21.52815 -2.85014,29.17272 -1.31276,15.19929 -5.32261,41.49026 -6.75612,44.29729 -0.49608,0.97138 -1.24343,5.32996 -1.66078,9.68574 -0.75318,7.86066 -4.13428,23.62818 -5.32121,24.81512 -0.77458,0.77458 -12.21274,-23.89085 -21.4627,-46.28248 -3.84926,-9.31804 -10.03405,-23.57331 -13.74399,-31.67838 -3.70993,-8.10508 -10.98855,-24.91884 -16.17469,-37.36392 -5.18615,-12.44508 -11.03611,-26.4458 -12.9999,-31.1127 -5.60972,-13.33141 -12.01207,-16.75902 -19.96839,-10.69045 -4.33506,3.30652 -4.65571,5.64469 -2.08669,15.21593 1.92741,7.1808 2.1835,21.29524 0.56451,31.1127 -0.61569,3.73352 -1.88465,16.54552 -2.81991,28.47114 -1.83842,23.44194 -2.56938,29.63602 -6.85373,58.07873 -4.80498,31.89894 -11.88214,62.14197 -14.64966,62.60272 -1.44995,0.2414 -10.34285,-17.62895 -22.70813,-45.63216 -24.19233,-54.78748 -45.67695,-91.26951 -66.12785,-112.28855 -7.74522,-7.9604 -8.93499,-8.76813 -12.91521,-8.76813 -4.75333,0 -10.86261,3.79573 -13.27599,8.24843 -0.86415,1.59438 -1.64308,11.92323 -2.15087,28.52112 -0.76452,24.98979 -0.99894,26.98598 -5.91223,50.34601 -6.87367,32.6805 -10.41503,47.04398 -14.92346,60.52833 -2.08046,6.22255 -6.17239,18.91475 -9.09315,28.20491 -3.52799,11.22156 -5.61862,16.34061 -6.22847,15.25087 -4.74744,-8.48322 -18.4173,-72.92779 -26.01665,-122.65174 -5.63728,-36.8858 -8.71819,-49.41228 -13.14794,-53.45727 -4.14574,-3.78565 -12.97827,-3.52246 -20.91396,0.62319 -8.06843,4.215 -14.30375,12.15586 -26.02305,33.14108 -5.20556,9.32136 -12.80937,22.65676 -16.89738,29.63418 -4.08801,6.97744 -10.15184,17.52286 -13.47517,23.43426 -3.32335,5.91142 -8.19739,14.5664 -10.83122,19.23331 -2.63381,4.6669 -7.98557,14.34013 -11.89277,21.49605 -14.113,25.84752 -16.54477,30.13194 -22.47517,39.59798 -8.0354,12.82602 -8.17121,12.98519 -9.32325,10.92662 -1.36359,-2.4366 -3.42264,-48.22282 -3.51868,-78.24319 -0.0856,-26.76109 1.52951,-47.48674 4.4886,-57.5988 3.10303,-10.60392 3.14469,-13.74627 0.20951,-15.80214 -3.88274,-2.71958 -9.08335,-2.2538 -14.24764,1.27605 -5.57237,3.80876 -18.12799,18.44088 -24.99847,29.1328 -5.49348,8.549 -20.96973,30.33747 -36.48009,51.35901 -5.3279,7.22102 -12.61801,17.10546 -16.20026,21.96542 -6.31916,8.57306 -36.30299,40.05201 -60.98835,64.02945 l -12.11927,11.77172 -0.17613,-4.98349 z m 42.49729,-187.65987 c 1.6463,-0.62592 3.18122,-2.32943 3.5991,-3.99436 0.60069,-2.39337 1.15244,-2.74798 3.14286,-2.01992 3.84864,1.40776 11.22767,0.79088 15.21706,-1.2721 2.02097,-1.0451 5.46948,-4.39865 7.66334,-7.45235 2.19685,-3.05786 6.62796,-7.16307 9.86329,-9.13789 11.61279,-7.08834 37.70074,-25.88594 45.02427,-32.44208 4.10928,-3.67871 9.20045,-7.89046 11.31371,-9.35945 5.49669,-3.82091 20.1598,-16.80966 32.93347,-29.17289 l 10.98928,-10.63613 3.0226,2.37757 c 1.66243,1.30766 4.22672,2.37758 5.69844,2.37758 1.47173,0 2.67586,0.66842 2.67586,1.48538 0,2.38584 5.76441,7.23743 11.87939,9.99824 8.16012,3.68416 25.04291,4.14824 42.9921,1.1818 11.97913,-1.97979 14.68223,-2.86905 22.97502,-7.55837 16.16456,-9.14055 30.31358,-25.69945 36.02385,-42.15945 1.30688,-3.76711 2.71008,-5.9397 3.83628,-5.9397 3.0466,0 11.3643,5.9778 23.99895,17.24766 10.17743,9.07806 13.05583,11.04105 17.62769,12.02154 6.29535,1.35011 22.79157,-0.0118 33.56547,-2.77112 3.73352,-0.9562 7.98789,-2.03343 9.45415,-2.39381 1.55563,-0.38237 3.02663,-0.0716 3.53202,0.74609 1.23669,2.00102 14.84194,3.32668 34.73214,3.38424 l 17.17129,0.0497 2.45605,-3.11127 c 2.04867,-2.59518 2.36527,-4.14345 1.90867,-9.33381 -0.47179,-5.36299 2.35683,-34.67272 4.46497,-46.2654 l 0.69812,-3.83901 1.52014,2.70763 c 3.98758,7.10262 14.00644,44.46502 14.00644,52.23291 0,5.31087 2.58885,10.59501 5.66987,11.57289 3.4594,1.09797 8.97044,-0.4841 10.50612,-3.01601 2.5745,-4.24468 18.05574,-8.52641 33.52438,-9.27205 7.47213,-0.36017 8.69684,-0.74404 11.03088,-3.45752 1.44403,-1.67879 2.62553,-4.29948 2.62553,-5.82372 0,-1.52427 1.54546,-10.02359 3.43437,-18.88738 1.88891,-8.86379 4.69851,-26.29833 6.24359,-38.74341 2.96845,-23.90989 3.83009,-29.29547 4.56879,-28.55677 0.25025,0.25024 1.98433,12.37816 3.85353,26.95096 2.05973,16.05811 4.73246,31.3986 6.78461,38.94104 1.86233,6.8448 3.38906,14.90256 3.39271,17.90612 0.006,4.52251 0.57502,6.0294 3.31375,8.76812 3.63591,3.63592 9.83233,4.43334 14.39715,1.85279 3.58887,-2.02883 30.81481,-31.54135 31.55532,-34.2055 0.34921,-1.25638 2.51844,-3.29285 4.8205,-4.52548 5.40343,-2.89322 5.70861,-5.58097 1.52409,-13.42257 -4.11541,-7.71211 -7.05527,-20.07113 -10.93088,-45.95278 -1.63062,-10.88944 -5.20062,-33.7997 -7.93335,-50.91169 -2.73271,-17.11198 -5.52428,-35.44019 -6.20347,-40.72935 -2.13471,-16.62379 -8.99057,-54.23154 -12.36604,-67.83376 -1.7824,-7.18258 -3.82209,-16.53846 -4.53265,-20.79082 -0.71056,-4.25236 -1.73451,-8.57986 -2.27545,-9.61666 -0.54095,-1.03678 -1.40956,-4.38257 -1.93027,-7.43505 -0.67165,-3.93729 -1.77872,-6.16671 -3.80991,-7.67241 -2.84248,-2.10712 -2.95694,-2.09082 -15.83919,2.25423 -7.13683,2.40717 -15.52162,5.51797 -18.63289,6.91291 -3.11128,1.39493 -9.71063,4.02742 -14.66524,5.84998 -4.95461,1.82256 -10.92973,4.58522 -13.27802,6.13925 -4.15351,2.74865 -4.26581,3.00226 -4.12932,9.32515 0.0772,3.5748 -0.67396,9.2998 -1.66919,12.72219 -0.99521,3.4224 -3.89928,17.08821 -6.45348,30.36849 -2.5542,13.28026 -5.04341,25.22564 -5.53158,26.54529 -0.88071,2.38077 -0.89699,2.38175 -2.10338,0.12762 -0.66868,-1.24947 -4.1011,-12.17662 -7.62757,-24.28255 -7.37662,-25.32298 -18.52091,-53.30843 -23.10317,-58.01645 l -3.11049,-3.19588 -11.20734,4.18667 c -13.27007,4.95723 -34.01072,15.76774 -35.46508,18.48522 -0.5644,1.05459 -0.75475,4.95061 -0.42302,8.65784 0.49495,5.53123 -3.10907,33.77597 -4.48543,35.15232 -0.16339,0.1634 -4.29326,-2.44933 -9.17749,-5.80605 -4.88422,-3.35674 -12.76483,-7.76349 -17.51244,-9.7928 -8.1342,-3.47685 -9.55708,-3.71407 -24.67137,-4.11304 -12.19309,-0.32187 -17.48352,-8e-4 -22.06173,1.3375 -8.73622,2.5544 -22.89304,9.75828 -32.33412,16.45364 -10.55068,7.48225 -30.65739,26.76281 -31.52832,30.23287 -0.84039,3.34834 -1.6782,3.33897 -7.09315,-0.0793 -12.56583,-7.93246 -32.85619,-14.87224 -46.61688,-15.94405 -12.59043,-0.98067 -22.35524,0.76056 -32.59796,5.81277 -11.16296,5.5061 -18.20371,12.49357 -18.20371,18.06596 0,3.49286 -0.29754,3.97955 -1.9799,3.23852 -13.92234,-6.13251 -17.28157,-6.73048 -36.48671,-6.49504 -17.26839,0.21172 -19.77004,0.5205 -33.37544,4.11969 -15.55052,4.11374 -26.83608,8.06296 -33.37545,11.67924 -2.17788,1.20438 -6.25082,2.85153 -9.05096,3.66034 -6.16006,1.77929 -25.33065,11.47711 -32.6758,16.52968 -2.9265,2.01308 -7.59039,4.79867 -10.36419,6.19021 -6.37549,3.1984 -11.26582,7.74266 -11.26582,10.46858 0,1.15898 0.71016,3.48204 1.57814,5.16234 2.06137,3.99057 3.76354,16.02016 5.23492,36.99621 0.65472,9.33381 1.40764,17.73424 1.67315,18.66762 0.26551,0.93338 1.52808,12.38851 2.80572,25.45585 1.27764,13.06732 2.78814,26.55892 3.35667,29.98132 4.00581,24.11384 5.34176,37.9032 6.81612,70.35392 0.85978,18.92366 1.6134,26.03778 3.2959,31.11269 1.19968,3.61863 2.4654,8.9382 2.81271,11.8213 0.34731,2.88309 1.60838,6.95603 2.8024,9.05097 1.19401,2.09493 2.50158,6.84224 2.9057,10.54958 0.74826,6.86451 2.70949,10.28095 6.88224,11.98882 3.03266,1.24126 3.36375,1.24017 6.68297,-0.0218 l 0,4e-5 z M 893.02936,453.97974 c 8.81511,-4.12579 22.2128,-17.52126 26.17063,-26.16631 5.88173,-12.8474 4.30961,-27.62788 -3.90589,-36.72145 -5.6444,-6.24768 -6.69535,-6.11467 -26.03885,3.29561 -6.67139,3.24551 -16.4142,12.86388 -21.02437,20.75582 -4.05937,6.94905 -9.79729,24.13047 -9.79729,29.33666 0,12.17358 18.20314,17.17199 34.59577,9.49967 z m -33.8999,-73.42059 c 2.87155,-0.75359 5.83662,-2.62528 7.73733,-4.88415 1.69491,-2.01428 3.72434,-3.66233 4.50985,-3.66233 0.78551,0 7.86811,-4.28708 15.73913,-9.52686 7.871,-5.23978 15.83183,-9.86093 17.69074,-10.26921 6.74099,-1.48057 9.63077,-8.71583 6.47693,-16.21657 -1.67695,-3.98829 0.091,-19.53705 5.939,-52.23428 3.74528,-20.94034 7.4308,-43.25129 8.41002,-50.91168 0.35794,-2.80015 1.17931,-19.34645 1.82525,-36.76956 0.64593,-17.42311 1.45426,-33.06427 1.79629,-34.75811 0.94784,-4.69389 -3.99612,-9.24407 -8.87884,-8.17165 -4.63276,1.01754 -32.76326,14.84883 -39.36562,19.35543 -2.77184,1.89199 -10.59021,6.34033 -17.37417,9.88521 l -12.33445,6.44524 -3.5586,-3.44913 c -4.09347,-3.96755 -8.20603,-4.43435 -12.00011,-1.3621 l -2.57736,2.08703 3.01499,14.035 c 6.51967,30.34957 7.04962,36.83747 9.83326,120.38388 0.62198,18.66761 1.62425,36.96912 2.22726,40.67001 l 1.0964,6.72891 -3.93687,3.60602 c -2.16528,1.98331 -3.92907,4.04648 -3.91954,4.58482 0.0585,3.30436 7.22565,7.58837 10.73069,6.414 1.24452,-0.41697 4.3578,-1.30794 6.91842,-1.97992 z"
     id="path4178"
     inkscape:connector-curvature="0" />
  <path
     style="opacity:0.78800001;fill:#9ee3e0;fill-opacity:1;fill-rule:evenodd;stroke:none;stroke-width:1.85899997;stroke-miterlimit:4;stroke-dasharray:none;stroke-opacity:1"
     d="m 302.53308,397.17518 c -1.0322,-1.67013 -4.12812,-14.77906 -4.12812,-17.47951 0,-2.02071 1.04789,-3.23812 3.99819,-4.64502 5.15652,-2.45898 7.0045,-2.40613 7.83933,0.22419 0.84449,2.66075 -1.10065,11.56279 -3.91838,17.93274 -2.1474,4.85456 -2.81259,5.55073 -3.79102,3.9676 z"
     id="path4180"
     inkscape:connector-curvature="0" />
  <path
     style="opacity:0.78800001;fill:#9ee3e0;fill-opacity:1;fill-rule:evenodd;stroke:none;stroke-width:1.85899997;stroke-miterlimit:4;stroke-dasharray:none;stroke-opacity:1"
     d="m 314.19233,518.47471 c -3.16375,-8.11307 -6.01442,-22.24096 -4.86225,-24.09728 2.2372,-3.60446 11.09315,-6.61912 13.96505,-4.75385 1.22115,0.79313 1.62424,2.80021 1.43739,7.15722 -0.29407,6.85755 -2.13707,12.66731 -6.34349,19.99685 l -2.89283,5.04067 -1.30387,-3.34361 z"
     id="path4182"
     inkscape:connector-curvature="0" />
  <path
     style="opacity:0.78800001;fill:#9ee3e0;fill-opacity:1;fill-rule:evenodd;stroke:none;stroke-width:1.85899997;stroke-miterlimit:4;stroke-dasharray:none;stroke-opacity:1"
     d="m 454.24016,417.55035 c -3.98741,-4.16294 -6.1857,-9.74027 -7.70913,-19.55901 -1.10379,-7.1141 -1.01279,-8.71655 0.71222,-12.54195 1.08774,-2.41216 2.39253,-4.38575 2.89954,-4.38575 1.88635,0 9.25037,8.41515 11.28547,12.89636 3.0773,6.77607 3.01429,21.31871 -0.10588,24.43888 -2.93641,2.93641 -3.52435,2.86597 -7.08222,-0.84853 z"
     id="path4184"
     inkscape:connector-curvature="0" />
  <path
     style="opacity:0.78800001;fill:#de8787;fill-opacity:1;fill-rule:evenodd;stroke:none;stroke-width:1.85899997;stroke-miterlimit:4;stroke-dasharray:none;stroke-opacity:1"
     d=""
     id="path4186"
     inkscape:connector-curvature="0" />
  <path
     style="opacity:0.78800001;fill:#9ee3e0;fill-opacity:1;fill-rule:evenodd;stroke:none;stroke-width:1.85899997;stroke-miterlimit:4;stroke-dasharray:none;stroke-opacity:1"
     d="m 344.79117,425.43001 c 0,-0.6218 3.00537,-3.91298 6.6786,-7.31374 3.67323,-3.40076 9.00039,-8.79742 11.83813,-11.99256 l 5.15954,-5.80936 1.29068,4.79326 c 0.70988,2.6363 2.27128,6.71536 3.46976,9.06458 1.64344,3.2214 1.82299,4.36292 0.73048,4.64396 -0.79673,0.20496 -6.89714,1.72885 -13.55646,3.38644 -6.65933,1.6576 -12.89601,3.31624 -13.8593,3.68588 -0.96329,0.36966 -1.75143,0.16335 -1.75143,-0.45846 z"
     id="path4188"
     inkscape:connector-curvature="0" />
  <path
     style="opacity:0.78800001;fill:#9ee3e0;fill-opacity:1;fill-rule:evenodd;stroke:none;stroke-width:1.85899997;stroke-miterlimit:4;stroke-dasharray:none;stroke-opacity:1"
     d="m 570.699,385.1349 c -0.42075,-1.09647 -0.76501,-5.78667 -0.76501,-10.42267 0,-8.97168 2.3453,-16.80654 4.79224,-16.00927 2.26666,0.73855 4.62892,6.58935 5.14756,12.74943 0.44458,5.28052 0.17718,5.99979 -3.96653,10.66916 -3.7528,4.22888 -4.56213,4.69713 -5.20826,3.01335 z"
     id="path4190"
     inkscape:connector-curvature="0" />
</svg>
