<?xml version="1.0" encoding="UTF-8" standalone="no"?>
<!-- Created with Inkscape (http://www.inkscape.org/) -->
<svg
   xmlns:dc="http://purl.org/dc/elements/1.1/"
   xmlns:cc="http://creativecommons.org/ns#"
   xmlns:rdf="http://www.w3.org/1999/02/22-rdf-syntax-ns#"
   xmlns:svg="http://www.w3.org/2000/svg"
   xmlns="http://www.w3.org/2000/svg"
   xmlns:sodipodi="http://sodipodi.sourceforge.net/DTD/sodipodi-0.dtd"
   xmlns:inkscape="http://www.inkscape.org/namespaces/inkscape"
   width="462.2616"
   height="594.77655"
   id="svg2"
   sodipodi:version="0.32"
   inkscape:version="0.46"
   sodipodi:docname="Facepalm2.svg"
   inkscape:output_extension="org.inkscape.output.svg.inkscape"
   version="1.0"
   sodipodi:docbase="/home/rama/images"
   sodipodi:modified="true">
  <defs
     id="defs4">
    <inkscape:perspective
       sodipodi:type="inkscape:persp3d"
       inkscape:vp_x="0 : 526.18109 : 1"
       inkscape:vp_y="0 : 1000 : 0"
       inkscape:vp_z="744.09448 : 526.18109 : 1"
       inkscape:persp3d-origin="372.04724 : 350.78739 : 1"
       id="perspective10" />
    <inkscape:perspective
       id="perspective2487"
       inkscape:persp3d-origin="372.04724 : 350.78739 : 1"
       inkscape:vp_z="744.09448 : 526.18109 : 1"
       inkscape:vp_y="0 : 1000 : 0"
       inkscape:vp_x="0 : 526.18109 : 1"
       sodipodi:type="inkscape:persp3d" />
    <inkscape:perspective
       id="perspective2445"
       inkscape:persp3d-origin="372.04724 : 350.78739 : 1"
       inkscape:vp_z="744.09448 : 526.18109 : 1"
       inkscape:vp_y="0 : 1000 : 0"
       inkscape:vp_x="0 : 526.18109 : 1"
       sodipodi:type="inkscape:persp3d" />
  </defs>
  <sodipodi:namedview
     id="base"
     pagecolor="#ffffff"
     bordercolor="#666666"
     borderopacity="1.0"
     gridtolerance="10000"
     guidetolerance="10"
     objecttolerance="10"
     inkscape:pageopacity="0.0"
     inkscape:pageshadow="2"
     inkscape:zoom="3.50769"
     inkscape:cx="356.56681"
     inkscape:cy="195.19998"
     inkscape:document-units="px"
     inkscape:current-layer="layer1"
     showgrid="false"
     inkscape:window-width="1272"
     inkscape:window-height="724"
     inkscape:window-x="0"
     inkscape:window-y="25"
     showguides="true"
     inkscape:guide-bbox="true" />
  <metadata
     id="metadata7">
    <rdf:RDF>
      <cc:Work
         rdf:about="">
        <dc:format>image/svg+xml</dc:format>
        <dc:type
           rdf:resource="http://purl.org/dc/dcmitype/StillImage" />
      </cc:Work>
      <cc:Work
         rdf:about="">
        <dc:format>image/svg+xml</dc:format>
        <dc:type
           rdf:resource="http://purl.org/dc/dcmitype/StillImage" />
      </cc:Work>
    </rdf:RDF>
  </metadata>
  <g
     inkscape:label="Layer 1"
     inkscape:groupmode="layer"
     id="layer1"
     transform="translate(-30.200938,6.4354709)">
    <path
       style="fill:none;fill-rule:evenodd;stroke:#000000;stroke-width:15;stroke-linecap:butt;stroke-linejoin:miter;stroke-miterlimit:4;stroke-dasharray:none;stroke-opacity:1"
       d="M 420.09839,492.24078 C 421.16991,490.4764 425.55974,488.70053 428.22654,487.35306 C 431.3941,485.75257 434.53354,483.02197 437.36103,480.87897 C 440.28244,478.6648 442.31226,476.01779 444.2119,472.86139 C 446.30698,469.38026 448.93525,465.9799 451.21759,462.70008 C 453.40444,459.5575 455.49561,456.70656 457.48788,453.39626 C 459.38781,450.23939 461.25278,447.12002 462.59701,443.62081 C 464.14345,439.5952 466.26219,435.88409 468.2093,432.00176 C 469.75883,428.91216 470.50921,426.65078 470.95739,423.34106 C 471.54507,419.00116 473.04313,413.94352 474.16994,409.66401 C 476.16719,402.07869 481.81076,397.69586 486.16864,391.39937 C 487.69863,389.18878 488.25475,386.16799 489.45861,383.59617 C 490.72632,380.88793 492.33136,378.09909 493.71621,375.27846 C 495.78918,371.05629 498.83747,367.30223 500.64449,363.14491 C 502.40406,359.09677 504.5264,354.74939 505.90844,350.49686 C 506.9764,347.21073 507.20655,343.6702 507.84371,340.24979 C 508.57672,336.31488 509.57885,332.52628 510.5918,328.75936 C 512.00549,323.50218 512.99154,318.31529 512.99154,312.85283 C 512.99154,307.93728 514.73329,303.19751 514.73329,298.27541 C 514.73329,293.28947 516.70021,288.49459 517.21044,283.56938 C 517.59867,279.82175 516.9782,275.98581 516.9782,272.25044 C 516.9782,267.49941 516.2368,262.7829 515.73963,258.10177 C 515.24551,253.44934 515.11241,248.78703 514.73329,244.16748 C 514.40024,240.10933 514.18498,236.01669 513.76565,231.99105 C 513.49816,229.42311 513.34944,226.90497 512.48837,224.4451 C 511.92693,222.84122 511.6145,221.22226 511.24979,219.47163 C 511.10745,218.78837 510.91639,218.108 510.74662,217.41364"
       id="path3231"
       transform="translate(-32.375659,-0.3702392)" />
    <path
       style="opacity:1;fill:none;fill-opacity:1;fill-rule:evenodd;stroke:#000000;stroke-width:15;stroke-linecap:butt;stroke-linejoin:miter;marker:none;marker-start:none;marker-mid:none;marker-end:none;stroke-miterlimit:4;stroke-dasharray:none;stroke-dashoffset:0;stroke-opacity:1;visibility:visible;display:inline;overflow:visible;enable-background:accumulate"
       d="M 511.92155,220.95348 C 511.36389,218.27668 510.99997,215.85243 510.37333,213.23603 C 509.728,210.54165 508.69202,207.917 507.50912,205.38995 C 506.2411,202.68107 506.50278,198.79797 506.50278,195.82888 C 506.50278,193.73712 506.78144,191.50111 507.00595,189.44054 C 507.19081,187.74385 506.90351,186.03776 506.54148,184.46707 C 506.0686,182.41542 505.4436,180.4863 504.79974,178.42173 C 504.05543,176.03507 503.26826,173.84183 502.70964,171.60465 C 501.81661,168.02821 500.80438,164.49541 500.03896,160.84309 C 499.40055,157.79678 497.84882,154.67044 496.59418,151.83939 C 494.83415,147.86796 493.81269,143.55605 491.98822,139.57721 C 490.35623,136.01812 488.86536,132.56156 486.95651,129.11577 C 485.11115,125.78458 483.61617,122.30138 481.57645,119.12595 C 479.90475,116.52347 478.06052,114.14855 476.23509,111.58 C 473.80557,108.16141 471.77895,104.65411 469.80998,100.98994 C 467.53203,96.750743 465.49435,92.497392 462.8817,88.38476 C 461.15813,85.671638 459.51851,82.803512 457.9274,80.024184 C 456.33929,77.250097 453.40901,74.513056 451.34747,71.920856 C 448.16852,67.923619 445.60546,63.446802 443.02579,59.058431 C 441.64726,56.713359 439.92508,54.775747 438.03278,53.098841 C 436.08291,51.370913 433.69038,50.01258 431.7625,48.168245 C 428.86005,45.391579 425.48732,43.142526 422.5893,40.407915 C 419.31827,37.321336 415.18812,34.887681 411.63565,32.133089 C 409.9288,30.809591 408.51113,29.2665 406.99099,27.759864 C 404.5834,25.373661 401.82885,23.682718 398.97896,21.928898 C 395.81284,19.980472 392.5748,18.779321 389.38,16.826803 C 386.92483,15.326319 383.09069,14.714437 380.2068,13.782696 C 377.44032,12.88889 374.68684,12.279567 371.96253,11.510334 C 369.55523,10.830611 367.04817,10.657121 364.60849,10.395591 C 362.40893,10.159802 360.33343,10.116084 358.10597,9.8810939 C 355.93121,9.6516633 353.73143,9.0758999 351.56474,8.8092252 C 349.71196,8.581185 347.96626,8.0090348 346.10727,7.7802312 C 342.59192,7.3475621 339.07593,7.082172 335.54067,6.7512372 C 333.46064,6.5565256 331.22338,6.7721033 329.23168,7.0084857 C 327.10383,7.2610283 325.18538,8.0465735 323.23233,8.8949747 C 320.69096,9.998944 318.93358,11.686328 316.88463,13.739821 C 315.45976,15.167857 314.61475,16.76281 313.24632,18.24167 C 312.21366,19.357669 310.94033,21.108772 309.95635,22.229022 C 309.15039,23.146606 308.47534,23.998196 307.67273,24.887256 C 306.74864,25.910892 306.07478,26.801558 305.07946,28.188612 C 305.01211,28.28247 304.92464,28.360111 304.84723,28.44586"
       id="path3233"
       transform="translate(-32.375659,-0.3702392)" />
    <path
       style="opacity:1;fill:none;fill-opacity:1;fill-rule:evenodd;stroke:#000000;stroke-width:15;stroke-linecap:butt;stroke-linejoin:miter;marker:none;marker-start:none;marker-mid:none;marker-end:none;stroke-miterlimit:4;stroke-dasharray:none;stroke-dashoffset:0;stroke-opacity:1;visibility:visible;display:inline;overflow:visible;enable-background:accumulate"
       d="M 131.53437,220.22461 C 129.14151,222.2678 129.0993,214.42043 127.77994,211.56391 C 126.14645,208.02727 124.92538,203.79061 124.02551,200.20211 C 123.30211,197.31735 123.14917,194.03943 122.82564,191.11266 C 122.40913,187.34472 122.59341,183.44483 122.59341,179.62223 C 122.59341,175.22707 123.22177,170.20613 124.21904,165.94518 C 125.08248,162.256 125.39278,158.39103 126.30913,154.66912 C 127.32244,150.55346 128.66914,146.52746 129.5991,142.40694 C 130.52757,138.29301 131.40075,134.25097 132.34719,130.14477 C 133.05789,127.06136 134.13166,124.19214 134.97916,121.14107 C 136.09902,117.10947 137.26405,113.19094 138.7723,109.26476 C 140.27627,105.34971 142.04087,101.5522 143.41696,97.602831 C 144.8435,93.508648 146.92498,89.874184 149.06796,85.983774 C 151.28147,81.965307 153.47477,77.948252 156.07365,74.236092 C 158.0589,71.400413 159.94676,68.299393 161.60853,65.27527 C 163.46578,61.895398 165.27684,58.451228 167.25953,55.156829 C 169.56425,51.327355 171.34386,47.176446 173.80076,43.366273 C 175.94317,40.043812 178.18628,37.019719 180.65163,33.976703 C 183.46695,30.501708 186.4797,27.443176 189.55389,24.28701 C 192.47576,21.287226 196.18082,18.602692 199.5399,15.883559 C 202.60758,13.400312 205.65114,11.295918 209.02274,9.2379727 C 212.93394,6.8506779 217.96261,5.8084136 222.22131,4.1787522 C 226.68173,2.471902 232.7367,2.8808073 237.43257,2.2065138 C 240.48693,1.7679278 243.60591,1.4347683 246.72188,1.4347683 C 250.66216,1.4347683 254.66712,2.0432003 258.52705,2.4637623 C 262.71831,2.9204239 266.79297,3.7907414 270.91281,4.3073765 C 273.21804,4.5964576 275.27928,5.3475717 277.41533,6.108116 C 279.82237,6.9651483 282.10499,7.800792 284.3049,8.7663504 C 287.673,10.244634 290.98365,11.947974 294.36833,13.353949 C 297.5399,14.6714 301.02046,16.919701 303.88987,18.756167 C 305.54757,19.817119 306.6704,20.862533 307.64431,21.886024"
       id="path3237"
       transform="translate(-32.375659,-0.3702392)" />
    <g
       id="g3153"
       transform="translate(-15.714286,40)">
      <g
         transform="matrix(0.8660254,0.5,-0.5,0.8660254,224.48761,-80.33834)"
         id="g2172">
        <path
           style="fill:none;fill-rule:evenodd;stroke:#000000;stroke-width:15;stroke-linecap:butt;stroke-linejoin:miter;stroke-miterlimit:4;stroke-dasharray:none;stroke-opacity:1"
           d="M 128.09451,232.4659 C 128.40415,231.7799 130.48682,227.0533 130.79646,226.3673 C 132.61136,222.34651 134.29292,217.85022 136.25393,213.6335 C 138.04269,209.78717 144.18098,195.71159 145.96901,192.88212 C 148.1428,189.4422 159.14396,175.98953 162.34143,172.73099 C 165.35331,169.66157 168.42096,166.5533 170.97275,163.12705 C 173.09462,160.27803 177.28313,155.83763 179.71956,153.29647 C 183.15237,149.71612 185.92042,148.15527 188.74174,144.89114 C 190.95984,142.32491 193.66984,140.72978 196.13449,138.54568 C 197.63443,137.21646 199.56524,137.47381 201.43714,137.47381 C 204.14469,137.47381 205.36901,137.40951 206.73979,137.94543 C 208.12394,138.48658 209.34518,139.70614 210.57163,140.86092 C 211.74549,141.96618 212.20874,144.10196 212.89396,145.62001 C 213.69688,147.39884 213.03307,150.50877 212.66173,152.22272 C 212.24604,154.14133 203.60669,165.94809 202.51771,167.75752 C 201.59014,169.29876 196.9721,176.06765 195.70555,177.70446 C 193.83436,180.12267 192.23576,182.5981 190.63513,185.03604 C 189.0864,187.39493 182.80232,195.39115 181.57805,197.29822 C 180.50107,198.97586 179.9046,200.76312 179.33313,202.52894 C 178.7008,204.48282 175.73899,221.23061 175.11423,224.05206 C 174.53212,226.68092 171.87094,237.23101 171.05016,239.9586 C 170.17662,242.8615 168.86338,245.32253 167.52796,248.06192 C 166.69758,249.76531 165.89208,251.54427 165.63139,253.42127 C 165.42044,254.94012 167.38431,250.90474 168.26336,249.64829 C 170.0619,247.07762 171.99586,244.70083 173.72084,242.05946 C 175.79262,238.88703 177.55182,235.90375 179.29443,232.54126 C 180.97349,229.30138 182.44892,225.92888 184.17132,222.85157 C 185.54417,220.39878 186.72656,217.85831 187.92575,215.39136 C 189.19937,212.77127 194.36444,202.34069 195.58943,199.82783 C 196.99033,196.95414 199.5631,191.04916 201.07102,188.22242 C 202.68806,185.19112 206.86787,177.08543 208.20742,174.4031 C 209.59549,171.62361 214.64415,160.64501 215.63887,158.1107 C 216.43882,156.07262 221.43995,146.48335 222.41233,143.79053 C 223.43349,140.96265 228.37282,131.59181 229.76256,128.88238 C 231.16995,126.13856 236.11326,119.1287 237.76762,116.70499 C 239.21527,114.58411 244.05909,108.11489 245.89449,106.02965 C 247.66773,104.01504 248.26567,103.06611 251.62481,101.81851 C 252.77946,101.38967 254.87492,100.90261 256.1064,100.62037 C 257.69112,100.25718 259.97381,100.81559 261.57593,100.99918 C 262.9659,101.15846 264.33426,102.74859 265.5461,103.44775 C 267.35702,104.49253 268.58907,105.94829 269.56513,107.59011 C 270.4512,109.08057 270.81839,110.8851 271.25612,112.16594 C 271.84093,113.87715 271.34177,116.09869 271.34177,117.56109 C 271.34177,119.29037 270.45789,121.39846 270.45789,123.12774 C 270.45789,125.06626 269.00612,127.20329 268.54926,129.04682 C 267.9199,131.58644 266.89586,132.0735 266.18823,134.52959 C 265.48575,136.96778 260.66763,146.18921 259.37606,148.33526 C 257.99393,150.63178 254.12772,160.03886 253.33801,162.26955 C 252.48265,164.68567 251.17524,166.81108 250.51251,169.25813 C 249.93586,171.38736 247.95111,176.1648 247.18003,178.21473 C 246.45096,180.15298 244.65707,185.56974 244.24222,187.52278 C 243.74204,189.87753 242.63991,192.12467 241.9973,194.76861 C 241.42567,197.12051 239.45634,202.59777 238.80949,204.95208 C 238.08733,207.5805 236.41312,212.19497 235.84313,213.805 C 234.98791,216.22073 234.48242,218.6452 233.55951,220.92221 C 232.77719,222.85234 231.99009,224.68595 231.392,226.7103 C 230.72851,228.956 230.15201,230.96143 229.65025,233.27014 C 229.19901,235.34646 228.13122,237.36597 227.48275,239.40122 C 226.79205,241.56901 226.12903,243.4293 225.23783,245.40369 C 224.37023,247.32579 223.42784,249.27165 222.41233,251.06316 C 220.87214,253.78027 221.26315,253.83297 222.1801,251.3204 C 222.90143,249.34385 224.10658,247.51421 225.31524,245.57519 C 227.01525,242.8479 229.02077,240.30612 230.73401,237.55761 C 231.90266,235.68276 236.20436,228.09883 237.15912,226.0243 C 238.03611,224.11874 244.36075,217.20493 245.55821,215.51999 C 246.72775,213.87433 251.30972,206.82668 252.48649,205.10143 C 253.74055,203.26284 258.83668,195.71183 260.11147,193.86824 C 261.38544,192.02584 267.23707,183.22656 268.85891,180.74857 C 270.04304,178.93934 276.23484,172.57811 277.68375,170.97312 C 279.23094,169.25928 291.0273,150.85002 292.23701,148.67826 C 293.47128,146.46242 298.08813,139.58122 299.01047,138.13107 C 300.19658,136.26621 305.60171,128.89299 306.9838,127.15513 C 308.36589,125.41727 310.20191,124.16249 311.74458,123.25353 C 313.28725,122.34457 314.12555,122.32092 315.69254,122.09591 C 317.25953,121.8709 318.22193,121.59392 319.96029,121.65539 C 321.68961,121.71653 322.44127,121.4815 324.14873,122.5176 C 325.9097,123.58616 326.59436,123.86259 327.66459,125.05898 C 328.92948,126.47299 329.24668,126.9967 330.28831,128.74856 C 331.27396,130.40626 331.54936,132.06072 331.84478,133.84359 C 332.13752,135.61038 331.52308,136.7917 331.52308,138.81706 C 331.52308,140.84241 330.26436,143.57962 329.5491,145.80565 C 328.85624,147.96194 328.05608,149.88247 327.22677,151.85099 C 326.12349,154.46981 324.5831,157.01135 323.12399,159.52557 C 321.65259,162.06095 320.033,164.79025 318.2858,167.2859 C 317.14264,168.91876 313.00089,175.86933 312.05422,177.70446 C 311.22941,179.30336 307.81225,185.01495 307.37086,186.57953 C 306.76648,188.72187 303.86056,195.52351 302.95843,197.04097 C 301.77758,199.02728 298.18863,206.87317 297.19132,208.7029 C 296.05842,210.78138 290.39016,219.66057 289.06317,222.20845 C 287.89712,224.44731 282.90839,232.50635 281.78654,234.47063 C 280.28609,237.09777 272.85111,245.63029 271.33606,248.14767 C 270.28003,249.90234 265.93333,256.95131 264.83354,258.90924 C 263.81281,260.72639 260.9877,268.34648 260.22758,270.27104 C 259.56978,271.93655 259.15553,273.55128 258.75677,275.24451 C 258.34563,276.99033 259.63769,277.00378 260.73075,277.43113 C 262.11833,277.97361 263.99948,279.85393 265.83988,280.64673 C 267.10183,281.19035 269.91737,278.91767 270.35764,278.03608 C 271.00568,276.73844 278.13849,270.06317 279.77302,268.43362 C 281.4011,266.81051 289.49734,259.30985 291.09642,257.61724 C 292.63489,255.9888 305.20755,245.35626 307.58069,243.94077 C 309.46498,242.81686 319.18893,233.91143 320.86466,232.48687 C 322.3661,231.21049 328.85846,227.39382 330.32321,225.80993 C 331.87347,224.13356 333.42678,222.88085 335.08398,221.17946 C 336.53555,219.68918 339.08827,218.31581 340.81239,217.27785 C 342.76305,216.10352 345.51089,213.9354 347.44599,213.16232 C 349.38108,212.38924 350.5773,211.93747 352.16805,211.0398 C 353.7588,210.14213 355.52556,210.45517 357.49445,209.94627 C 359.46333,209.43737 360.21029,210.64117 361.71335,211.01814 C 363.2164,211.39512 364.58294,213.3078 365.54519,213.76212 C 366.50744,214.21644 367.46845,216.94585 367.72412,218.14949 C 367.97978,219.35313 368.24331,221.44838 368.45953,223.44431 C 368.67575,225.44023 367.37948,227.49237 367.15587,229.43262 C 366.93227,231.37287 365.57315,233.07958 364.77108,234.8565 C 363.90293,236.77985 359.65271,243.26408 358.46209,244.93207 C 356.92354,247.08748 349.06428,254.46565 347.16009,256.20813 C 345.12315,258.07207 336.90913,265.30794 335.31621,267.69856 C 333.87258,269.86514 328.42708,277.33477 326.95583,279.06037 C 325.78179,280.43737 320.32649,286.61817 318.78897,288.32131 C 316.76641,290.56174 310.32727,297.78211 308.95778,299.34012 C 307.06638,301.49189 305.13328,303.76708 303.57772,306.15721 C 302.4682,307.862 302.18469,309.4425 301.79727,311.30218 C 301.34117,313.4915 300.99533,315.58864 300.32646,317.73339 C 299.62069,319.99649 299.17551,322.16408 298.39119,324.3361 C 297.73657,326.14894 297.35117,328.22745 296.92038,329.95269 C 296.46616,331.77176 295.56438,333.48156 295.02381,335.18341 C 294.44924,336.99232 293.87635,338.78316 293.32077,340.49988 C 292.72855,342.3298 292.78495,344.06574 292.58536,345.94498 C 292.30869,348.55 292.77751,351.35563 293.04983,353.91968 C 293.2399,355.7093 294.04187,357.38987 294.2497,359.19327 C 294.49723,361.34115 295.63315,363.66139 296.26238,365.79599 C 297.10925,368.66889 297.46225,371.69965 297.46225,374.75681 C 297.46225,377.18679 297.23002,379.5873 297.23002,382.08839 C 297.23002,385.17305 296.30295,388.23425 296.03015,391.30646 C 295.7687,394.25093 295.09085,397.23046 294.13358,399.88141 C 293.12721,402.66837 293.22796,406.03786 292.58536,408.88511 C 291.93944,411.7471 291.4712,414.67623 291.19197,417.46006 C 290.86805,420.68929 290.14792,423.82792 289.75986,427.02113 C 289.38448,430.11004 288.53946,433.33792 287.70847,436.19632 C 286.83884,439.18765 286.36084,442.3252 285.69579,445.32865 C 284.98426,448.54196 283.98476,451.71955 283.10252,454.84684 C 282.4226,457.25694 281.66533,459.6172 280.66408,461.83542 C 279.76142,463.83519 279.12877,465.40152 278.38045,467.45202 C 277.90186,468.76343 277.24928,469.8652 276.6,471.01062"
           id="path2451"
           transform="translate(-32.375659,-0.3702392)"
           sodipodi:nodetypes="csssssssssssssssssssssssssssssssssssssssssssssssssssssssssssssssssssssszzzzzzzzzssssssssssssssssssssssssssssssssssssssssssssssssssssssssssssssc" />
        <path
           style="fill:none;fill-rule:evenodd;stroke:#000000;stroke-width:15;stroke-linecap:butt;stroke-linejoin:miter;stroke-miterlimit:4;stroke-dasharray:none;stroke-opacity:1"
           d="M 130.53319,226.66005 C 129.13585,230.32507 127.90825,232.25622 127.72977,234.5531 C 127.55519,236.79978 124.98502,248.02563 124.09464,250.62112 C 122.93178,254.01094 122.26071,257.41263 120.75564,260.74701 C 119.35937,263.84036 114.31886,274.2984 113.09234,276.7544 C 112.14364,278.65409 106.39945,293.74632 106.39945,297.85443 C 106.39945,302.52505 111.07423,305.37091 113.20182,309.61806 C 114.98818,313.18404 119.67489,326.24408 120.7009,329.14222 C 122.17616,333.30934 124.43175,351.32187 124.91571,355.69993 C 125.35741,359.69566 127.56863,379.3803 127.56863,383.27092 C 127.56863,386.6927 128.47434,396.99766 128.85683,400.38723 C 129.34838,404.74314 130.10254,408.61192 130.55371,412.99911 C 131.03419,417.67125 131.64673,421.79067 131.2653,426.1567 C 130.85198,430.88776 130.17782,448.05375 129.13052,451.86554 C 128.03218,455.86312 127.5469,459.5008 126.33889,463.14347 C 124.4691,468.78175 123.83552,473.85658 120.50183,478.66579 C 118.69179,481.27697 116.34831,485.44667 114.31646,487.96219 C 111.73295,491.16066 107.88626,496.05175 105.42905,499.1601 C 102.47225,502.90044 99.325476,506.93057 96.677805,510.77997 C 94.668039,513.70193 88.801071,520.54723 86.983044,522.59798 C 84.747244,525.11999 78.791837,532.44666 76.566065,534.71228 C 74.548922,536.76554 72.534846,540.04048 70.760267,541.71854 C 68.735399,543.63328 71.496409,544.94151 75.268514,550.15242 C 79.677773,556.24352 80.171744,556.86996 82.986546,560.9462 C 87.265084,567.14214 87.597921,567.26958 89.811721,570.7316 C 91.12641,572.78756 92.93749,573.87974 95.271144,576.36057 C 98.633662,579.93516 98.575746,580.04575 99.298415,581.01607 C 100.15066,582.16037 219.44763,577.82509 219.98398,579.60748"
           id="path3223"
           transform="translate(-32.375659,-0.3702392)"
           sodipodi:nodetypes="cssssssssssssssssssssssssssc" />
        <path
           style="fill:none;fill-rule:evenodd;stroke:#000000;stroke-width:15;stroke-linecap:butt;stroke-linejoin:miter;stroke-miterlimit:4;stroke-dasharray:none;stroke-opacity:1"
           d="M 276.8766,469.24191 C 278.40225,471.29037 274.81633,480.21371 273.8573,482.05508 C 272.31534,485.01572 270.697,486.70201 268.87616,489.45244 C 265.84471,494.03152 261.6839,497.38777 259.13283,502.30685 C 256.9877,506.4432 254.65989,510.51618 251.8527,514.19113 C 248.56373,518.4968 246.3989,523.82343 243.25887,528.25823 C 240.29617,532.44257 239.23101,538.1553 237.45666,542.8104 C 235.31163,548.43798 232.46721,553.77086 230.34074,559.42413 C 228.82751,563.44708 226.77272,567.39417 224.64801,570.88397 C 223.19309,573.27364 221.94564,575.45798 220.15951,577.79625 C 219.19441,579.05969 218.76523,579.07043 217.97,579.79717"
           id="path3225"
           transform="translate(-32.375659,-0.3702392)"
           sodipodi:nodetypes="csssssssssc" />
      </g>
      <path
         transform="translate(30.200938,-6.4354709)"
         id="path2180"
         d="M 75.714286,313.34798 C 77.989237,322.44778 87.142857,297.01356 87.142857,287.63369 C 87.142857,277.87664 88.309915,268.53924 84.285714,260.49084 C 80.685256,253.28992 81.566086,243.69177 78.571429,236.20512 C 75.397347,228.26992 71.483478,220.71046 70,214.77655 C 68.442621,208.54704 70,199.80721 70,193.34798 C 70,187.14459 76.039397,189.06226 84.285714,189.06226 C 92.697076,189.06226 95.77189,194.84856 101.42857,201.91941 C 104.8866,206.24195 107.16364,210.51162 111.42857,214.77655"
         style="fill:none;fill-opacity:0.75;fill-rule:evenodd;stroke:#000000;stroke-width:11.69999981;stroke-linecap:butt;stroke-linejoin:miter;stroke-miterlimit:4;stroke-dasharray:none;stroke-opacity:1" />
    </g>
    <path
       style="fill:none;fill-opacity:0.75;fill-rule:evenodd;stroke:#000000;stroke-width:12.1;stroke-linecap:butt;stroke-linejoin:miter;stroke-opacity:1;stroke-miterlimit:4;stroke-dasharray:none"
       d="M 372.85714,293.34798 C 379.45157,286.23886 390.43085,277.74707 401.42857,273.34798 C 405.11459,271.87357 408.45494,271.91941 412.85714,271.91941"
       id="path3161"
       transform="translate(30.200938,-6.4354709)" />
    <path
       style="fill:none;fill-opacity:0.75;fill-rule:evenodd;stroke:#000000;stroke-width:12.1;stroke-linecap:butt;stroke-linejoin:miter;stroke-opacity:1;stroke-miterlimit:4;stroke-dasharray:none"
       d="M 372.85714,300.49084 C 377.00862,298.83024 391.45184,295.4792 398.57143,291.91941 C 401.83494,290.28765 410.5193,291.91941 414.28571,291.91941"
       id="path3163"
       transform="translate(30.200938,-6.4354709)" />
    <path
       style="fill:none;fill-opacity:0.75;fill-rule:evenodd;stroke:#000000;stroke-width:12.1;stroke-linecap:butt;stroke-linejoin:miter;stroke-opacity:1;stroke-miterlimit:4;stroke-dasharray:none"
       d="M 292.85714,400.49084 C 293.59892,400.11995 310.48311,400.01291 314.28571,399.06226 C 321.59418,397.23515 329.67009,395.02398 335.71429,390.49084 C 336.56612,389.85196 337.61905,389.53846 338.57143,389.06226"
       id="path3165"
       transform="translate(30.200938,-6.4354709)" />
    <path
       style="fill:none;fill-opacity:0.75;fill-rule:evenodd;stroke:#000000;stroke-width:12.1;stroke-linecap:butt;stroke-linejoin:miter;stroke-opacity:1;stroke-miterlimit:4;stroke-dasharray:none"
       d="M 258.57143,469.06226 C 265.93971,463.53605 274.58026,459.62928 284.28571,454.77655 C 290.05892,451.88995 296.15229,449.37089 301.42857,446.20512 C 306.55683,443.12817 319.61252,440.49084 325.71429,440.49084 C 334.64015,440.49084 337.59748,442.14672 342.85714,444.77655 C 345.11175,445.90385 346.10079,449.10141 347.14286,450.49084"
       id="path3167"
       transform="translate(30.200938,-6.4354709)" />
    <path
       style="fill:none;fill-opacity:0.75;fill-rule:evenodd;stroke:#000000;stroke-width:12.8;stroke-linecap:butt;stroke-linejoin:miter;stroke-opacity:1;stroke-miterlimit:4;stroke-dasharray:none"
       d="M 440,181.91941 C 444.71404,172.49132 437.45356,204.46585 430,211.91941 C 423.07004,218.84936 415.79293,220.45151 407.14286,224.77655 C 401.47488,227.61054 390.38632,226.20512 382.85714,226.20512"
       id="path4140"
       transform="translate(30.200938,-6.4354709)" />
    <path
       style="fill:none;fill-opacity:0.75;fill-rule:evenodd;stroke:#000000;stroke-width:15.2;stroke-linecap:butt;stroke-linejoin:miter;stroke-opacity:1;stroke-miterlimit:4;stroke-dasharray:none"
       d="M 361.42857,494.77655 C 355.26078,497.59938 346.43457,502.27355 338.57143,506.20512 C 332.62111,509.18028 328.69697,510.45945 322.85714,511.91941 C 316.23494,513.57496 311.04315,514.77655 304.28571,514.77655 C 296.7207,514.77655 286.39368,517.63369 277.14286,517.63369 C 267.35079,517.63369 262.08919,511.91941 252.85714,511.91941 C 245.53854,511.91941 238.13063,503.23778 232.85714,501.91941 C 226.51546,500.33399 218.63531,490.55472 214.28571,486.20512 C 208.5383,480.4577 205.74638,479.09436 200,473.34798 C 196.87613,470.2241 198.95939,471.26677 197.14286,467.63369"
       id="path5111"
       transform="translate(30.200938,-6.4354709)" />
  </g>
</svg>
