<?xml version="1.0" encoding="UTF-8" standalone="no"?>
<!-- Created with Inkscape (http://www.inkscape.org/) -->

<svg
   xmlns:dc="http://purl.org/dc/elements/1.1/"
   xmlns:cc="http://creativecommons.org/ns#"
   xmlns:rdf="http://www.w3.org/1999/02/22-rdf-syntax-ns#"
   xmlns:svg="http://www.w3.org/2000/svg"
   xmlns="http://www.w3.org/2000/svg"
   xmlns:sodipodi="http://sodipodi.sourceforge.net/DTD/sodipodi-0.dtd"
   xmlns:inkscape="http://www.inkscape.org/namespaces/inkscape"
   width="462.2616"
   height="594.77655"
   id="svg2"
   sodipodi:version="0.32"
   inkscape:version="0.92.3 (2405546, 2018-03-11)"
   sodipodi:docname="facepalm.svg"
   inkscape:output_extension="org.inkscape.output.svg.inkscape"
   version="1.0"
   sodipodi:modified="true">
  <defs
     id="defs4">
    <inkscape:perspective
       sodipodi:type="inkscape:persp3d"
       inkscape:vp_x="0 : 526.18109 : 1"
       inkscape:vp_y="0 : 1000 : 0"
       inkscape:vp_z="744.09448 : 526.18109 : 1"
       inkscape:persp3d-origin="372.04724 : 350.78739 : 1"
       id="perspective10" />
    <inkscape:perspective
       id="perspective2487"
       inkscape:persp3d-origin="372.04724 : 350.78739 : 1"
       inkscape:vp_z="744.09448 : 526.18109 : 1"
       inkscape:vp_y="0 : 1000 : 0"
       inkscape:vp_x="0 : 526.18109 : 1"
       sodipodi:type="inkscape:persp3d" />
    <inkscape:perspective
       id="perspective2445"
       inkscape:persp3d-origin="372.04724 : 350.78739 : 1"
       inkscape:vp_z="744.09448 : 526.18109 : 1"
       inkscape:vp_y="0 : 1000 : 0"
       inkscape:vp_x="0 : 526.18109 : 1"
       sodipodi:type="inkscape:persp3d" />
  </defs>
  <sodipodi:namedview
     id="base"
     pagecolor="#ffffff"
     bordercolor="#666666"
     borderopacity="1.0"
     gridtolerance="10000"
     guidetolerance="10"
     objecttolerance="10"
     inkscape:pageopacity="0.0"
     inkscape:pageshadow="2"
     inkscape:zoom="1.2401557"
     inkscape:cx="165.88125"
     inkscape:cy="313.08968"
     inkscape:document-units="px"
     inkscape:current-layer="layer1"
     showgrid="false"
     inkscape:window-width="1496"
     inkscape:window-height="925"
     inkscape:window-x="223"
     inkscape:window-y="34"
     showguides="true"
     inkscape:guide-bbox="true"
     inkscape:window-maximized="0" />
  <metadata
     id="metadata7">
    <rdf:RDF>
      <cc:Work
         rdf:about="">
        <dc:format>image/svg+xml</dc:format>
        <dc:type
           rdf:resource="http://purl.org/dc/dcmitype/StillImage" />
      </cc:Work>
      <cc:Work
         rdf:about="">
        <dc:format>image/svg+xml</dc:format>
        <dc:type
           rdf:resource="http://purl.org/dc/dcmitype/StillImage" />
      </cc:Work>
    </rdf:RDF>
  </metadata>
  <g
     inkscape:label="Layer 1"
     inkscape:groupmode="layer"
     id="layer1"
     transform="translate(-30.200938,6.4354709)">
    <path
       style="fill:none;fill-rule:evenodd;stroke:#000000;stroke-width:15;stroke-linecap:butt;stroke-linejoin:miter;stroke-miterlimit:4;stroke-dasharray:none;stroke-opacity:1"
       d="M 420.09839,492.24078 C 421.16991,490.4764 425.55974,488.70053 428.22654,487.35306 C 431.3941,485.75257 434.53354,483.02197 437.36103,480.87897 C 440.28244,478.6648 442.31226,476.01779 444.2119,472.86139 C 446.30698,469.38026 448.93525,465.9799 451.21759,462.70008 C 453.40444,459.5575 455.49561,456.70656 457.48788,453.39626 C 459.38781,450.23939 461.25278,447.12002 462.59701,443.62081 C 464.14345,439.5952 466.26219,435.88409 468.2093,432.00176 C 469.75883,428.91216 470.50921,426.65078 470.95739,423.34106 C 471.54507,419.00116 473.04313,413.94352 474.16994,409.66401 C 476.16719,402.07869 481.81076,397.69586 486.16864,391.39937 C 487.69863,389.18878 488.25475,386.16799 489.45861,383.59617 C 490.72632,380.88793 492.33136,378.09909 493.71621,375.27846 C 495.78918,371.05629 498.83747,367.30223 500.64449,363.14491 C 502.40406,359.09677 504.5264,354.74939 505.90844,350.49686 C 506.9764,347.21073 507.20655,343.6702 507.84371,340.24979 C 508.57672,336.31488 509.57885,332.52628 510.5918,328.75936 C 512.00549,323.50218 512.99154,318.31529 512.99154,312.85283 C 512.99154,307.93728 514.73329,303.19751 514.73329,298.27541 C 514.73329,293.28947 516.70021,288.49459 517.21044,283.56938 C 517.59867,279.82175 516.9782,275.98581 516.9782,272.25044 C 516.9782,267.49941 516.2368,262.7829 515.73963,258.10177 C 515.24551,253.44934 515.11241,248.78703 514.73329,244.16748 C 514.40024,240.10933 514.18498,236.01669 513.76565,231.99105 C 513.49816,229.42311 513.34944,226.90497 512.48837,224.4451 C 511.92693,222.84122 511.6145,221.22226 511.24979,219.47163 C 511.10745,218.78837 510.91639,218.108 510.74662,217.41364"
       id="path3231"
       transform="translate(-32.375659,-0.3702392)" />
    <path
       style="opacity:1;fill:none;fill-opacity:1;fill-rule:evenodd;stroke:#000000;stroke-width:15;stroke-linecap:butt;stroke-linejoin:miter;marker:none;marker-start:none;marker-mid:none;marker-end:none;stroke-miterlimit:4;stroke-dasharray:none;stroke-dashoffset:0;stroke-opacity:1;visibility:visible;display:inline;overflow:visible;enable-background:accumulate"
       d="M 511.92155,220.95348 C 511.36389,218.27668 510.99997,215.85243 510.37333,213.23603 C 509.728,210.54165 508.69202,207.917 507.50912,205.38995 C 506.2411,202.68107 506.50278,198.79797 506.50278,195.82888 C 506.50278,193.73712 506.78144,191.50111 507.00595,189.44054 C 507.19081,187.74385 506.90351,186.03776 506.54148,184.46707 C 506.0686,182.41542 505.4436,180.4863 504.79974,178.42173 C 504.05543,176.03507 503.26826,173.84183 502.70964,171.60465 C 501.81661,168.02821 500.80438,164.49541 500.03896,160.84309 C 499.40055,157.79678 497.84882,154.67044 496.59418,151.83939 C 494.83415,147.86796 493.81269,143.55605 491.98822,139.57721 C 490.35623,136.01812 488.86536,132.56156 486.95651,129.11577 C 485.11115,125.78458 483.61617,122.30138 481.57645,119.12595 C 479.90475,116.52347 478.06052,114.14855 476.23509,111.58 C 473.80557,108.16141 471.77895,104.65411 469.80998,100.98994 C 467.53203,96.750743 465.49435,92.497392 462.8817,88.38476 C 461.15813,85.671638 459.51851,82.803512 457.9274,80.024184 C 456.33929,77.250097 453.40901,74.513056 451.34747,71.920856 C 448.16852,67.923619 445.60546,63.446802 443.02579,59.058431 C 441.64726,56.713359 439.92508,54.775747 438.03278,53.098841 C 436.08291,51.370913 433.69038,50.01258 431.7625,48.168245 C 428.86005,45.391579 425.48732,43.142526 422.5893,40.407915 C 419.31827,37.321336 415.18812,34.887681 411.63565,32.133089 C 409.9288,30.809591 408.51113,29.2665 406.99099,27.759864 C 404.5834,25.373661 401.82885,23.682718 398.97896,21.928898 C 395.81284,19.980472 392.5748,18.779321 389.38,16.826803 C 386.92483,15.326319 383.09069,14.714437 380.2068,13.782696 C 377.44032,12.88889 374.68684,12.279567 371.96253,11.510334 C 369.55523,10.830611 367.04817,10.657121 364.60849,10.395591 C 362.40893,10.159802 360.33343,10.116084 358.10597,9.8810939 C 355.93121,9.6516633 353.73143,9.0758999 351.56474,8.8092252 C 349.71196,8.581185 347.96626,8.0090348 346.10727,7.7802312 C 342.59192,7.3475621 339.07593,7.082172 335.54067,6.7512372 C 333.46064,6.5565256 331.22338,6.7721033 329.23168,7.0084857 C 327.10383,7.2610283 325.18538,8.0465735 323.23233,8.8949747 C 320.69096,9.998944 318.93358,11.686328 316.88463,13.739821 C 315.45976,15.167857 314.61475,16.76281 313.24632,18.24167 C 312.21366,19.357669 310.94033,21.108772 309.95635,22.229022 C 309.15039,23.146606 308.47534,23.998196 307.67273,24.887256 C 306.74864,25.910892 306.07478,26.801558 305.07946,28.188612 C 305.01211,28.28247 304.92464,28.360111 304.84723,28.44586"
       id="path3233"
       transform="translate(-32.375659,-0.3702392)" />
    <path
       style="opacity:1;fill:none;fill-opacity:1;fill-rule:evenodd;stroke:#000000;stroke-width:15;stroke-linecap:butt;stroke-linejoin:miter;marker:none;marker-start:none;marker-mid:none;marker-end:none;stroke-miterlimit:4;stroke-dasharray:none;stroke-dashoffset:0;stroke-opacity:1;visibility:visible;display:inline;overflow:visible;enable-background:accumulate"
       d="M 131.53437,220.22461 C 129.14151,222.2678 129.0993,214.42043 127.77994,211.56391 C 126.14645,208.02727 124.92538,203.79061 124.02551,200.20211 C 123.30211,197.31735 123.14917,194.03943 122.82564,191.11266 C 122.40913,187.34472 122.59341,183.44483 122.59341,179.62223 C 122.59341,175.22707 123.22177,170.20613 124.21904,165.94518 C 125.08248,162.256 125.39278,158.39103 126.30913,154.66912 C 127.32244,150.55346 128.66914,146.52746 129.5991,142.40694 C 130.52757,138.29301 131.40075,134.25097 132.34719,130.14477 C 133.05789,127.06136 134.13166,124.19214 134.97916,121.14107 C 136.09902,117.10947 137.26405,113.19094 138.7723,109.26476 C 140.27627,105.34971 142.04087,101.5522 143.41696,97.602831 C 144.8435,93.508648 146.92498,89.874184 149.06796,85.983774 C 151.28147,81.965307 153.47477,77.948252 156.07365,74.236092 C 158.0589,71.400413 159.94676,68.299393 161.60853,65.27527 C 163.46578,61.895398 165.27684,58.451228 167.25953,55.156829 C 169.56425,51.327355 171.34386,47.176446 173.80076,43.366273 C 175.94317,40.043812 178.18628,37.019719 180.65163,33.976703 C 183.46695,30.501708 186.4797,27.443176 189.55389,24.28701 C 192.47576,21.287226 196.18082,18.602692 199.5399,15.883559 C 202.60758,13.400312 205.65114,11.295918 209.02274,9.2379727 C 212.93394,6.8506779 217.96261,5.8084136 222.22131,4.1787522 C 226.68173,2.471902 232.7367,2.8808073 237.43257,2.2065138 C 240.48693,1.7679278 243.60591,1.4347683 246.72188,1.4347683 C 250.66216,1.4347683 254.66712,2.0432003 258.52705,2.4637623 C 262.71831,2.9204239 266.79297,3.7907414 270.91281,4.3073765 C 273.21804,4.5964576 275.27928,5.3475717 277.41533,6.108116 C 279.82237,6.9651483 282.10499,7.800792 284.3049,8.7663504 C 287.673,10.244634 290.98365,11.947974 294.36833,13.353949 C 297.5399,14.6714 301.02046,16.919701 303.88987,18.756167 C 305.54757,19.817119 306.6704,20.862533 307.64431,21.886024"
       id="path3237"
       transform="translate(-32.375659,-0.3702392)" />
    <g
       id="g3153"
       transform="translate(-15.714286,40)">
      <g
         transform="matrix(0.8660254,0.5,-0.5,0.8660254,224.48761,-80.33834)"
         id="g2172">
        <path
           style="fill:none;fill-rule:evenodd;stroke:#000000;stroke-width:15;stroke-linecap:butt;stroke-linejoin:miter;stroke-miterlimit:4;stroke-dasharray:none;stroke-opacity:1"
           d="M 128.09451,232.4659 C 128.40415,231.7799 130.48682,227.0533 130.79646,226.3673 C 132.61136,222.34651 134.29292,217.85022 136.25393,213.6335 C 138.04269,209.78717 144.18098,195.71159 145.96901,192.88212 C 148.1428,189.4422 159.14396,175.98953 162.34143,172.73099 C 165.35331,169.66157 168.42096,166.5533 170.97275,163.12705 C 173.09462,160.27803 177.28313,155.83763 179.71956,153.29647 C 183.15237,149.71612 185.92042,148.15527 188.74174,144.89114 C 190.95984,142.32491 193.66984,140.72978 196.13449,138.54568 C 197.63443,137.21646 199.56524,137.47381 201.43714,137.47381 C 204.14469,137.47381 205.36901,137.40951 206.73979,137.94543 C 208.12394,138.48658 209.34518,139.70614 210.57163,140.86092 C 211.74549,141.96618 212.20874,144.10196 212.89396,145.62001 C 213.69688,147.39884 213.03307,150.50877 212.66173,152.22272 C 212.24604,154.14133 203.60669,165.94809 202.51771,167.75752 C 201.59014,169.29876 196.9721,176.06765 195.70555,177.70446 C 193.83436,180.12267 192.23576,182.5981 190.63513,185.03604 C 189.0864,187.39493 182.80232,195.39115 181.57805,197.29822 C 180.50107,198.97586 179.9046,200.76312 179.33313,202.52894 C 178.7008,204.48282 175.73899,221.23061 175.11423,224.05206 C 174.53212,226.68092 171.87094,237.23101 171.05016,239.9586 C 170.17662,242.8615 168.86338,245.32253 167.52796,248.06192 C 166.69758,249.76531 165.89208,251.54427 165.63139,253.42127 C 165.42044,254.94012 167.38431,250.90474 168.26336,249.64829 C 170.0619,247.07762 171.99586,244.70083 173.72084,242.05946 C 175.79262,238.88703 177.55182,235.90375 179.29443,232.54126 C 180.97349,229.30138 182.44892,225.92888 184.17132,222.85157 C 185.54417,220.39878 186.72656,217.85831 187.92575,215.39136 C 189.19937,212.77127 194.36444,202.34069 195.58943,199.82783 C 196.99033,196.95414 199.5631,191.04916 201.07102,188.22242 C 202.68806,185.19112 206.86787,177.08543 208.20742,174.4031 C 209.59549,171.62361 214.64415,160.64501 215.63887,158.1107 C 216.43882,156.07262 221.43995,146.48335 222.41233,143.79053 C 223.43349,140.96265 228.37282,131.59181 229.76256,128.88238 C 231.16995,126.13856 236.11326,119.1287 237.76762,116.70499 C 239.21527,114.58411 244.05909,108.11489 245.89449,106.02965 C 247.66773,104.01504 248.26567,103.06611 251.62481,101.81851 C 252.77946,101.38967 254.87492,100.90261 256.1064,100.62037 C 257.69112,100.25718 259.97381,100.81559 261.57593,100.99918 C 262.9659,101.15846 264.33426,102.74859 265.5461,103.44775 C 267.35702,104.49253 268.58907,105.94829 269.56513,107.59011 C 270.4512,109.08057 270.81839,110.8851 271.25612,112.16594 C 271.84093,113.87715 271.34177,116.09869 271.34177,117.56109 C 271.34177,119.29037 270.45789,121.39846 270.45789,123.12774 C 270.45789,125.06626 269.00612,127.20329 268.54926,129.04682 C 267.9199,131.58644 266.89586,132.0735 266.18823,134.52959 C 265.48575,136.96778 260.66763,146.18921 259.37606,148.33526 C 257.99393,150.63178 254.12772,160.03886 253.33801,162.26955 C 252.48265,164.68567 251.17524,166.81108 250.51251,169.25813 C 249.93586,171.38736 247.95111,176.1648 247.18003,178.21473 C 246.45096,180.15298 244.65707,185.56974 244.24222,187.52278 C 243.74204,189.87753 242.63991,192.12467 241.9973,194.76861 C 241.42567,197.12051 239.45634,202.59777 238.80949,204.95208 C 238.08733,207.5805 236.41312,212.19497 235.84313,213.805 C 234.98791,216.22073 234.48242,218.6452 233.55951,220.92221 C 232.77719,222.85234 231.99009,224.68595 231.392,226.7103 C 230.72851,228.956 230.15201,230.96143 229.65025,233.27014 C 229.19901,235.34646 228.13122,237.36597 227.48275,239.40122 C 226.79205,241.56901 226.12903,243.4293 225.23783,245.40369 C 224.37023,247.32579 223.42784,249.27165 222.41233,251.06316 C 220.87214,253.78027 221.26315,253.83297 222.1801,251.3204 C 222.90143,249.34385 224.10658,247.51421 225.31524,245.57519 C 227.01525,242.8479 229.02077,240.30612 230.73401,237.55761 C 231.90266,235.68276 236.20436,228.09883 237.15912,226.0243 C 238.03611,224.11874 244.36075,217.20493 245.55821,215.51999 C 246.72775,213.87433 251.30972,206.82668 252.48649,205.10143 C 253.74055,203.26284 258.83668,195.71183 260.11147,193.86824 C 261.38544,192.02584 267.23707,183.22656 268.85891,180.74857 C 270.04304,178.93934 276.23484,172.57811 277.68375,170.97312 C 279.23094,169.25928 291.0273,150.85002 292.23701,148.67826 C 293.47128,146.46242 298.08813,139.58122 299.01047,138.13107 C 300.19658,136.26621 305.60171,128.89299 306.9838,127.15513 C 308.36589,125.41727 310.20191,124.16249 311.74458,123.25353 C 313.28725,122.34457 314.12555,122.32092 315.69254,122.09591 C 317.25953,121.8709 318.22193,121.59392 319.96029,121.65539 C 321.68961,121.71653 322.44127,121.4815 324.14873,122.5176 C 325.9097,123.58616 326.59436,123.86259 327.66459,125.05898 C 328.92948,126.47299 329.24668,126.9967 330.28831,128.74856 C 331.27396,130.40626 331.54936,132.06072 331.84478,133.84359 C 332.13752,135.61038 331.52308,136.7917 331.52308,138.81706 C 331.52308,140.84241 330.26436,143.57962 329.5491,145.80565 C 328.85624,147.96194 328.05608,149.88247 327.22677,151.85099 C 326.12349,154.46981 324.5831,157.01135 323.12399,159.52557 C 321.65259,162.06095 320.033,164.79025 318.2858,167.2859 C 317.14264,168.91876 313.00089,175.86933 312.05422,177.70446 C 311.22941,179.30336 307.81225,185.01495 307.37086,186.57953 C 306.76648,188.72187 303.86056,195.52351 302.95843,197.04097 C 301.77758,199.02728 298.18863,206.87317 297.19132,208.7029 C 296.05842,210.78138 290.39016,219.66057 289.06317,222.20845 C 287.89712,224.44731 282.90839,232.50635 281.78654,234.47063 C 280.28609,237.09777 272.85111,245.63029 271.33606,248.14767 C 270.28003,249.90234 265.93333,256.95131 264.83354,258.90924 C 263.81281,260.72639 260.9877,268.34648 260.22758,270.27104 C 259.56978,271.93655 259.15553,273.55128 258.75677,275.24451 C 258.34563,276.99033 259.63769,277.00378 260.73075,277.43113 C 262.11833,277.97361 263.99948,279.85393 265.83988,280.64673 C 267.10183,281.19035 269.91737,278.91767 270.35764,278.03608 C 271.00568,276.73844 278.13849,270.06317 279.77302,268.43362 C 281.4011,266.81051 289.49734,259.30985 291.09642,257.61724 C 292.63489,255.9888 305.20755,245.35626 307.58069,243.94077 C 309.46498,242.81686 319.18893,233.91143 320.86466,232.48687 C 322.3661,231.21049 328.85846,227.39382 330.32321,225.80993 C 331.87347,224.13356 333.42678,222.88085 335.08398,221.17946 C 336.53555,219.68918 339.08827,218.31581 340.81239,217.27785 C 342.76305,216.10352 345.51089,213.9354 347.44599,213.16232 C 349.38108,212.38924 350.5773,211.93747 352.16805,211.0398 C 353.7588,210.14213 355.52556,210.45517 357.49445,209.94627 C 359.46333,209.43737 360.21029,210.64117 361.71335,211.01814 C 363.2164,211.39512 364.58294,213.3078 365.54519,213.76212 C 366.50744,214.21644 367.46845,216.94585 367.72412,218.14949 C 367.97978,219.35313 368.24331,221.44838 368.45953,223.44431 C 368.67575,225.44023 367.37948,227.49237 367.15587,229.43262 C 366.93227,231.37287 365.57315,233.07958 364.77108,234.8565 C 363.90293,236.77985 359.65271,243.26408 358.46209,244.93207 C 356.92354,247.08748 349.06428,254.46565 347.16009,256.20813 C 345.12315,258.07207 336.90913,265.30794 335.31621,267.69856 C 333.87258,269.86514 328.42708,277.33477 326.95583,279.06037 C 325.78179,280.43737 320.32649,286.61817 318.78897,288.32131 C 316.76641,290.56174 310.32727,297.78211 308.95778,299.34012 C 307.06638,301.49189 305.13328,303.76708 303.57772,306.15721 C 302.4682,307.862 302.18469,309.4425 301.79727,311.30218 C 301.34117,313.4915 300.99533,315.58864 300.32646,317.73339 C 299.62069,319.99649 299.17551,322.16408 298.39119,324.3361 C 297.73657,326.14894 297.35117,328.22745 296.92038,329.95269 C 296.46616,331.77176 295.56438,333.48156 295.02381,335.18341 C 294.44924,336.99232 293.87635,338.78316 293.32077,340.49988 C 292.72855,342.3298 292.78495,344.06574 292.58536,345.94498 C 292.30869,348.55 292.77751,351.35563 293.04983,353.91968 C 293.2399,355.7093 294.04187,357.38987 294.2497,359.19327 C 294.49723,361.34115 295.63315,363.66139 296.26238,365.79599 C 297.10925,368.66889 297.46225,371.69965 297.46225,374.75681 C 297.46225,377.18679 297.23002,379.5873 297.23002,382.08839 C 297.23002,385.17305 296.30295,388.23425 296.03015,391.30646 C 295.7687,394.25093 295.09085,397.23046 294.13358,399.88141 C 293.12721,402.66837 293.22796,406.03786 292.58536,408.88511 C 291.93944,411.7471 291.4712,414.67623 291.19197,417.46006 C 290.86805,420.68929 290.14792,423.82792 289.75986,427.02113 C 289.38448,430.11004 288.53946,433.33792 287.70847,436.19632 C 286.83884,439.18765 286.36084,442.3252 285.69579,445.32865 C 284.98426,448.54196 283.98476,451.71955 283.10252,454.84684 C 282.4226,457.25694 281.66533,459.6172 280.66408,461.83542 C 279.76142,463.83519 279.12877,465.40152 278.38045,467.45202 C 277.90186,468.76343 277.24928,469.8652 276.6,471.01062"
           id="path2451"
           transform="translate(-32.375659,-0.3702392)"
           sodipodi:nodetypes="csssssssssssssssssssssssssssssssssssssssssssssssssssssssssssssssssssssszzzzzzzzzssssssssssssssssssssssssssssssssssssssssssssssssssssssssssssssc" />
        <path
           style="fill:none;fill-rule:evenodd;stroke:#000000;stroke-width:15;stroke-linecap:butt;stroke-linejoin:miter;stroke-miterlimit:4;stroke-dasharray:none;stroke-opacity:1"
           d="M 130.53319,226.66005 C 129.13585,230.32507 127.90825,232.25622 127.72977,234.5531 C 127.55519,236.79978 124.98502,248.02563 124.09464,250.62112 C 122.93178,254.01094 122.26071,257.41263 120.75564,260.74701 C 119.35937,263.84036 114.31886,274.2984 113.09234,276.7544 C 112.14364,278.65409 106.39945,293.74632 106.39945,297.85443 C 106.39945,302.52505 111.07423,305.37091 113.20182,309.61806 C 114.98818,313.18404 119.67489,326.24408 120.7009,329.14222 C 122.17616,333.30934 124.43175,351.32187 124.91571,355.69993 C 125.35741,359.69566 127.56863,379.3803 127.56863,383.27092 C 127.56863,386.6927 128.47434,396.99766 128.85683,400.38723 C 129.34838,404.74314 130.10254,408.61192 130.55371,412.99911 C 131.03419,417.67125 131.64673,421.79067 131.2653,426.1567 C 130.85198,430.88776 130.17782,448.05375 129.13052,451.86554 C 128.03218,455.86312 127.5469,459.5008 126.33889,463.14347 C 124.4691,468.78175 123.83552,473.85658 120.50183,478.66579 C 118.69179,481.27697 116.34831,485.44667 114.31646,487.96219 C 111.73295,491.16066 107.88626,496.05175 105.42905,499.1601 C 102.47225,502.90044 99.325476,506.93057 96.677805,510.77997 C 94.668039,513.70193 88.801071,520.54723 86.983044,522.59798 C 84.747244,525.11999 78.791837,532.44666 76.566065,534.71228 C 74.548922,536.76554 72.534846,540.04048 70.760267,541.71854 C 68.735399,543.63328 71.496409,544.94151 75.268514,550.15242 C 79.677773,556.24352 80.171744,556.86996 82.986546,560.9462 C 87.265084,567.14214 87.597921,567.26958 89.811721,570.7316 C 91.12641,572.78756 92.93749,573.87974 95.271144,576.36057 C 98.633662,579.93516 98.575746,580.04575 99.298415,581.01607 C 100.15066,582.16037 219.44763,577.82509 219.98398,579.60748"
           id="path3223"
           transform="translate(-32.375659,-0.3702392)"
           sodipodi:nodetypes="cssssssssssssssssssssssssssc" />
        <path
           style="fill:none;fill-rule:evenodd;stroke:#000000;stroke-width:15;stroke-linecap:butt;stroke-linejoin:miter;stroke-miterlimit:4;stroke-dasharray:none;stroke-opacity:1"
           d="M 276.8766,469.24191 C 278.40225,471.29037 274.81633,480.21371 273.8573,482.05508 C 272.31534,485.01572 270.697,486.70201 268.87616,489.45244 C 265.84471,494.03152 261.6839,497.38777 259.13283,502.30685 C 256.9877,506.4432 254.65989,510.51618 251.8527,514.19113 C 248.56373,518.4968 246.3989,523.82343 243.25887,528.25823 C 240.29617,532.44257 239.23101,538.1553 237.45666,542.8104 C 235.31163,548.43798 232.46721,553.77086 230.34074,559.42413 C 228.82751,563.44708 226.77272,567.39417 224.64801,570.88397 C 223.19309,573.27364 221.94564,575.45798 220.15951,577.79625 C 219.19441,579.05969 218.76523,579.07043 217.97,579.79717"
           id="path3225"
           transform="translate(-32.375659,-0.3702392)"
           sodipodi:nodetypes="csssssssssc" />
      </g>
      <path
         transform="translate(30.200938,-6.4354709)"
         id="path2180"
         d="M 75.714286,313.34798 C 77.989237,322.44778 87.142857,297.01356 87.142857,287.63369 C 87.142857,277.87664 88.309915,268.53924 84.285714,260.49084 C 80.685256,253.28992 81.566086,243.69177 78.571429,236.20512 C 75.397347,228.26992 71.483478,220.71046 70,214.77655 C 68.442621,208.54704 70,199.80721 70,193.34798 C 70,187.14459 76.039397,189.06226 84.285714,189.06226 C 92.697076,189.06226 95.77189,194.84856 101.42857,201.91941 C 104.8866,206.24195 107.16364,210.51162 111.42857,214.77655"
         style="fill:none;fill-opacity:0.75;fill-rule:evenodd;stroke:#000000;stroke-width:11.69999981;stroke-linecap:butt;stroke-linejoin:miter;stroke-miterlimit:4;stroke-dasharray:none;stroke-opacity:1" />
    </g>
    <path
       style="fill:none;fill-opacity:0.75;fill-rule:evenodd;stroke:#000000;stroke-width:12.1;stroke-linecap:butt;stroke-linejoin:miter;stroke-opacity:1;stroke-miterlimit:4;stroke-dasharray:none"
       d="M 372.85714,293.34798 C 379.45157,286.23886 390.43085,277.74707 401.42857,273.34798 C 405.11459,271.87357 408.45494,271.91941 412.85714,271.91941"
       id="path3161"
       transform="translate(30.200938,-6.4354709)" />
    <path
       style="fill:none;fill-opacity:0.75;fill-rule:evenodd;stroke:#000000;stroke-width:12.1;stroke-linecap:butt;stroke-linejoin:miter;stroke-opacity:1;stroke-miterlimit:4;stroke-dasharray:none"
       d="M 372.85714,300.49084 C 377.00862,298.83024 391.45184,295.4792 398.57143,291.91941 C 401.83494,290.28765 410.5193,291.91941 414.28571,291.91941"
       id="path3163"
       transform="translate(30.200938,-6.4354709)" />
    <path
       style="fill:none;fill-opacity:0.75;fill-rule:evenodd;stroke:#000000;stroke-width:12.1;stroke-linecap:butt;stroke-linejoin:miter;stroke-opacity:1;stroke-miterlimit:4;stroke-dasharray:none"
       d="M 292.85714,400.49084 C 293.59892,400.11995 310.48311,400.01291 314.28571,399.06226 C 321.59418,397.23515 329.67009,395.02398 335.71429,390.49084 C 336.56612,389.85196 337.61905,389.53846 338.57143,389.06226"
       id="path3165"
       transform="translate(30.200938,-6.4354709)" />
    <path
       style="fill:none;fill-opacity:0.75;fill-rule:evenodd;stroke:#000000;stroke-width:12.1;stroke-linecap:butt;stroke-linejoin:miter;stroke-opacity:1;stroke-miterlimit:4;stroke-dasharray:none"
       d="M 258.57143,469.06226 C 265.93971,463.53605 274.58026,459.62928 284.28571,454.77655 C 290.05892,451.88995 296.15229,449.37089 301.42857,446.20512 C 306.55683,443.12817 319.61252,440.49084 325.71429,440.49084 C 334.64015,440.49084 337.59748,442.14672 342.85714,444.77655 C 345.11175,445.90385 346.10079,449.10141 347.14286,450.49084"
       id="path3167"
       transform="translate(30.200938,-6.4354709)" />
    <path
       style="fill:none;fill-opacity:0.75;fill-rule:evenodd;stroke:#000000;stroke-width:12.8;stroke-linecap:butt;stroke-linejoin:miter;stroke-opacity:1;stroke-miterlimit:4;stroke-dasharray:none"
       d="M 440,181.91941 C 444.71404,172.49132 437.45356,204.46585 430,211.91941 C 423.07004,218.84936 415.79293,220.45151 407.14286,224.77655 C 401.47488,227.61054 390.38632,226.20512 382.85714,226.20512"
       id="path4140"
       transform="translate(30.200938,-6.4354709)" />
    <path
       style="fill:none;fill-opacity:0.75;fill-rule:evenodd;stroke:#000000;stroke-width:15.2;stroke-linecap:butt;stroke-linejoin:miter;stroke-opacity:1;stroke-miterlimit:4;stroke-dasharray:none"
       d="M 361.42857,494.77655 C 355.26078,497.59938 346.43457,502.27355 338.57143,506.20512 C 332.62111,509.18028 328.69697,510.45945 322.85714,511.91941 C 316.23494,513.57496 311.04315,514.77655 304.28571,514.77655 C 296.7207,514.77655 286.39368,517.63369 277.14286,517.63369 C 267.35079,517.63369 262.08919,511.91941 252.85714,511.91941 C 245.53854,511.91941 238.13063,503.23778 232.85714,501.91941 C 226.51546,500.33399 218.63531,490.55472 214.28571,486.20512 C 208.5383,480.4577 205.74638,479.09436 200,473.34798 C 196.87613,470.2241 198.95939,471.26677 197.14286,467.63369"
       id="path5111"
       transform="translate(30.200938,-6.4354709)" />
    <path
       style="fill:#f9f9f9;stroke-width:0.80635035"
       d="M 43.503651,547.46185 C 39.482374,545.10967 18.43663,533.46151 -3.2646729,521.57707 -24.965976,509.69262 -43.671156,499.30668 -44.83174,498.4972 c -1.737212,-1.21165 -2.339271,-2.65129 -3.406534,-8.14566 -0.713009,-3.67065 -1.684162,-11.39105 -2.158118,-17.15645 -0.473955,-5.76541 -1.03826,-11.07459 -1.254011,-11.79818 -0.453087,-1.51958 -1.323341,-1.11927 14.682499,-6.75373 6.712467,-2.36295 17.5971,-6.5533 24.188073,-9.31188 6.5909728,-2.75858 14.3432591,-5.90317 17.2273027,-6.988 12.6406613,-4.75474 19.2713833,-8.99179 29.2812213,-18.71078 7.610681,-7.38954 11.110911,-11.60324 17.429029,-20.9817 8.450947,-12.54438 11.496508,-18.07316 15.442384,-28.03342 1.368255,-3.45379 5.868271,-13.35534 10.000026,-22.00344 19.658838,-41.14756 24.957908,-57.54054 24.831018,-76.81623 l -0.0519,-7.87326 5.35918,-4.85688 c 2.94757,-2.67127 9.7135,-7.81317 15.03541,-11.42642 7.25179,-4.92353 12.40367,-9.33087 20.56193,-17.59041 14.88391,-15.06866 37.15833,-31.63779 48.68987,-36.21861 18.83154,-7.48068 53.0553,-17.7743 59.1019,-17.77632 3.44111,-10e-4 5.40345,1.95214 4.20705,4.18764 -0.86643,1.61894 -25.11582,13.85597 -40.41358,20.39401 -10.48914,4.4829 -13.28653,6.58717 -21.56237,16.21979 -10.74717,12.5091 -18.2998,20.15148 -23.41331,23.69153 -8.14891,5.64144 -10.19819,8.94181 -8.76813,14.12108 0.93481,3.38559 3.40078,5.24553 6.95471,5.24553 5.54275,0 24.2555,-10.76958 57.87014,-33.30549 17.73126,-11.88738 36.59294,-24.70717 41.91485,-28.48841 19.79606,-14.0652 28.5369,-19.16519 42.04134,-24.52972 6.82814,-2.71243 9.93415,-2.63794 11.98314,0.2874 2.18584,3.12072 1.5179,6.43764 -2.13117,10.5832 -3.42379,3.88963 -11.35778,10.05755 -19.23612,14.95424 -10.46076,6.50178 -24.94617,18.25767 -42.75127,34.69557 -6.00474,5.54366 -13.44721,12.2523 -16.53882,14.90809 -3.09161,2.65579 -8.6672,7.67197 -12.3902,11.14706 -3.72299,3.47509 -9.21471,7.92954 -12.20381,9.89877 -7.99606,5.26783 -9.66751,10.63985 -4.71022,15.13857 2.12157,1.92532 3.04838,2.24059 5.58602,1.90022 1.67334,-0.22444 4.61545,-1.48749 6.53802,-2.80677 1.92256,-1.31929 6.21701,-3.75655 9.5432,-5.41612 3.3262,-1.65958 8.09074,-4.24736 10.58787,-5.75064 2.49713,-1.50326 6.85142,-3.60865 9.6762,-4.67864 2.82478,-1.06999 13.84455,-6.18894 24.48838,-11.37545 10.64382,-5.18651 22.46096,-10.45273 26.26031,-11.70272 3.79933,-1.24999 16.9408,-7.37967 29.20327,-13.62152 22.42588,-11.41524 24.96453,-12.327 29.0894,-10.44759 6.97166,3.1765 -1.01896,13.57988 -16.9954,22.1271 -13.84889,7.40901 -24.08193,13.53551 -28.85276,17.27409 -11.28684,8.8447 -37.87347,24.28593 -49.99373,29.0358 -9.67268,3.79069 -20.39069,9.99013 -28.05522,16.22753 -10.51771,8.5593 -11.37352,11.84337 -5.54429,21.27569 2.44951,3.96358 3.60881,5.05302 6.41359,6.02707 3.0787,1.06919 3.93009,1.04994 8.45079,-0.19116 13.91372,-3.8198 36.04731,-8.80605 45.36412,-10.21962 5.75472,-0.87312 13.11757,-2.14897 16.36189,-2.83523 3.24431,-0.68625 7.41717,-1.2531 9.27303,-1.25966 1.85585,-0.006 5.55142,-0.5123 8.21237,-1.12388 10.87743,-2.50002 23.77441,-2.27437 25.483,0.44587 1.77047,2.81879 -2.67944,8.1674 -10.37611,12.47162 -5.84298,3.26758 -8.78946,4.21436 -23.53065,7.56098 -6.00429,1.36312 -14.1968,3.91402 -18.51051,5.7636 -4.25634,1.82499 -15.09449,5.8041 -24.08479,8.84247 -8.99029,3.03837 -17.15459,5.95643 -18.14288,6.48457 -0.98829,0.52815 -8.59767,7.52173 -16.90972,15.54131 -11.20453,10.81026 -15.71439,15.72794 -17.439,19.01597 -2.35043,4.48117 -5.16997,12.55507 -6.195,17.7397 -1.15091,5.82131 -7.64954,16.00561 -15.69331,24.59369 -2.49231,2.66096 -5.41431,5.9694 -6.49333,7.3521 -14.52585,18.61393 -31.65601,36.83388 -40.46439,43.03868 l -3.82945,2.69755 1.5848,2.68603 1.5848,2.68604 h -2.39186 c -1.71147,0 -2.39185,-0.38905 -2.39185,-1.36771 0,-1.05533 -0.59853,-0.79847 -2.62064,1.12468 -2.96119,2.81624 -8.41438,5.70506 -16.47913,8.72976 -3.02166,1.13329 -8.66607,3.86025 -12.54313,6.05993 -3.87707,2.19967 -7.32815,3.9994 -7.66906,3.9994 -1.78341,0 -21.379255,11.98443 -25.571092,15.63878 -10.204726,8.89624 -30.846554,23.36191 -32.860132,23.02819 -0.125613,-0.0208 -3.518526,-1.96237 -7.539795,-4.31455 z"
       id="path25"
       inkscape:connector-curvature="0"
       transform="translate(30.200938,-6.4354709)" />
    <path
       style="fill:#f9f9f9;stroke-width:0.80635035"
       d="m 266.91695,507.05237 c -4.43492,-1.52046 -9.44224,-2.77535 -11.12736,-2.78864 -3.41917,-0.0269 -5.39553,-0.90777 -11.85362,-5.28285 -2.43921,-1.65245 -6.04946,-3.7034 -8.02278,-4.55764 -2.31625,-1.00269 -7.17461,-5.04488 -13.70796,-11.40511 -5.56605,-5.41858 -11.66225,-11.08546 -13.54709,-12.59309 -1.88484,-1.50763 -3.43254,-3.13399 -3.43933,-3.61412 -0.0379,-2.67645 -1.37476,-3.03673 -4.79452,-1.2921 -1.87711,0.95763 -3.55664,1.59743 -3.73228,1.42178 -0.4471,-0.4471 10.25779,-13.79887 15.3501,-19.14555 10.88402,-11.42769 17.97819,-23.17021 20.59907,-34.09627 2.42893,-10.12589 5.37074,-15.38848 11.36588,-20.33238 2.68897,-2.21746 8.48642,-7.71964 12.88323,-12.22707 l 7.99419,-8.19532 15.12737,-5.00113 c 8.32005,-2.75061 18.80638,-6.58334 23.30295,-8.51717 5.01553,-2.15702 13.55462,-4.80735 22.09204,-6.85684 11.06904,-2.65724 15.58321,-4.17398 22.06256,-7.4129 14.52885,-7.26275 21.2819,-16.21325 20.49025,-27.15778 -0.50766,-7.01829 -3.69744,-11.82996 -9.89411,-14.9249 -4.45233,-2.22372 -5.58306,-2.42312 -15.32066,-2.70176 -7.68058,-0.21978 -11.81721,0.0343 -15.35165,0.94287 -2.66095,0.68405 -7.19668,1.47306 -10.07938,1.75336 -2.8827,0.28031 -8.86985,1.18807 -13.30478,2.01726 -4.43493,0.82918 -12.05494,2.09765 -16.93336,2.81882 -7.39303,1.0929 -28.26917,5.63784 -33.7661,7.35122 -0.96359,0.30034 -1.31746,0.15638 -0.97553,-0.39687 0.87156,-1.41022 13.49775,-8.01574 20.80578,-10.88475 12.31461,-4.83451 33.67752,-17.50593 57.88195,-34.3327 2.43921,-1.69573 9.3335,-5.70941 15.32066,-8.9193 23.03534,-12.34993 32.48735,-21.54103 33.64026,-32.71163 0.54196,-5.25105 -0.75337,-10.71554 -3.53723,-14.92224 -2.54935,-3.85232 -10.51078,-8.06271 -16.29714,-8.6187 -6.13313,-0.58932 -11.63606,1.51457 -34.63348,13.24109 -11.74145,5.98704 -24.51639,11.92088 -28.38876,13.18631 -3.87238,1.26543 -10.7495,4.16197 -15.28252,6.43674 -4.53302,2.27477 -8.37685,4.00095 -8.54185,3.83594 -1.2116,-1.21159 21.58677,-19.58234 37.5613,-30.26659 12.98833,-8.687 20.96391,-16.0748 24.56427,-22.75396 2.03592,-3.7769 2.39173,-5.32828 2.40375,-10.48072 0.0117,-5.02144 -0.35484,-6.75211 -2.16029,-10.19938 -5.36174,-10.23757 -17.3699,-14.30218 -29.26006,-9.90415 -8.38617,3.10194 -23.96282,10.78693 -29.79374,14.69922 l -5.62063,3.7712 -2.13098,-4.69444 c -2.18525,-4.81402 -4.08923,-6.61056 -10.38281,-9.79692 -4.41638,-2.23596 -9.6773,-1.96229 -23.01327,1.19713 -9.87299,2.33901 -41.40659,12.69918 -52.00654,17.08644 -12.27552,5.08075 -37.9501,24.06396 -50.88614,37.62406 -7.2731,7.62396 -11.87268,11.563 -20.66012,17.69313 -6.21724,4.33716 -11.951128,8.60074 -12.741978,9.47462 -0.790849,0.87388 -1.684661,1.58887 -1.986247,1.58887 -0.301586,0 -2.951999,-3.21881 -5.889806,-7.1529 -8.800141,-11.78449 -14.863974,-16.23126 -22.133752,-16.23126 -2.912583,0 -5.179817,-2.10846 -3.118006,-2.89965 1.753702,-0.67296 5.399091,0.30486 7.20504,1.93264 1.398835,1.26083 1.444369,1.2079 0.921179,-1.07076 -0.302718,-1.31844 -1.670089,-5.66288 -3.038602,-9.65431 -2.229493,-6.50259 -2.521778,-8.47285 -2.811088,-18.94924 -0.360326,-13.04799 0.318829,-17.6162 6.293699,-42.33339 7.275533,-30.09785 15.033468,-49.87981 25.750631,-65.661533 1.6858,-2.482454 6.31659,-10.344703 10.29064,-17.471665 9.00271,-16.145231 11.1382,-19.250284 18.73457,-27.240546 9.04912,-9.518337 20.26436,-17.592579 28.00521,-20.161933 11.02012,-3.657813 26.47633,-4.58484 41.15637,-2.468462 10.27888,1.481876 14.083,2.616428 24.73638,7.377458 8.81867,3.941089 15.04358,7.679191 20.8537,12.522795 l 3.83704,3.198743 1.58465,-1.895129 c 0.87155,-1.042322 3.68061,-4.47846 6.24233,-7.635863 7.02785,-8.662003 8.7374,-9.606853 17.10235,-9.45227 3.79927,0.07021 9.82536,0.683195 13.39132,1.362189 3.56595,0.678993 9.37167,1.488941 12.9016,1.799883 15.06417,1.326963 30.85318,7.870652 42.11579,17.454715 2.98437,2.539588 7.96613,6.639943 11.07058,9.1119 19.2276,15.310213 19.65642,15.717488 23.83788,22.640106 2.23545,3.700889 5.81671,8.825951 7.95836,11.389026 4.26049,5.09884 6.37916,8.48027 14.78908,23.603546 3.08279,5.54365 7.51876,12.80081 9.85773,16.127 8.08547,11.49818 18.0319,33.97361 22.65643,51.1956 l 2.59626,9.66856 -2.03621,6.45845 c -4.67773,14.83688 -7.29311,17.71384 -22.05207,24.25761 l -8.04987,3.56913 h -9.65973 -9.65972 v 6.94364 6.94365 l 11.49049,-0.33121 11.4905,-0.3312 8.0635,-3.56252 c 10.60833,-4.68684 16.30532,-8.04398 20.40951,-12.02695 l 3.36296,-3.26365 1.22703,2.9367 c 0.67487,1.61519 1.44162,4.42368 1.70391,6.24111 0.26228,1.81742 0.9762,5.32445 1.58647,7.7934 1.00453,4.06388 2.19046,16.61406 4.36922,46.23757 0.6032,8.20136 0.52334,11.62178 -0.37653,16.12701 -1.24993,6.25775 -2.56231,16.22265 -3.62038,27.48942 -0.37483,3.99143 -1.47551,10.34144 -2.44592,14.11113 -0.97043,3.76969 -2.25386,9.63211 -2.85206,13.02761 -1.2495,7.09243 -4.57825,15.38435 -9.66055,24.06451 -1.94751,3.32619 -5.37278,9.85763 -7.61168,14.5143 -2.23891,4.65668 -6.0733,11.00669 -8.52088,14.11113 -5.08643,6.45155 -7.00892,11.00174 -9.74191,23.05738 -2.08295,9.18821 -9.17175,25.38068 -14.77622,33.75232 -11.09153,16.56788 -15.58172,22.46271 -19.14751,25.13728 -3.95106,2.96356 -9.14046,5.91015 -9.14046,5.19003 0,-0.21638 -6.84415,2.98289 -15.20921,7.10949 -17.15294,8.46177 -24.31506,10.66748 -38.41309,11.83001 -4.87842,0.40227 -12.67986,1.27659 -17.33653,1.94292 -11.21014,1.60407 -11.25331,1.60073 -20.56194,-1.59061 z m 3.52434,-37.88564 c 2.49655,-1.45974 12.34061,-6.47439 21.8757,-11.14366 13.74429,-6.73047 18.74164,-8.77376 24.11773,-9.8611 11.45642,-2.31712 21.80385,-0.5275 24.33901,4.20948 0.56833,1.06193 1.49751,1.75267 2.06485,1.53495 1.87415,-0.71917 9.14834,-6.44117 9.14834,-7.19623 0,-0.40735 -0.74322,-1.94318 -1.65158,-3.41295 -1.98209,-3.20708 -9.24172,-7.06451 -15.91115,-8.45445 -5.83072,-1.21513 -16.35136,-0.54592 -24.43969,1.55461 -6.57043,1.70632 -41.57822,18.51854 -50.6014,24.30092 l -5.1148,3.27776 1.9477,2.59363 c 1.07123,1.42651 2.80465,3.77092 3.85203,5.20982 1.83824,2.52538 1.97254,2.5715 3.86922,1.32874 1.08068,-0.70809 4.0075,-2.48178 6.50404,-3.94152 z m 50.90431,-65.45565 c 8.26226,-2.37146 20.09704,-7.87136 20.14045,-9.35974 0.0161,-0.55197 -4.63629,-10.24114 -5.24522,-10.92381 -0.12886,-0.14447 -2.89801,1.18543 -6.15365,2.95534 -8.75642,4.76035 -15.76614,6.54473 -28.01105,7.13044 -5.75422,0.27524 -10.87896,0.758 -11.38831,1.07279 -0.64658,0.39961 -0.14405,2.12715 1.66508,5.72395 1.42512,2.83339 2.99792,5.43772 3.49508,5.78741 1.72034,1.21002 18.40967,-0.35197 25.49762,-2.38638 z m 67.38956,-101.51401 c 12.75362,-4.19244 14.05846,-4.46557 19.89787,-4.16509 l 6.24922,0.32155 v -6.21665 -6.21667 l -2.51985,-0.50396 c -5.9183,-1.18366 -13.56762,-0.54107 -18.55694,1.55891 -2.69566,1.13459 -5.08293,1.88115 -5.30505,1.65902 -0.53931,-0.5393 7.73603,-5.79294 12.94531,-8.2184 2.54172,-1.18344 5.65543,-1.94162 7.99366,-1.94643 l 3.83017,-0.008 v -6.55915 -6.55914 l -5.44287,0.39247 c -3.49315,0.25189 -7.49102,1.2543 -11.16053,2.79836 -6.62974,2.78965 -18.17071,10.5345 -24.43896,16.40034 l -4.35341,4.07394 2.13408,2.22751 c 1.57234,1.64117 1.8969,2.46471 1.23299,3.12862 -0.66392,0.66392 -0.31151,2.40391 1.33877,6.61022 1.23194,3.14 2.29996,5.7091 2.37338,5.7091 0.0734,0 6.27539,-2.019 13.78216,-4.48667 z"
       id="path27"
       inkscape:connector-curvature="0"
       transform="translate(30.200938,-6.4354709)" />
    <path
       style="fill:#f9f9f9;stroke-width:0.80635035"
       d="m 76.644285,305.27262 c -0.30615,-1.66309 -1.236759,-4.57384 -2.06802,-6.46831 -0.83126,-1.89447 -2.273029,-7.69865 -3.203931,-12.89816 -1.30685,-7.29936 -2.724386,-11.84322 -6.220525,-19.93967 l -4.527977,-10.48599 -0.34885,-10.28097 -0.348851,-10.28097 h 4.463411 c 7.699801,0 8.387101,0.49735 17.848589,12.91566 5.717011,7.50364 5.818204,7.71806 4.548542,9.63803 -1.021176,1.54421 -1.260748,3.78033 -1.121573,10.46851 0.219841,10.56467 -1.908528,23.63064 -5.424392,33.30012 -1.410989,3.88056 -2.672163,7.05557 -2.80261,7.05557 -0.130447,0 -0.487663,-1.36072 -0.793813,-3.02382 z"
       id="path29"
       inkscape:connector-curvature="0"
       transform="translate(30.200938,-6.4354709)" />
  </g>
</svg>
