<?xml version="1.0" encoding="UTF-8" standalone="no"?>
<!-- Creator: CorelDRAW -->

<svg
   xmlns:dc="http://purl.org/dc/elements/1.1/"
   xmlns:cc="http://creativecommons.org/ns#"
   xmlns:rdf="http://www.w3.org/1999/02/22-rdf-syntax-ns#"
   xmlns:svg="http://www.w3.org/2000/svg"
   xmlns="http://www.w3.org/2000/svg"
   xmlns:sodipodi="http://sodipodi.sourceforge.net/DTD/sodipodi-0.dtd"
   xmlns:inkscape="http://www.inkscape.org/namespaces/inkscape"
   xml:space="preserve"
   width="8.5in"
   height="11in"
   style="shape-rendering:geometricPrecision; text-rendering:geometricPrecision; image-rendering:optimizeQuality; fill-rule:evenodd"
   viewBox="0 0 8500 11000"
   version="1.1"
   id="svg9"
   sodipodi:docname="n.svg"
   inkscape:version="0.92.3 (2405546, 2018-03-11)"><metadata
   id="metadata13"><rdf:RDF><cc:Work
       rdf:about=""><dc:format>image/svg+xml</dc:format><dc:type
         rdf:resource="http://purl.org/dc/dcmitype/StillImage" /></cc:Work></rdf:RDF></metadata><sodipodi:namedview
   pagecolor="#ffffff"
   bordercolor="#666666"
   borderopacity="1"
   objecttolerance="10"
   gridtolerance="10"
   guidetolerance="10"
   inkscape:pageopacity="0"
   inkscape:pageshadow="2"
   inkscape:window-width="1265"
   inkscape:window-height="842"
   id="namedview11"
   showgrid="false"
   inkscape:zoom="0.22348485"
   inkscape:cx="408"
   inkscape:cy="528"
   inkscape:window-x="390"
   inkscape:window-y="88"
   inkscape:window-maximized="0"
   inkscape:current-layer="svg9" />
 <defs
   id="defs4">
  <style
   type="text/css"
   id="style2">
   <![CDATA[
    .str0 {stroke:#000000;stroke-width:3}
    .fil0 {fill:#000000}
   ]]>
  </style>
 </defs>
 <g
   id="Layer 1">
  <path
   class="fil0 str0"
   d="M824 2025l1133 0c520,-598 1085,-1036 1692,-1314 191,-15 334,-23 425,-23 259,0 552,47 881,137l272 -137 326 0c744,0 1117,267 1117,798 0,31 -5,75 -15,138 546,44 821,305 821,780 0,51 -5,121 -16,212 203,57 355,148 459,275 104,124 156,285 156,477 0,155 -55,323 -166,500 272,292 409,619 409,979 0,415 -225,749 -676,1003 -451,251 -1047,378 -1791,378l-189 0c60,456 200,897 417,1322l122 212c262,501 394,889 394,1161 0,754 -396,1226 -1192,1413l-220 54 -381 -1687 -1405 -1495c-96,-112 -261,-327 -500,-645l-212 -280c-228,-309 -389,-498 -482,-565 -94,-70 -244,-104 -451,-104l-889 0c-272,-580 -409,-1179 -409,-1790 0,-596 124,-1198 370,-1799zm252 394c-159,461 -236,902 -236,1322 0,495 85,982 259,1464 637,0 1036,39 1197,114 163,75 407,342 731,795 129,179 326,431 583,752l1526 1625 303 1404c508,-171 762,-495 762,-972 0,-246 -85,-515 -259,-803l-98 -168c-397,-659 -594,-1286 -594,-1884l-8 -213 275 0c803,0 1410,-80 1814,-238 407,-161 609,-402 609,-726 0,-293 -106,-541 -316,-743 -210,-203 -467,-304 -770,-304l-464 -5 -1376 620c208,313 487,471 837,471 91,0 208,-21 348,-59 142,-42 308,-104 502,-184l358 -16 357 381 -616 8c-179,75 -340,132 -487,166 -146,36 -280,54 -402,54 -648,0 -1122,-329 -1420,-987l259 -122c-319,-156 -565,-430 -736,-819l295 -127c-233,-148 -448,-399 -645,-754l469 -218c-256,-189 -464,-453 -622,-798l933 -417c-150,-31 -280,-47 -386,-47l-295 8c-674,389 -1221,863 -1641,1420l-1046 0zm3461 1101c177,236 389,387 638,454l1132 -508 402 0c381,0 669,54 865,161 65,-91 99,-179 99,-259 0,-156 -78,-273 -231,-353 -155,-78 -386,-116 -694,-116l-806 0 -1405 621zm-318 -888c23,31 44,57 59,75 122,142 267,254 433,334l1164 -516 1228 8 23 -98c0,-298 -295,-449 -889,-449l-570 0 -1448 646zm-161 -1024c36,44 62,80 83,106 96,138 218,259 365,371l1086 -485 700 0 0 -46c0,-340 -246,-508 -739,-508l-248 0 -1247 562z"
   id="path6" />
 </g>
<path
   style="fill:#f9f9f9;stroke-width:4.47457647"
   d="m 522.54915,943.84452 c 0,-1.14451 -6.07522,-30.57348 -13.50049,-65.39776 l -13.50049,-63.31683 -25.65205,-27.93222 c -14.10863,-15.36275 -48.96648,-52.88462 -77.4619,-83.38194 -28.49542,-30.49733 -68.59877,-77.59882 -89.11856,-104.67001 -44.58457,-58.8192 -64.98727,-81.21502 -82.22259,-90.2549 -8.12156,-4.25974 -31.52395,-7.65754 -63.63304,-9.23891 l -50.78713,-2.50127 -4.50399,-13.88381 C 78.83796,411.3479 78.566797,307.12774 101.55332,246.66862 l 4.63874,-12.20082 h 47.49624 47.49624 l 43.22468,-43.90573 c 41.9839,-42.64539 101.90476,-87.48159 124.48924,-93.149938 6.11414,-1.534551 19.28991,-1.024797 29.27948,1.132786 l 18.16287,3.922882 -40.86193,17.45045 c -22.47406,9.59775 -40.86193,18.76794 -40.86193,20.3782 0,5.79804 28.01916,47.49201 41.24476,61.37434 l 13.51494,14.18604 -20.66814,10.50384 -20.66814,10.50384 11.78572,17.81859 c 6.48214,9.80023 19.91129,26.29644 29.84253,36.65824 l 18.05682,18.83965 -11.94408,4.54113 c -6.56924,2.49762 -11.94407,6.21031 -11.94407,8.25041 0,8.34612 26.60002,44.6243 44.56359,60.77763 18.88429,16.98127 19.25768,20.74832 2.63397,26.57339 -6.26576,2.19558 17.61701,40.72433 36.84555,59.4409 25.62975,24.94733 47.79437,34.38858 85.99079,36.62864 23.68684,1.38914 41.4573,-0.32937 60.40678,-5.84164 14.7661,-4.29538 38.92881,-8.59543 53.69491,-9.55568 14.7661,-0.96025 31.68412,-2.80741 37.59566,-4.10482 10.49395,-2.30312 10.28226,-2.83382 -8.94915,-22.43818 -18.50349,-18.86228 -20.78217,-19.90736 -37.59566,-17.24293 -9.84407,1.55999 -34.49138,7.92198 -54.77177,14.13775 -45.59709,13.97514 -68.68286,11.80384 -95.90834,-9.02054 -10.25816,-7.84632 -19.37043,-16.45288 -20.24951,-19.1257 -0.87906,-2.67282 28.15947,-18.12629 64.53006,-34.34105 l 66.12837,-29.48138 38.92542,3.39275 c 45.32056,3.95015 67.24352,15.46012 87.36762,45.86971 16.53705,24.98913 17.58643,65.86973 2.24306,87.38065 -21.86359,30.65207 -82.27591,47.98756 -185.58695,53.25468 -70.90314,3.61487 -65.11949,-2.36164 -56.67247,58.56222 6.40894,46.22439 21.47595,88.29986 50.18855,140.15429 29.80779,53.83246 33.05074,61.44403 36.78343,86.33561 5.52364,36.83404 -14.38885,75.97007 -47.16011,92.68874 -17.88484,9.12415 -22.29194,10.47382 -22.29194,6.82695 z"
   id="path3718"
   inkscape:connector-curvature="0"
   transform="scale(10.416667)" /><path
   style="fill:#f9f9f9;stroke-width:4.47457647"
   d="m 466.004,363.11186 c -11.96796,-7.9983 -21.75993,-17.14234 -21.75993,-20.32008 0,-3.17774 29.07197,-18.78282 64.60437,-34.67796 l 64.60438,-28.90026 h 43.29336 c 90.93733,0 124.22386,16.27527 114.28406,55.87857 -2.4394,9.71933 -3.39382,9.94267 -19.3878,4.53671 -9.25216,-3.12722 -35.95091,-7.03944 -59.33058,-8.69382 l -42.50847,-3.00797 -55.18012,24.8636 c -30.34907,13.67497 -57.80795,24.86359 -61.01974,24.86359 -3.21178,0 -15.63157,-6.54407 -27.59953,-14.54238 z"
   id="path3720"
   inkscape:connector-curvature="0"
   transform="scale(10.416667)" /><path
   style="fill:#f9f9f9;stroke-width:4.47457647"
   d="m 428.39933,271.80339 c -9.9593,-8.99762 -16.50917,-17.7091 -14.55527,-19.35883 1.9539,-1.64973 32.11727,-15.64629 67.0297,-31.10346 l 63.47716,-28.10394 53.06174,1.59837 c 41.72897,1.25699 55.69853,3.3265 65.4076,9.68973 12.17093,7.97672 21.64138,24.51491 17.7869,31.06118 -1.08679,1.84576 -27.18139,3.35593 -57.98798,3.35593 h -56.01199 l -56.2377,24.61017 c -30.93073,13.5356 -57.95324,24.61017 -60.05002,24.61017 -2.09678,0 -11.96085,-7.36169 -21.92014,-16.35932 z"
   id="path3722"
   inkscape:connector-curvature="0"
   transform="scale(10.416667)" /><path
   style="fill:#f9f9f9;stroke-width:4.47457647"
   d="m 423.62054,189.71659 c -3.95988,-2.31434 -12.40939,-11.03803 -18.77668,-19.38597 l -11.57689,-15.17808 57.46352,-25.73632 c 56.29164,-25.21146 58.15709,-25.70129 91.47302,-24.01891 29.08005,1.46848 35.56654,3.32632 44.75187,12.81767 5.90831,6.10515 12.09166,15.63078 13.74079,21.16807 2.91124,9.77509 2.07726,10.0678 -28.68528,10.0678 -28.37378,0 -36.90467,2.33724 -81.66074,22.37288 -53.13215,23.7853 -55.54191,24.43146 -66.72961,17.89286 z"
   id="path3724"
   inkscape:connector-curvature="0"
   transform="scale(10.416667)" /></svg>