<?xml version="1.0"?>
<svg xmlns:rdf="http://www.w3.org/1999/02/22-rdf-syntax-ns#" xmlns="http://www.w3.org/2000/svg" xmlns:cc="http://creativecommons.org/ns#" xmlns:dc="http://purl.org/dc/elements/1.1/" xmlns:svg="http://www.w3.org/2000/svg" id="Layer_1" xml:space="preserve" viewBox="0 0 215.25001 239.24392" version="1.1" y="0px" x="0px" enable-background="new 0 0 266.667 254.667">
<polygon id="polygon2911" points="176.22 133.37 150.47 148.12 130.97 129.62 133.97 112.87 152.22 135.62 173.72 124.62" transform="translate(-31.966 -7.8781)" fill="#fb8b00"/>
<polygon id="polygon2913" points="218.72 72.371 180.22 95.121 208.22 153.62 247.22 130.37" transform="translate(-31.966 -7.8781)"/>
<polygon id="polygon2915" points="225.97 105.12 212.72 115.37 220.47 122.62 231.47 112.87" transform="translate(-31.966 -7.8781)"/>
<polygon id="polygon2917" points="217.47 147.87 223.22 112.37 181.97 99.371 208.22 153.62" transform="translate(-31.966 -7.8781)"/>
<polygon id="polygon2919" points="201.22 131.87 198.97 126.87 185.22 131.62 177.47 111.37 187.72 106.12 184.47 101.12 171.47 108.37 183.47 138.62" transform="translate(-31.966 -7.8781)"/>
<path id="path2921" d="m138.5 117.74s10.5-17.251 13.25-9.25 7.75 0.5 5 5.75c0 0 11.5 4-12.5 11.25l-5.75-7.75z" fill="#fdd99b"/>
<polygon id="polygon2923" points="37.966 247.12 67.966 217.12 54.299 201.79 79.299 182.79 63.633 179.12 31.966 201.12 50.299 218.12" transform="translate(-31.966 -7.8781)" fill="#333"/>
<polygon id="polygon2925" points="174.63 204.12 155.63 176.79 129.3 195.79 110.3 178.46 96.633 181.12 127.3 212.79 149.97 196.46" transform="translate(-31.966 -7.8781)"/>
<polygon id="polygon2927" points="71.299 101.46 59.633 183.46 124.97 185.12 138.3 106.46" transform="translate(-31.966 -7.8781)" fill="#f44800"/>
<polygon id="polygon2929" points="80.299 124.12 74.299 101.79 96.966 102.79" transform="translate(-31.966 -7.8781)" fill="#fb8b00"/>
<polygon id="polygon2931" points="52.633 158.12 103.63 145.79 96.633 125.46 107.3 119.12 116.97 152.46 57.299 170.79" transform="translate(-31.966 -7.8781)" fill="#fb8a00"/>
<polygon id="polygon2933" points="70.633 103.79 137.63 109.46 147.3 45.122 82.299 32.788 54.633 62.455 72.299 71.455" transform="translate(-31.966 -7.8781)" fill="#fdd99b"/>
<path id="path2935" d="m24.25 148.99-16 5.25s-8.5 6 4 4.25-9.75 9.25-0.5 5.75c0 0-2.5 12.25 15.5-3.5l-3-11.75z" fill="#fdd99b"/>
<path id="path2937" d="m77.75 67.743 10.5 3.75 15.25-30.499 11 2.5 13.5-12.75s-22-10.25-37.25-10.75-12.75-3-21-13.75c0 0-12.5-15.001-25.75 1.5l-4.25 4.75 12.5 3.5-7.75 14 45.25 8.25-12 29.499z"/>
<polygon id="polygon2939" points="69.716 99.371 70.716 79.371 96.466 74.121 95.466 93.121" transform="translate(-31.966 -7.8781)" fill="#fff"/>
<g id="g2941" transform="translate(-31.966 -7.8781)">
	<polygon id="polygon2943" points="96.461 84.592 72.711 90.592 72.711 90.592 72.221 88.652 95.971 82.652"/>
</g>
<g id="g2945" transform="translate(-31.966 -7.8781)">
	<polygon id="polygon2947" points="79.964 81.182 79.214 93.432 79.214 93.432 77.218 93.31 77.968 81.06"/>
</g>
<ellipse id="ellipse2949" rx="7" transform="translate(-31.966 -7.8781)" ry="6.5" cy="54.122" cx="91.216"/>
<metadata><rdf:RDF><cc:Work><dc:format>image/svg+xml</dc:format><dc:type rdf:resource="http://purl.org/dc/dcmitype/StillImage"/><cc:license rdf:resource="http://creativecommons.org/licenses/publicdomain/"/><dc:publisher><cc:Agent rdf:about="http://openclipart.org/"><dc:title>Openclipart</dc:title></cc:Agent></dc:publisher><dc:title>Designer run</dc:title><dc:date>2010-07-29T23:24:33</dc:date><dc:description>A cute designer with briefcase, laptop.</dc:description><dc:source>http://openclipart.org/detail/75385/designer-run-by-shokunin</dc:source><dc:creator><cc:Agent><dc:title>shokunin</dc:title></cc:Agent></dc:creator><dc:subject><rdf:Bag><rdf:li>animation</rdf:li><rdf:li>cartoon</rdf:li><rdf:li>character</rdf:li><rdf:li>clip art</rdf:li><rdf:li>clipart</rdf:li><rdf:li>comic</rdf:li><rdf:li>cute</rdf:li><rdf:li>designer</rdf:li></rdf:Bag></dc:subject></cc:Work><cc:License rdf:about="http://creativecommons.org/licenses/publicdomain/"><cc:permits rdf:resource="http://creativecommons.org/ns#Reproduction"/><cc:permits rdf:resource="http://creativecommons.org/ns#Distribution"/><cc:permits rdf:resource="http://creativecommons.org/ns#DerivativeWorks"/></cc:License></rdf:RDF></metadata></svg>
