<?xml version="1.0" encoding="UTF-8" standalone="no"?>
<!-- Creator: CorelDRAW -->

<svg
   xmlns:dc="http://purl.org/dc/elements/1.1/"
   xmlns:cc="http://creativecommons.org/ns#"
   xmlns:rdf="http://www.w3.org/1999/02/22-rdf-syntax-ns#"
   xmlns:svg="http://www.w3.org/2000/svg"
   xmlns="http://www.w3.org/2000/svg"
   xmlns:sodipodi="http://sodipodi.sourceforge.net/DTD/sodipodi-0.dtd"
   xmlns:inkscape="http://www.inkscape.org/namespaces/inkscape"
   xml:space="preserve"
   width="8.5in"
   height="11in"
   style="shape-rendering:geometricPrecision; text-rendering:geometricPrecision; image-rendering:optimizeQuality; fill-rule:evenodd"
   viewBox="0 0 8500 11000"
   version="1.1"
   id="svg9"
   sodipodi:docname="y.svg"
   inkscape:version="0.92.3 (2405546, 2018-03-11)"><metadata
   id="metadata13"><rdf:RDF><cc:Work
       rdf:about=""><dc:format>image/svg+xml</dc:format><dc:type
         rdf:resource="http://purl.org/dc/dcmitype/StillImage" /></cc:Work></rdf:RDF></metadata><sodipodi:namedview
   pagecolor="#ffffff"
   bordercolor="#666666"
   borderopacity="1"
   objecttolerance="10"
   gridtolerance="10"
   guidetolerance="10"
   inkscape:pageopacity="0"
   inkscape:pageshadow="2"
   inkscape:window-width="1358"
   inkscape:window-height="966"
   id="namedview11"
   showgrid="false"
   inkscape:zoom="0.5"
   inkscape:cx="265.5683"
   inkscape:cy="580.2116"
   inkscape:window-x="165"
   inkscape:window-y="59"
   inkscape:window-maximized="0"
   inkscape:current-layer="svg9" />
 <defs
   id="defs4">
  <style
   type="text/css"
   id="style2">
   <![CDATA[
    .str0 {stroke:#000000;stroke-width:3}
    .fil0 {fill:#000000}
   ]]>
  </style>
 </defs>
 <g
   id="Layer_1">
  <path
   class="fil0 str0"
   d="M7727 8644l-1133 0c-520,598 -1085,1036 -1692,1313 -191,16 -334,24 -425,24 -259,0 -552,-47 -881,-138l-272 138 -326 0c-744,0 -1117,-267 -1117,-798 0,-31 5,-75 15,-138 -546,-44 -821,-305 -821,-780 0,-51 5,-121 15,-212 -202,-57 -355,-148 -458,-275 -104,-124 -156,-285 -156,-477 0,-155 55,-324 166,-500 -272,-293 -409,-619 -409,-979 0,-415 225,-749 676,-1003 451,-251 1047,-378 1791,-378l189 0c-60,-456 -200,-897 -417,-1322l-122 -212c-262,-501 -394,-889 -394,-1161 0,-754 396,-1226 1192,-1413l220 -54 381 1687 1405 1495c96,112 261,327 500,645l212 280c228,309 389,498 482,565 94,70 244,104 451,104l889 0c272,580 409,1179 409,1790 0,596 -124,1198 -370,1799zm-252 -394c159,-461 236,-902 236,-1322 0,-495 -85,-982 -259,-1464 -637,0 -1036,-39 -1197,-114 -163,-75 -407,-342 -731,-798 -129,-176 -326,-428 -583,-749l-1526 -1625 -303 -1407c-508,174 -762,498 -762,975 0,246 85,515 259,803l98 168c397,659 594,1286 594,1884l8 213 -275 0c-803,0 -1410,80 -1814,238 -407,161 -609,402 -609,726 0,293 106,541 316,743 210,203 467,304 770,304l464 5 1376 -620c-208,-313 -487,-471 -837,-471 -91,0 -208,21 -348,59 -142,42 -308,104 -502,184l-358 16 -357 -381 616 -8c179,-75 340,-132 487,-166 146,-36 280,-54 402,-54 648,0 1122,329 1420,987l-259 122c319,156 565,430 738,819l-298 127c234,148 449,399 646,751l-469 221c256,189 464,453 622,798l-933 417c150,31 280,47 386,47l295 -8c674,-389 1221,-863 1641,-1420l1046 0zm-3462 -1101c-176,-236 -388,-389 -637,-454l-1132 508 -402 0c-381,0 -669,-54 -866,-161 -64,91 -98,179 -98,259 0,156 78,272 231,353 155,78 386,116 694,116l806 0 1404 -621zm319 888c-23,-31 -44,-57 -59,-77 -122,-140 -267,-252 -433,-332l-1164 516 -1228 -8 -23 98c0,298 295,449 889,449l570 0 1448 -646zm161 1024c-36,-44 -62,-80 -83,-106 -96,-138 -218,-259 -365,-371l-1086 485 -700 0 0 46c0,340 246,508 739,508l248 0 1247 -562z"
   id="path6" />
 </g>
<path
   style="fill:#f9f9f9;fill-opacity:1;stroke-width:4.47457647"
   d="m 408.03801,923.77627 c 0.021,-1.84576 16.34639,-10.30083 36.27886,-18.78906 19.93246,-8.48822 37.22642,-18.00149 38.43103,-21.14063 2.78554,-7.25901 -13.70122,-34.16849 -35.44291,-57.84942 l -16.85225,-18.35538 18.07454,-8.15049 c 9.941,-4.48276 19.05659,-9.73945 20.25687,-11.68155 3.34028,-5.40471 -18.65594,-37.86834 -39.10383,-57.71237 -10.13878,-9.83933 -15.43528,-17.74483 -11.88866,-17.74483 3.51791,0 9.89717,-2.55999 14.17613,-5.68884 7.19647,-5.26219 6.48252,-7.69506 -9.51991,-32.44068 -9.51491,-14.71352 -24.67967,-31.78573 -33.69946,-37.93827 l -16.39962,-11.18644 9.79855,-7.42664 9.79855,-7.42668 -8.75261,-16.63039 c -13.04908,-24.79385 -44.30777,-55.12328 -68.17689,-66.15016 -29.53029,-13.64216 -91.0514,-13.34001 -126.27064,0.62017 -16.03604,6.35632 -34.35349,9.75574 -52.57627,9.75722 -15.38135,0.001 -27.9661,1.60713 -27.9661,3.5687 0,1.96156 7.63574,11.02258 16.96832,20.13559 20.95088,20.45799 36.21043,21.41506 79.80697,5.00535 51.47175,-19.37393 91.25297,-14.21931 119.74046,15.51524 l 11.96399,12.48769 -67.10507,30.41249 -67.10507,30.41253 -33.56104,-2.15384 C 111.16633,649.51969 71.913152,619.88037 63.448792,573.59235 50.595254,503.3018 120.869,466.59676 268.79014,466.33948 l 50.95963,-0.0886 -2.28174,-39.15254 c -2.8522,-48.94106 -15.28236,-90.92513 -41.3994,-139.83051 -38.92602,-72.89079 -44.34658,-86.32539 -46.20648,-114.52068 -2.61881,-39.69986 14.13118,-69.22791 49.58204,-87.406679 19.93047,-10.220101 16.77375,-16.255807 33.06217,63.215489 l 12.38095,60.40678 58.33601,62.27104 c 82.09549,87.63321 100.51742,108.6408 132.42093,151.00714 44.42163,58.9898 66.67661,83.95431 81.82613,91.78843 9.06192,4.6861 29.22096,7.9194 56.60688,9.07916 62.20127,2.63414 60.04734,1.63586 68.40697,31.70385 19.27195,69.31741 19.56786,147.22488 0.79925,210.42563 l -6.88441,23.18238 H 666.1452 615.89127 l -17.81002,22.60789 c -22.49844,28.5592 -71.60655,71.61689 -110.3224,96.72991 -26.14729,16.96043 -32.97595,19.37406 -54.81356,19.37406 -13.71991,0 -24.92818,-1.51017 -24.90728,-3.35593 z"
   id="path4544"
   inkscape:connector-curvature="0"
   transform="scale(10.416667)" /><path
   style="fill:#f9f9f9;fill-opacity:1;stroke-width:4.47457647"
   d="m 408,923.51187 c 0,-1.99114 16.26922,-10.49776 36.15382,-18.90356 19.8846,-8.40576 37.07601,-16.77537 38.20313,-18.59907 3.41306,-5.52248 -14.16157,-35.92584 -33.34323,-57.68239 l -18.07408,-20.50032 19.96808,-9.70124 19.96809,-9.70124 -7.38688,-14.28463 c -4.06279,-7.8566 -17.4098,-24.88241 -29.66002,-37.83523 l -22.27313,-23.55055 11.64584,-2.92292 c 6.96781,-1.7488 11.64584,-6.05317 11.64584,-10.71563 0,-10.32705 -20.95621,-38.713 -43.67167,-59.15488 -17.80622,-16.02404 -18.04768,-16.62162 -9.11319,-22.55393 l 9.17766,-6.09374 -9.09488,-17.82743 c -11.30553,-22.16065 -49.50936,-58.40861 -71.04317,-67.406 -28.46954,-11.89533 -71.36602,-12.46145 -106.69543,-1.40811 -17.22712,5.38977 -46.33439,11.06201 -64.68282,12.60498 l -33.36079,2.80538 18.12559,19.01695 c 21.9584,23.03825 33.35557,24.12391 79.29323,7.55326 53.44172,-19.2775 91.44972,-14.93113 119.12483,13.62231 l 14.93964,15.4138 -10.78763,4.19388 c -5.93321,2.30665 -35.95714,15.67664 -66.71985,29.7111 l -55.9322,25.51717 -37.18298,-2.22221 C 136.37597,651.044 126.48533,648.46723 109.17259,637.76355 64.669992,610.24969 47.707297,552.62668 73.973343,518.19011 99.058246,485.3021 169.51612,466.25085 266.06202,466.25085 h 53.77112 l -2.6146,-39.15254 C 313.7167,374.65938 301.40946,337.297 263.241,263.23294 c -31.61232,-61.34217 -31.98676,-62.47658 -31.98676,-96.9067 0,-32.23924 1.03116,-36.12059 13.82372,-52.03294 16.83726,-20.943472 50.06629,-41.031051 53.06365,-32.077988 1.09261,3.263612 7.85272,33.433658 15.02247,67.044548 l 13.0359,61.11071 74.75651,79.78601 c 41.11608,43.88231 97.7387,109.32064 125.82798,145.41852 28.18433,36.21995 58.22905,70.05611 67.04316,75.50352 13.08827,8.089 25.39228,10.38626 68.15509,12.72503 l 52.18349,2.85398 8.13877,26.77425 c 19.69766,64.79996 20.03983,147.61967 0.87643,212.14982 l -6.78234,22.83864 -50.16564,0.17943 -50.16563,0.17943 -17.89831,22.74588 c -22.21202,28.22796 -61.31794,62.82744 -104.83065,92.75032 -30.6382,21.06934 -35.27465,22.8568 -59.28813,22.8568 C 419.72282,927.1322 408,925.50305 408,923.51187 Z"
   id="path4546"
   inkscape:connector-curvature="0"
   transform="scale(10.416667)" /><path
   style="fill:#f9f9f9;fill-opacity:1;stroke-width:4.47457647"
   d="m 408.04121,923.77627 c 0.0228,-1.84576 17.13791,-11.17355 38.03389,-20.72838 20.89599,-9.55484 37.9927,-18.72503 37.9927,-20.37821 0,-5.84916 -27.9175,-47.46331 -41.18469,-61.39033 l -13.45487,-14.12409 20.80732,-9.20407 20.80732,-9.20403 -6.74645,-13.04621 c -3.71055,-7.17543 -16.82251,-24.07102 -29.1377,-37.54581 l -22.39125,-24.4996 11.03999,-5.03014 c 6.07199,-2.76659 11.03999,-7.22747 11.03999,-9.91311 0,-8.65325 -26.19625,-43.27448 -44.77962,-59.18115 l -18.05345,-15.45308 9.90477,-6.57651 9.90476,-6.57655 -11.73144,-20.01819 c -14.73116,-25.13682 -46.78382,-54.96694 -69.11249,-64.32015 -29.22843,-12.2435 -66.55059,-12.97489 -104.33592,-2.04466 -18.45763,5.33925 -48.42735,11.01985 -66.59939,12.62354 l -33.04006,2.91582 18.49272,19.01695 c 22.16865,22.79707 30.48212,23.61117 77.00706,7.54069 56.87254,-19.64469 93.30118,-15.09427 122.15405,15.2587 l 12.86184,13.5305 -15.09913,6.51578 c -8.30452,3.58369 -38.25506,16.99785 -66.55675,29.80923 -51.40035,23.26744 -51.49902,23.29093 -88.64061,21.10277 C 121.48536,650.16135 95.306252,636.18702 75.262747,603.76742 59.330374,577.99739 56.771528,542.00296 69.491799,522.58934 92.426914,487.58595 148.45231,470.50802 250.9014,467.29122 l 68.8675,-2.16237 -2.8353,-39.94397 c -3.60544,-50.79375 -17.35002,-91.84436 -55.09293,-164.54476 -30.73641,-59.20449 -37.32038,-84.47471 -30.91087,-118.64033 3.69087,-19.67402 25.00559,-44.710344 48.09074,-56.487509 20.382,-10.398121 16.96635,-16.758232 34.32161,63.908639 l 13.18245,61.27176 73.69076,78.40714 c 40.52992,43.12392 92.89169,103.14146 116.35952,133.3723 49.94419,64.33732 71.46059,87.36073 87.69986,93.84229 6.48616,2.58883 33.86583,5.97514 60.84367,7.52508 l 49.05062,2.81814 8.06896,26.54972 c 19.84842,65.30787 20.35485,148.82476 1.28394,211.72146 l -7.12286,23.49153 -50.16564,0.17943 -50.16563,0.17943 -17.89831,22.74588 c -22.21202,28.22796 -61.31794,62.82744 -104.83065,92.75032 -30.6382,21.0693 -35.27465,22.85676 -59.28813,22.85676 -14.32789,0 -26.03217,-1.51017 -26.0095,-3.35593 z"
   id="path4548"
   inkscape:connector-curvature="0"
   transform="scale(10.416667)" /><path
   style="fill:#f9f9f9;fill-opacity:1;stroke-width:4.47457647"
   d="M 128.33898,739.51898 C 96.529299,731.84235 83.194238,716.6434 88.214525,693.78619 c 2.476878,-11.27715 4.603934,-13.09543 12.602975,-10.77343 21.54339,6.25371 60.44606,11.39115 86.44306,11.41556 23.87992,0.0224 35.03621,-3.31323 82.77966,-24.75056 l 55.18012,-24.77647 16.45204,7.41 c 9.04862,4.07551 21.97269,13.17233 28.72015,20.21516 l 12.26811,12.80515 -15.29642,6.45195 c -8.41303,3.54857 -38.36139,16.67574 -66.5519,29.17148 l -51.25547,22.71955 -53.89707,-0.45803 c -29.64339,-0.25191 -59.93775,-1.91582 -67.3208,-3.69757 z"
   id="path4550"
   inkscape:connector-curvature="0"
   transform="scale(10.416667)" /><path
   style="fill:#f9f9f9;fill-opacity:1;stroke-width:4.47457647"
   d="m 190.66585,828.71965 c -26.64865,-3.91095 -40.23961,-10.39346 -46.5633,-22.20939 -11.46151,-21.41603 -8.65904,-22.5645 55.06188,-22.5645 h 59.63901 l 55.2845,-24.81451 55.28451,-24.81451 18.19513,13.16224 c 10.00732,7.23924 18.73771,15.88882 19.40087,19.22129 0.78206,3.92999 -22.80247,16.67292 -67.11864,36.26481 -73.52619,32.50545 -87.15393,34.85809 -149.18396,25.75457 z"
   id="path4552"
   inkscape:connector-curvature="0"
   transform="scale(10.416667)" /><path
   style="fill:#f9f9f9;fill-opacity:1;stroke-width:46.61017227"
   d="m 4053.1414,8611.4708 c -222.3349,69.3995 -432.9257,173.4601 -647.3476,264.09 -231.1802,101.5938 -471.7536,211.4278 -729.5241,201.5879 -119.9302,7.0776 -246.5267,-14.402 -361.8979,26.0214 -66.7691,37.2832 -43.7965,132.3777 -15.7674,188.2324 95.3229,179.4899 288.8691,288.4483 486.084,316.5486 253.4017,58.9061 510.2107,-24.5927 742.5687,-121.5501 297.2526,-126.4549 593.8839,-256.4237 879.8475,-406.8312 46.72,-34.6333 -6.0755,-96.6348 -24.5768,-132.6701 -83.9361,-120.3009 -174.4626,-243.42 -297.0581,-326.7009 -9.9527,-5.0854 -20.9789,-9.3495 -32.3283,-8.728 z"
   id="path4554"
   inkscape:connector-curvature="0" /></svg>